<?xml version="1.0" encoding="UTF-8"?>
<!DOCTYPE svg PUBLIC "-//W3C//DTD SVG 1.1//EN" "http://www.w3.org/Graphics/SVG/1.1/DTD/svg11.dtd">
<!-- Creator: CorelDRAW X6 -->
<svg xmlns="http://www.w3.org/2000/svg" xml:space="preserve" width="2480px" height="3508px" version="1.1" style="shape-rendering:geometricPrecision; text-rendering:geometricPrecision; image-rendering:optimizeQuality; fill-rule:evenodd; clip-rule:evenodd"
viewBox="0 0 2480 3507"
 xmlns:xlink="http://www.w3.org/1999/xlink">
 <defs>
  <style type="text/css">
   <![CDATA[
    .str0 {stroke:#2B2A29;stroke-width:23.619}
    .fil0 {fill:none}
   ]]>
  </style>
 </defs>
 <g id="Warstwa_x0020_1">
  <metadata id="CorelCorpID_0Corel-Layer"/>
  <path class="fil0 str0" d="M672 1359l125 0 0 751 -125 0 0 -751zm990 0l125 0 0 751 -125 0 0 -751zm-194 0l125 0 0 751 -125 0 0 -751zm-194 0l125 0 0 751 -125 0 0 -751zm-200 0l125 0 0 751 -125 0 0 -751zm-200 0l125 0 0 751 -125 0 0 -751zm-371 811l1456 0 0 70 -1456 0 0 -70zm119 -948l1218 0 0 70 -1218 0 0 -70zm-193 1078l1603 0 0 70 -1603 0 0 -70zm104 -1146l706 -312 709 315 -1415 -3zm708 -215c38,0 68,30 68,66 0,36 -30,66 -68,66 -38,0 -68,-30 -68,-66 0,-36 30,-66 68,-66z"/>
 </g>
</svg>
