<?xml version="1.0" encoding="UTF-8"?>
<!DOCTYPE svg PUBLIC "-//W3C//DTD SVG 1.1//EN" "http://www.w3.org/Graphics/SVG/1.1/DTD/svg11.dtd">
<!-- Creator: CorelDRAW X6 -->
<svg xmlns="http://www.w3.org/2000/svg" xml:space="preserve" width="2480px" height="3508px" version="1.1" style="shape-rendering:geometricPrecision; text-rendering:geometricPrecision; image-rendering:optimizeQuality; fill-rule:evenodd; clip-rule:evenodd"
viewBox="0 0 2480 3507"
 xmlns:xlink="http://www.w3.org/1999/xlink">
 <defs>
  <style type="text/css">
   <![CDATA[
    .fil0 {fill:#2B2A29;fill-rule:nonzero}
   ]]>
  </style>
 </defs>
 <g id="Warstwa_x0020_1">
  <metadata id="CorelCorpID_0Corel-Layer"/>
  <g id="_181410256">
   <g>
    <path class="fil0" d="M480 1004l-18 -2 13 -7 27 12 27 11 27 9 27 8 27 6 27 5 27 4 27 2 27 1 27 0 27 -2 27 -3 26 -4 26 -5 26 -6 25 -8 25 -9 24 -10 24 -11 23 -12 22 -13 22 -14 21 -15 20 -16 19 -17 18 -17 17 -18 16 -19 15 -20 14 -21 13 -21 12 -22 16 8 -12 23 -14 22 -15 21 -16 21 -17 20 -18 19 -19 18 -20 17 -21 16 -22 15 -22 14 -23 13 -24 12 -24 11 -25 10 -26 9 -26 8 -26 7 -27 5 -27 4 -28 3 -28 2 -28 0 -28 -1 -28 -2 -28 -4 -28 -5 -28 -7 -28 -8 -28 -10 -28 -11 -28 -13 13 -7zm-18 -2l2 -13 12 6 -13 7zm754 1470l3 18 -3 0 -65 -12 -62 -18 -58 -23 -55 -27 -51 -31 -48 -35 -45 -39 -42 -43 -39 -46 -36 -48 -33 -51 -30 -53 -28 -55 -25 -57 -23 -58 -21 -59 -18 -59 -16 -60 -14 -60 -12 -60 -10 -59 -9 -59 -7 -57 -6 -56 -4 -54 -3 -52 -1 -50 0 -48 1 -45 2 -42 3 -38 4 -35 18 2 -3 34 -3 38 -2 41 -1 44 0 47 1 50 3 52 4 54 5 56 7 57 9 58 10 59 12 59 14 59 16 59 18 59 20 58 23 57 25 56 27 54 30 52 33 50 35 47 38 45 41 42 44 38 47 35 50 31 53 26 57 22 60 17 64 12 -3 0zm3 18l-1 0 -1 0 3 0zm749 -1479l-8 -16 13 7 4 35 3 38 2 42 1 45 0 48 -1 50 -3 52 -4 54 -6 56 -7 57 -9 59 -10 59 -12 60 -14 60 -16 60 -18 59 -21 59 -23 58 -25 57 -28 55 -30 53 -33 51 -36 48 -39 46 -42 43 -45 39 -48 35 -51 31 -55 27 -58 23 -62 18 -65 12 -3 -18 64 -12 60 -17 57 -22 53 -26 50 -31 47 -35 44 -38 41 -42 38 -45 35 -47 33 -50 30 -52 27 -54 25 -56 23 -57 20 -58 18 -59 16 -59 14 -59 12 -59 10 -59 9 -58 7 -57 5 -56 4 -54 3 -52 1 -50 0 -47 -1 -44 -2 -41 -3 -38 -3 -34 13 7zm-8 -16l12 -6 2 13 -13 -7zm-734 -214l-16 -8 16 0 12 22 13 21 14 21 15 20 16 19 17 18 18 17 19 17 20 16 21 15 22 14 22 13 23 12 24 11 24 10 25 9 25 8 26 6 26 5 26 4 27 3 27 2 27 0 27 -1 27 -2 27 -4 27 -5 27 -6 27 -8 27 -9 27 -11 27 -12 8 16 -28 13 -28 11 -28 10 -28 8 -28 7 -28 5 -28 4 -28 2 -28 1 -28 0 -28 -2 -28 -3 -27 -4 -27 -5 -26 -7 -26 -8 -26 -9 -25 -10 -24 -11 -24 -12 -23 -13 -22 -14 -22 -15 -21 -16 -20 -17 -19 -18 -18 -19 -17 -20 -16 -21 -15 -21 -14 -22 -12 -23 16 0zm-16 -8l8 -16 8 16 -16 0zm-1 234l0 -4 18 0 0 4 -18 0zm18 -4l0 4 -18 0 0 -4 18 0zm158 1079l-60 -467 18 -2 60 467 -9 10 -9 -8zm18 -2l1 10 -10 0 9 -10zm-346 -8l337 0 0 18 -337 0 -9 -10 9 -8zm0 18l-10 0 1 -10 9 10zm58 -474l-49 465 -18 -2 49 -465 14 -6 4 8zm-4 -8l4 3 -1 5 -4 -8zm-93 -145l18 0 0 0 0 6 0 6 0 5 1 5 1 5 1 5 1 5 1 5 1 5 2 5 2 5 2 5 2 5 2 5 2 5 2 5 3 5 3 5 3 4 3 4 3 4 3 4 3 4 3 4 4 4 4 4 4 4 4 4 4 3 4 3 4 3 4 3 -11 15 -5 -3 -5 -4 -4 -4 -4 -4 -4 -4 -4 -4 -4 -4 -4 -4 -4 -4 -4 -4 -3 -5 -3 -5 -3 -5 -3 -5 -3 -5 -3 -5 -3 -5 -2 -5 -2 -5 -2 -5 -2 -5 -2 -6 -2 -6 -2 -6 -1 -6 -1 -6 -1 -6 -1 -6 -1 -6 0 -6 0 -6 0 -6 0 0zm201 -198l0 18 0 0 -9 0 -9 1 -9 1 -9 2 -9 2 -9 2 -9 3 -8 3 -8 4 -8 4 -8 4 -7 5 -7 5 -7 5 -7 6 -6 6 -6 6 -6 7 -5 7 -5 7 -5 7 -4 8 -4 8 -4 8 -3 8 -3 8 -2 8 -2 9 -2 9 -1 9 -1 9 0 9 -18 0 0 -10 1 -10 1 -10 2 -10 2 -10 3 -9 3 -9 4 -9 4 -9 4 -9 5 -8 5 -8 6 -8 6 -7 6 -7 7 -7 7 -7 7 -6 8 -6 8 -6 8 -5 8 -5 9 -4 9 -4 9 -4 9 -3 10 -3 10 -2 10 -2 10 -1 10 -1 10 0 0 0zm201 198l-18 0 0 0 0 -9 -1 -9 -1 -9 -2 -9 -2 -9 -2 -8 -3 -8 -3 -8 -4 -8 -4 -8 -4 -8 -5 -7 -5 -7 -5 -7 -6 -7 -6 -6 -6 -6 -7 -6 -7 -5 -7 -5 -7 -5 -8 -4 -8 -4 -8 -4 -8 -3 -9 -3 -9 -2 -9 -2 -9 -2 -9 -1 -9 -1 -9 0 0 -18 10 0 10 1 10 1 10 2 10 2 10 3 9 3 9 4 9 4 9 4 8 5 8 5 8 6 8 6 7 6 7 7 7 7 6 7 6 7 6 8 5 8 5 8 4 9 4 9 4 9 3 9 3 9 2 10 2 10 1 10 1 10 0 10 0 0zm-77 150l-18 2 4 -9 4 -3 4 -3 4 -3 4 -3 4 -4 4 -4 4 -4 3 -4 3 -4 3 -4 3 -4 3 -4 3 -4 3 -4 3 -4 2 -5 2 -5 2 -5 2 -5 2 -5 2 -5 2 -5 1 -5 1 -5 1 -5 1 -5 1 -5 1 -5 1 -5 0 -5 0 -5 0 -5 18 0 0 6 0 6 0 6 -1 6 -1 6 -1 6 -1 6 -1 6 -1 6 -2 6 -2 5 -2 5 -2 5 -2 5 -2 5 -3 5 -3 5 -3 5 -3 5 -3 5 -3 5 -3 5 -4 4 -4 4 -4 4 -4 4 -4 4 -4 4 -4 4 -4 4 -4 4 -5 3 4 -9zm-18 2l-1 -5 4 -3 -4 9z"/>
   </g>
   <g>
    <path class="fil0" d="M1632 2065l-9 -218 14 -1 9 218 -7 7 -7 -7zm14 -1l0 7 -7 0 7 -7zm-8 -6l1 0 1 14 -1 0 -1 -14z"/>
   </g>
   <g>
    <polygon class="fil0" points="1367,1924 1362,1822 1376,1822 1380,1924 "/>
   </g>
   <g>
    <path class="fil0" d="M1011 1419l1 -8 14 1 -1 8 -9 6 -5 -7zm5 7l-6 -1 1 -6 5 7zm8 2l-8 -2 3 -13 8 2 5 7 -9 6zm9 -6l-1 8 -8 -2 9 -6zm1 -8l-1 8 -14 -1 1 -8 9 -6 5 7zm-5 -7l6 1 -1 6 -5 -7zm-8 -2l8 2 -3 13 -8 -2 -5 -7 9 -6zm-9 6l1 -8 8 2 -9 6z"/>
   </g>
   <g>
    <path class="fil0" d="M997 1416l1 -8 14 1 -1 8 -9 6 -5 -7zm5 7l-6 -1 1 -6 5 7zm8 2l-8 -2 3 -13 8 2 5 7 -9 6zm9 -6l-1 8 -8 -2 9 -6zm1 -8l-1 8 -14 -1 1 -8 9 -6 5 7zm-5 -7l6 1 -1 6 -5 -7zm-8 -2l8 2 -3 13 -8 -2 -5 -7 9 -6zm-9 6l1 -8 8 2 -9 6z"/>
   </g>
   <g>
    <path class="fil0" d="M983 1412l1 -8 14 1 -1 8 -9 6 -5 -7zm5 7l-6 -1 1 -6 5 7zm8 2l-8 -2 3 -13 8 2 5 7 -9 6zm9 -6l-1 8 -8 -2 9 -6zm1 -8l-1 8 -14 -1 1 -8 9 -6 5 7zm-5 -7l6 1 -1 6 -5 -7zm-8 -2l8 2 -3 13 -8 -2 -5 -7 9 -6zm-9 6l1 -8 8 2 -9 6z"/>
   </g>
   <g>
    <path class="fil0" d="M969 1409l1 -8 14 1 -1 8 -9 6 -5 -7zm5 7l-6 -1 1 -6 5 7zm8 2l-8 -2 3 -13 8 2 5 7 -9 6zm9 -6l-1 8 -8 -2 9 -6zm1 -8l-1 8 -14 -1 1 -8 9 -6 5 7zm-5 -7l6 1 -1 6 -5 -7zm-8 -2l8 2 -3 13 -8 -2 -5 -7 9 -6zm-9 6l1 -8 8 2 -9 6z"/>
   </g>
   <g>
    <path class="fil0" d="M955 1405l1 -8 14 1 -1 8 -9 6 -5 -7zm5 7l-6 -1 1 -6 5 7zm8 2l-8 -2 3 -13 8 2 5 7 -9 6zm9 -6l-1 8 -8 -2 9 -6zm1 -8l-1 8 -14 -1 1 -8 9 -6 5 7zm-5 -7l6 1 -1 6 -5 -7zm-8 -2l8 2 -3 13 -8 -2 -5 -7 9 -6zm-9 6l1 -8 8 2 -9 6z"/>
   </g>
   <g>
    <path class="fil0" d="M939 1401l1 -8 18 2 -1 8 -11 8 -7 -10zm7 10l-8 -2 1 -8 7 10zm8 2l-8 -2 5 -18 8 2 7 10 -11 8zm11 -8l-1 11 -10 -3 11 -8zm1 -8l-1 8 -18 -2 1 -8 11 -8 7 10zm-7 -10l8 2 -1 8 -7 -10zm-8 -2l8 2 -5 18 -8 -2 -7 -10 11 -8zm-11 8l1 -11 10 3 -11 8z"/>
   </g>
   <g>
    <path class="fil0" d="M925 1397l1 -8 18 2 -1 8 -11 8 -7 -10zm7 10l-8 -2 1 -8 7 10zm8 2l-8 -2 5 -18 8 2 7 10 -11 8zm11 -8l-1 11 -10 -3 11 -8zm1 -8l-1 8 -18 -2 1 -8 11 -8 7 10zm-7 -10l8 2 -1 8 -7 -10zm-8 -2l8 2 -5 18 -8 -2 -7 -10 11 -8zm-11 8l1 -11 10 3 -11 8z"/>
   </g>
   <g>
    <path class="fil0" d="M911 1394l1 -8 18 2 -1 8 -11 8 -7 -10zm7 10l-8 -2 1 -8 7 10zm8 2l-8 -2 5 -18 8 2 7 10 -11 8zm11 -8l-1 11 -10 -3 11 -8zm1 -8l-1 8 -18 -2 1 -8 11 -8 7 10zm-7 -10l8 2 -1 8 -7 -10zm-8 -2l8 2 -5 18 -8 -2 -7 -10 11 -8zm-11 8l1 -11 10 3 -11 8z"/>
   </g>
   <g>
    <path class="fil0" d="M897 1390l1 -8 18 2 -1 8 -11 8 -7 -10zm7 10l-8 -2 1 -8 7 10zm8 2l-8 -2 5 -18 8 2 7 10 -11 8zm11 -8l-1 11 -10 -3 11 -8zm1 -8l-1 8 -18 -2 1 -8 11 -8 7 10zm-7 -10l8 2 -1 8 -7 -10zm-8 -2l8 2 -5 18 -8 -2 -7 -10 11 -8zm-11 8l1 -11 10 3 -11 8z"/>
   </g>
   <g>
    <path class="fil0" d="M883 1386l1 -8 18 2 -1 8 -11 8 -7 -10zm7 10l-8 -2 1 -8 7 10zm8 2l-8 -2 5 -18 8 2 7 10 -11 8zm11 -8l-1 11 -10 -3 11 -8zm1 -8l-1 8 -18 -2 1 -8 11 -8 7 10zm-7 -10l8 2 -1 8 -7 -10zm-8 -2l8 2 -5 18 -8 -2 -7 -10 11 -8zm-11 8l1 -11 10 3 -11 8z"/>
   </g>
   <g>
    <path class="fil0" d="M869 1383l1 -8 18 2 -1 8 -11 8 -7 -10zm7 10l-8 -2 1 -8 7 10zm8 2l-8 -2 5 -18 8 2 7 10 -11 8zm11 -8l-1 11 -10 -3 11 -8zm1 -8l-1 8 -18 -2 1 -8 11 -8 7 10zm-7 -10l8 2 -1 8 -7 -10zm-8 -2l8 2 -5 18 -8 -2 -7 -10 11 -8zm-11 8l1 -11 10 3 -11 8z"/>
   </g>
   <g>
    <path class="fil0" d="M855 1379l1 -8 18 2 -1 8 -11 8 -7 -10zm7 10l-8 -2 1 -8 7 10zm8 2l-8 -2 5 -18 8 2 7 10 -11 8zm11 -8l-1 11 -10 -3 11 -8zm1 -8l-1 8 -18 -2 1 -8 11 -8 7 10zm-7 -10l8 2 -1 8 -7 -10zm-8 -2l8 2 -5 18 -8 -2 -7 -10 11 -8zm-11 8l1 -11 10 3 -11 8z"/>
   </g>
   <g>
    <path class="fil0" d="M841 1375l1 -8 18 2 -1 8 -11 8 -7 -10zm7 10l-8 -2 1 -8 7 10zm8 2l-8 -2 5 -18 8 2 7 10 -11 8zm11 -8l-1 11 -10 -3 11 -8zm1 -8l-1 8 -18 -2 1 -8 11 -8 7 10zm-7 -10l8 2 -1 8 -7 -10zm-8 -2l8 2 -5 18 -8 -2 -7 -10 11 -8zm-11 8l1 -11 10 3 -11 8z"/>
   </g>
   <g>
    <path class="fil0" d="M827 1372l1 -8 18 2 -1 8 -11 8 -7 -10zm7 10l-8 -2 1 -8 7 10zm8 2l-8 -2 5 -18 8 2 7 10 -11 8zm11 -8l-1 11 -10 -3 11 -8zm1 -8l-1 8 -18 -2 1 -8 11 -8 7 10zm-7 -10l8 2 -1 8 -7 -10zm-8 -2l8 2 -5 18 -8 -2 -7 -10 11 -8zm-11 8l1 -11 10 3 -11 8z"/>
   </g>
   <g>
    <path class="fil0" d="M813 1368l1 -8 18 2 -1 8 -11 8 -7 -10zm7 10l-8 -2 1 -8 7 10zm8 2l-8 -2 5 -18 8 2 7 10 -11 8zm11 -8l-1 11 -10 -3 11 -8zm1 -8l-1 8 -18 -2 1 -8 11 -8 7 10zm-7 -10l8 2 -1 8 -7 -10zm-8 -2l8 2 -5 18 -8 -2 -7 -10 11 -8zm-11 8l1 -11 10 3 -11 8z"/>
   </g>
   <g>
    <path class="fil0" d="M799 1364l1 -8 18 2 -1 8 -11 8 -7 -10zm7 10l-8 -2 1 -8 7 10zm8 2l-8 -2 5 -18 8 2 7 10 -11 8zm11 -8l-1 11 -10 -3 11 -8zm1 -8l-1 8 -18 -2 1 -8 11 -8 7 10zm-7 -10l8 2 -1 8 -7 -10zm-8 -2l8 2 -5 18 -8 -2 -7 -10 11 -8zm-11 8l1 -11 10 3 -11 8z"/>
   </g>
   <g>
    <path class="fil0" d="M785 1361l1 -8 18 2 -1 8 -11 8 -7 -10zm7 10l-8 -2 1 -8 7 10zm8 2l-8 -2 5 -18 8 2 7 10 -11 8zm11 -8l-1 11 -10 -3 11 -8zm1 -8l-1 8 -18 -2 1 -8 11 -8 7 10zm-7 -10l8 2 -1 8 -7 -10zm-8 -2l8 2 -5 18 -8 -2 -7 -10 11 -8zm-11 8l1 -11 10 3 -11 8z"/>
   </g>
   <g>
    <path class="fil0" d="M771 1357l1 -8 18 2 -1 8 -11 8 -7 -10zm7 10l-8 -2 1 -8 7 10zm8 2l-8 -2 5 -18 8 2 7 10 -11 8zm11 -8l-1 11 -10 -3 11 -8zm1 -8l-1 8 -18 -2 1 -8 11 -8 7 10zm-7 -10l8 2 -1 8 -7 -10zm-8 -2l8 2 -5 18 -8 -2 -7 -10 11 -8zm-11 8l1 -11 10 3 -11 8z"/>
   </g>
   <g>
    <path class="fil0" d="M757 1353l1 -8 18 2 -1 8 -11 8 -7 -10zm7 10l-8 -2 1 -8 7 10zm8 2l-8 -2 5 -18 8 2 7 10 -11 8zm11 -8l-1 11 -10 -3 11 -8zm1 -8l-1 8 -18 -2 1 -8 11 -8 7 10zm-7 -10l8 2 -1 8 -7 -10zm-8 -2l8 2 -5 18 -8 -2 -7 -10 11 -8zm-11 8l1 -11 10 3 -11 8z"/>
   </g>
   <g>
    <path class="fil0" d="M743 1350l1 -8 18 2 -1 8 -11 8 -7 -10zm7 10l-8 -2 1 -8 7 10zm8 2l-8 -2 5 -18 8 2 7 10 -11 8zm11 -8l-1 11 -10 -3 11 -8zm1 -8l-1 8 -18 -2 1 -8 11 -8 7 10zm-7 -10l8 2 -1 8 -7 -10zm-8 -2l8 2 -5 18 -8 -2 -7 -10 11 -8zm-11 8l1 -11 10 3 -11 8z"/>
   </g>
   <g>
    <path class="fil0" d="M729 1346l1 -8 18 2 -1 8 -11 8 -7 -10zm7 10l-8 -2 1 -8 7 10zm8 2l-8 -2 5 -18 8 2 7 10 -11 8zm11 -8l-1 11 -10 -3 11 -8zm1 -8l-1 8 -18 -2 1 -8 11 -8 7 10zm-7 -10l8 2 -1 8 -7 -10zm-8 -2l8 2 -5 18 -8 -2 -7 -10 11 -8zm-11 8l1 -11 10 3 -11 8z"/>
   </g>
   <g>
    <path class="fil0" d="M715 1342l1 -8 18 2 -1 8 -11 8 -7 -10zm7 10l-8 -2 1 -8 7 10zm8 2l-8 -2 5 -18 8 2 7 10 -11 8zm11 -8l-1 11 -10 -3 11 -8zm1 -8l-1 8 -18 -2 1 -8 11 -8 7 10zm-7 -10l8 2 -1 8 -7 -10zm-8 -2l8 2 -5 18 -8 -2 -7 -10 11 -8zm-11 8l1 -11 10 3 -11 8z"/>
   </g>
   <g>
    <path class="fil0" d="M701 1339l1 -8 18 2 -1 8 -11 8 -7 -10zm7 10l-8 -2 1 -8 7 10zm8 2l-8 -2 5 -18 8 2 7 10 -11 8zm11 -8l-1 11 -10 -3 11 -8zm1 -8l-1 8 -18 -2 1 -8 11 -8 7 10zm-7 -10l8 2 -1 8 -7 -10zm-8 -2l8 2 -5 18 -8 -2 -7 -10 11 -8zm-11 8l1 -11 10 3 -11 8z"/>
   </g>
   <g>
    <path class="fil0" d="M687 1335l1 -8 18 2 -1 8 -11 8 -7 -10zm7 10l-8 -2 1 -8 7 10zm8 2l-8 -2 5 -18 8 2 7 10 -11 8zm11 -8l-1 11 -10 -3 11 -8zm1 -8l-1 8 -18 -2 1 -8 11 -8 7 10zm-7 -10l8 2 -1 8 -7 -10zm-8 -2l8 2 -5 18 -8 -2 -7 -10 11 -8zm-11 8l1 -11 10 3 -11 8z"/>
   </g>
   <g>
    <path class="fil0" d="M673 1332l1 -8 18 2 -1 8 -11 8 -7 -10zm7 10l-8 -2 1 -8 7 10zm8 2l-8 -2 5 -18 8 2 7 10 -11 8zm11 -8l-1 11 -10 -3 11 -8zm1 -8l-1 8 -18 -2 1 -8 11 -8 7 10zm-7 -10l8 2 -1 8 -7 -10zm-8 -2l8 2 -5 18 -8 -2 -7 -10 11 -8zm-11 8l1 -11 10 3 -11 8z"/>
   </g>
   <g>
    <path class="fil0" d="M659 1328l1 -8 18 2 -1 8 -11 8 -7 -10zm7 10l-8 -2 1 -8 7 10zm8 2l-8 -2 5 -18 8 2 7 10 -11 8zm11 -8l-1 11 -10 -3 11 -8zm1 -8l-1 8 -18 -2 1 -8 11 -8 7 10zm-7 -10l8 2 -1 8 -7 -10zm-8 -2l8 2 -5 18 -8 -2 -7 -10 11 -8zm-11 8l1 -11 10 3 -11 8z"/>
   </g>
   <g>
    <path class="fil0" d="M645 1324l1 -8 18 2 -1 8 -11 8 -7 -10zm7 10l-8 -2 1 -8 7 10zm8 2l-8 -2 5 -18 8 2 7 10 -11 8zm11 -8l-1 11 -10 -3 11 -8zm1 -8l-1 8 -18 -2 1 -8 11 -8 7 10zm-7 -10l8 2 -1 8 -7 -10zm-8 -2l8 2 -5 18 -8 -2 -7 -10 11 -8zm-11 8l1 -11 10 3 -11 8z"/>
   </g>
   <g>
    <path class="fil0" d="M631 1321l1 -8 18 2 -1 8 -11 8 -7 -10zm7 10l-8 -2 1 -8 7 10zm8 2l-8 -2 5 -18 8 2 7 10 -11 8zm11 -8l-1 11 -10 -3 11 -8zm1 -8l-1 8 -18 -2 1 -8 11 -8 7 10zm-7 -10l8 2 -1 8 -7 -10zm-8 -2l8 2 -5 18 -8 -2 -7 -10 11 -8zm-11 8l1 -11 10 3 -11 8z"/>
   </g>
   <g>
    <path class="fil0" d="M617 1317l1 -8 18 2 -1 8 -11 8 -7 -10zm7 10l-8 -2 1 -8 7 10zm8 2l-8 -2 5 -18 8 2 7 10 -11 8zm11 -8l-1 11 -10 -3 11 -8zm1 -8l-1 8 -18 -2 1 -8 11 -8 7 10zm-7 -10l8 2 -1 8 -7 -10zm-8 -2l8 2 -5 18 -8 -2 -7 -10 11 -8zm-11 8l1 -11 10 3 -11 8z"/>
   </g>
   <g>
    <path class="fil0" d="M603 1313l1 -8 18 2 -1 8 -11 8 -7 -10zm7 10l-8 -2 1 -8 7 10zm8 2l-8 -2 5 -18 8 2 7 10 -11 8zm11 -8l-1 11 -10 -3 11 -8zm1 -8l-1 8 -18 -2 1 -8 11 -8 7 10zm-7 -10l8 2 -1 8 -7 -10zm-8 -2l8 2 -5 18 -8 -2 -7 -10 11 -8zm-11 8l1 -11 10 3 -11 8z"/>
   </g>
   <g>
    <path class="fil0" d="M589 1310l1 -8 18 2 -1 8 -11 8 -7 -10zm7 10l-8 -2 1 -8 7 10zm8 2l-8 -2 5 -18 8 2 7 10 -11 8zm11 -8l-1 11 -10 -3 11 -8zm1 -8l-1 8 -18 -2 1 -8 11 -8 7 10zm-7 -10l8 2 -1 8 -7 -10zm-8 -2l8 2 -5 18 -8 -2 -7 -10 11 -8zm-11 8l1 -11 10 3 -11 8z"/>
   </g>
   <g>
    <path class="fil0" d="M575 1306l1 -8 18 2 -1 8 -11 8 -7 -10zm7 10l-8 -2 1 -8 7 10zm8 2l-8 -2 5 -18 8 2 7 10 -11 8zm11 -8l-1 11 -10 -3 11 -8zm1 -8l-1 8 -18 -2 1 -8 11 -8 7 10zm-7 -10l8 2 -1 8 -7 -10zm-8 -2l8 2 -5 18 -8 -2 -7 -10 11 -8zm-11 8l1 -11 10 3 -11 8z"/>
   </g>
   <g>
    <path class="fil0" d="M561 1302l1 -8 18 2 -1 8 -11 8 -7 -10zm7 10l-8 -2 1 -8 7 10zm8 2l-8 -2 5 -18 8 2 7 10 -11 8zm11 -8l-1 11 -10 -3 11 -8zm1 -8l-1 8 -18 -2 1 -8 11 -8 7 10zm-7 -10l8 2 -1 8 -7 -10zm-8 -2l8 2 -5 18 -8 -2 -7 -10 11 -8zm-11 8l1 -11 10 3 -11 8z"/>
   </g>
   <g>
    <path class="fil0" d="M546 1299l1 -8 18 2 -1 8 -11 8 -7 -10zm7 10l-8 -2 1 -8 7 10zm8 2l-8 -2 5 -18 8 2 7 10 -11 8zm11 -8l-1 11 -10 -3 11 -8zm1 -8l-1 8 -18 -2 1 -8 11 -8 7 10zm-7 -10l8 2 -1 8 -7 -10zm-8 -2l8 2 -5 18 -8 -2 -7 -10 11 -8zm-11 8l1 -11 10 3 -11 8z"/>
   </g>
   <g>
    <path class="fil0" d="M532 1295l1 -8 18 2 -1 8 -11 8 -7 -10zm7 10l-8 -2 1 -8 7 10zm8 2l-8 -2 5 -18 8 2 7 10 -11 8zm11 -8l-1 11 -10 -3 11 -8zm1 -8l-1 8 -18 -2 1 -8 11 -8 7 10zm-7 -10l8 2 -1 8 -7 -10zm-8 -2l8 2 -5 18 -8 -2 -7 -10 11 -8zm-11 8l1 -11 10 3 -11 8z"/>
   </g>
   <g>
    <path class="fil0" d="M518 1291l1 -8 18 2 -1 8 -11 8 -7 -10zm7 10l-8 -2 1 -8 7 10zm8 2l-8 -2 5 -18 8 2 7 10 -11 8zm11 -8l-1 11 -10 -3 11 -8zm1 -8l-1 8 -18 -2 1 -8 11 -8 7 10zm-7 -10l8 2 -1 8 -7 -10zm-8 -2l8 2 -5 18 -8 -2 -7 -10 11 -8zm-11 8l1 -11 10 3 -11 8z"/>
   </g>
   <g>
    <path class="fil0" d="M504 1288l1 -8 18 2 -1 8 -11 8 -7 -10zm7 10l-8 -2 1 -8 7 10zm8 2l-8 -2 5 -18 8 2 7 10 -11 8zm11 -8l-1 11 -10 -3 11 -8zm1 -8l-1 8 -18 -2 1 -8 11 -8 7 10zm-7 -10l8 2 -1 8 -7 -10zm-8 -2l8 2 -5 18 -8 -2 -7 -10 11 -8zm-11 8l1 -11 10 3 -11 8z"/>
   </g>
   <g>
    <path class="fil0" d="M490 1284l1 -8 18 2 -1 8 -11 8 -7 -10zm7 10l-8 -2 1 -8 7 10zm8 2l-8 -2 5 -18 8 2 7 10 -11 8zm11 -8l-1 11 -10 -3 11 -8zm1 -8l-1 8 -18 -2 1 -8 11 -8 7 10zm-7 -10l8 2 -1 8 -7 -10zm-8 -2l8 2 -5 18 -8 -2 -7 -10 11 -8zm-11 8l1 -11 10 3 -11 8z"/>
   </g>
   <g>
    <path class="fil0" d="M476 1280l1 -8 18 2 -1 8 -11 8 -7 -10zm7 10l-8 -2 1 -8 7 10zm8 2l-8 -2 5 -18 8 2 7 10 -11 8zm11 -8l-1 11 -10 -3 11 -8zm1 -8l-1 8 -18 -2 1 -8 11 -8 7 10zm-7 -10l8 2 -1 8 -7 -10zm-8 -2l8 2 -5 18 -8 -2 -7 -10 11 -8zm-11 8l1 -11 10 3 -11 8z"/>
   </g>
   <g>
    <path class="fil0" d="M462 1277l1 -8 18 2 -1 8 -11 8 -7 -10zm7 10l-8 -2 1 -8 7 10zm8 2l-8 -2 5 -18 8 2 7 10 -11 8zm11 -8l-1 11 -10 -3 11 -8zm1 -8l-1 8 -18 -2 1 -8 11 -8 7 10zm-7 -10l8 2 -1 8 -7 -10zm-8 -2l8 2 -5 18 -8 -2 -7 -10 11 -8zm-11 8l1 -11 10 3 -11 8z"/>
   </g>
   <g>
    <path class="fil0" d="M1493 1535l-22 -1 1 -14 22 1 6 6 -7 8zm1 -14l6 0 1 6 -6 -6zm-6 20l-1 -12 14 -2 1 12 -7 8 -6 -6zm14 -2l1 8 -8 -1 7 -8zm-30 -8l24 2 -1 14 -24 -2 -6 -7 7 -7zm-1 14l-6 -1 0 -6 6 7zm7 -18l0 11 -14 0 0 -11 7 -7 6 7zm-14 0l0 -7 7 0 -7 7z"/>
   </g>
   <g>
    <polygon class="fil0" points="1892,1641 1691,1588 1695,1574 1895,1628 "/>
   </g>
   <g>
    <path class="fil0" d="M1758 1608l0 4 -14 0 0 -4 9 -7 5 7zm-14 0l0 -9 9 2 -9 7zm9 8l-4 -1 3 -13 4 1 5 7 -9 7zm3 -13l5 1 0 5 -5 -7zm-8 10l0 -4 14 0 0 4 -9 7 -5 -7zm14 0l0 9 -9 -2 9 -7zm-9 -8l4 1 -3 13 -4 -1 -5 -7 9 -7zm-3 13l-5 -1 0 -5 5 7z"/>
   </g>
   <g>
    <path class="fil0" d="M1751 1607l0 4 -14 0 0 -4 9 -7 5 7zm-14 0l0 -9 9 2 -9 7zm9 8l-4 -1 3 -13 4 1 5 7 -9 7zm3 -13l5 1 0 5 -5 -7zm-8 10l0 -4 14 0 0 4 -9 7 -5 -7zm14 0l0 9 -9 -2 9 -7zm-9 -8l4 1 -3 13 -4 -1 -5 -7 9 -7zm-3 13l-5 -1 0 -5 5 7z"/>
   </g>
   <g>
    <path class="fil0" d="M1745 1605l0 4 -14 0 0 -4 9 -7 5 7zm-14 0l0 -9 9 2 -9 7zm9 8l-4 -1 3 -13 4 1 5 7 -9 7zm3 -13l5 1 0 5 -5 -7zm-8 10l0 -4 14 0 0 4 -9 7 -5 -7zm14 0l0 9 -9 -2 9 -7zm-9 -8l4 1 -3 13 -4 -1 -5 -7 9 -7zm-3 13l-5 -1 0 -5 5 7z"/>
   </g>
   <g>
    <path class="fil0" d="M1738 1603l0 4 -14 0 0 -4 9 -7 5 7zm-14 0l0 -9 9 2 -9 7zm9 8l-4 -1 3 -13 4 1 5 7 -9 7zm3 -13l5 1 0 5 -5 -7zm-8 10l0 -4 14 0 0 4 -9 7 -5 -7zm14 0l0 9 -9 -2 9 -7zm-9 -8l4 1 -3 13 -4 -1 -5 -7 9 -7zm-3 13l-5 -1 0 -5 5 7z"/>
   </g>
   <g>
    <path class="fil0" d="M1732 1602l0 4 -14 0 0 -4 9 -7 5 7zm-14 0l0 -9 9 2 -9 7zm9 8l-4 -1 3 -13 4 1 5 7 -9 7zm3 -13l5 1 0 5 -5 -7zm-8 10l0 -4 14 0 0 4 -9 7 -5 -7zm14 0l0 9 -9 -2 9 -7zm-9 -8l4 1 -3 13 -4 -1 -5 -7 9 -7zm-3 13l-5 -1 0 -5 5 7z"/>
   </g>
   <g>
    <path class="fil0" d="M1725 1600l0 4 -14 0 0 -4 9 -7 5 7zm-14 0l0 -9 9 2 -9 7zm9 8l-4 -1 3 -13 4 1 5 7 -9 7zm3 -13l5 1 0 5 -5 -7zm-8 10l0 -4 14 0 0 4 -9 7 -5 -7zm14 0l0 9 -9 -2 9 -7zm-9 -8l4 1 -3 13 -4 -1 -5 -7 9 -7zm-3 13l-5 -1 0 -5 5 7z"/>
   </g>
   <g>
    <path class="fil0" d="M1718 1598l0 4 -14 0 0 -4 9 -7 5 7zm-14 0l0 -9 9 2 -9 7zm9 8l-4 -1 3 -13 4 1 5 7 -9 7zm3 -13l5 1 0 5 -5 -7zm-8 10l0 -4 14 0 0 4 -9 7 -5 -7zm14 0l0 9 -9 -2 9 -7zm-9 -8l4 1 -3 13 -4 -1 -5 -7 9 -7zm-3 13l-5 -1 0 -5 5 7z"/>
   </g>
   <g>
    <path class="fil0" d="M1712 1596l0 4 -14 0 0 -4 9 -7 5 7zm-14 0l0 -9 9 2 -9 7zm9 8l-4 -1 3 -13 4 1 5 7 -9 7zm3 -13l5 1 0 5 -5 -7zm-8 10l0 -4 14 0 0 4 -9 7 -5 -7zm14 0l0 9 -9 -2 9 -7zm-9 -8l4 1 -3 13 -4 -1 -5 -7 9 -7zm-3 13l-5 -1 0 -5 5 7z"/>
   </g>
   <g>
    <path class="fil0" d="M1705 1595l0 4 -14 0 0 -4 9 -7 5 7zm-14 0l0 -9 9 2 -9 7zm9 8l-4 -1 3 -13 4 1 5 7 -9 7zm3 -13l5 1 0 5 -5 -7zm-8 10l0 -4 14 0 0 4 -9 7 -5 -7zm14 0l0 9 -9 -2 9 -7zm-9 -8l4 1 -3 13 -4 -1 -5 -7 9 -7zm-3 13l-5 -1 0 -5 5 7z"/>
   </g>
   <g>
    <path class="fil0" d="M1698 1593l0 4 -14 0 0 -4 9 -7 5 7zm-14 0l0 -9 9 2 -9 7zm9 8l-4 -1 3 -13 4 1 5 7 -9 7zm3 -13l5 1 0 5 -5 -7zm-8 10l0 -4 14 0 0 4 -9 7 -5 -7zm14 0l0 9 -9 -2 9 -7zm-9 -8l4 1 -3 13 -4 -1 -5 -7 9 -7zm-3 13l-5 -1 0 -5 5 7z"/>
   </g>
   <g>
    <polygon class="fil0" points="1121,2176 1734,2123 1735,2136 1122,2189 "/>
   </g>
   <g>
    <polygon class="fil0" points="1177,2127 1755,2089 1756,2103 1178,2140 "/>
   </g>
   <g>
    <polygon class="fil0" points="1082,2100 1771,2061 1771,2075 1083,2113 "/>
   </g>
   <g>
    <path class="fil0" d="M1518 1388l-13 -6 6 -12 13 6 3 3 -9 9zm6 -12l2 1 1 2 -3 -3zm-5 17l14 0 -13 3 0 0 0 0 0 0 0 0 0 0 0 0 0 0 0 0 0 0 0 0 0 0 0 0 0 0 0 0 0 0 0 0 0 0 0 0 0 0 0 0 0 0 0 0 0 0 0 0 0 0 0 0 0 0 0 0 0 0 0 0 0 0 0 0 12 -6 0 0 0 0 0 0 0 0 0 0 0 0 0 0 0 0 0 0 0 0 0 0 0 0 0 0 0 0 0 0 0 0 0 0 0 0 0 0 0 0 0 0 0 0 0 0 0 0 0 0 0 0 0 0 0 0 0 0 0 0 0 0 0 0 -13 3zm14 0l0 30 -13 -27 13 -3zm0 -2l0 2 -14 0 0 -2 0 -1 14 1zm-14 0l0 0 0 0 0 1zm28 -56l7 12 -1 1 -1 1 -1 1 -1 1 -1 1 -1 1 -1 1 -1 1 -1 1 -1 1 -1 1 -1 1 -1 1 -1 1 -1 1 -1 1 -1 1 -1 1 -1 1 -1 1 -1 2 -1 2 -1 2 -1 2 -1 2 -1 2 0 2 0 2 0 3 0 3 0 3 0 3 -14 -2 0 -3 0 -3 0 -3 0 -3 1 -3 1 -3 1 -2 1 -2 1 -2 1 -2 1 -2 1 -2 1 -2 1 -2 1 -2 1 -2 1 -2 1 -1 1 -1 1 -1 1 -1 1 -1 1 -1 1 -1 1 -1 1 -1 1 -1 1 -1 1 -1 1 -1 1 -1 1 -1z"/>
   </g>
   <g>
    <path class="fil0" d="M1447 1358l0 -2 14 -2 0 2 -8 7 -5 -6zm5 6l-5 -1 -1 -5 5 6zm10 2l-10 -2 3 -13 10 2 5 4 -8 9zm3 -13l4 1 1 3 -5 -4zm-4 20l-4 -11 13 -5 4 11 0 3 -13 2zm13 -2l-2 32 -11 -30 13 -2zm22 -63l9 11 -2 1 -2 1 -2 1 -2 1 -2 1 -1 2 -1 2 -1 2 -1 2 -1 2 -1 2 -1 2 -1 2 -1 2 -1 2 -1 2 -1 2 -1 2 -1 2 -1 2 -1 2 -1 2 -1 2 -1 2 -1 2 0 2 0 2 0 2 0 2 0 2 0 2 0 2 -14 -1 0 -2 0 -2 0 -2 0 -2 0 -2 1 -2 1 -2 1 -2 1 -2 1 -2 1 -2 1 -2 1 -2 1 -2 1 -2 1 -2 1 -2 1 -2 1 -2 1 -2 1 -2 1 -2 2 -2 2 -2 2 -2 2 -2 2 -2 2 -2 2 -2 2 -2 2 -2 2 -2z"/>
   </g>
   <g>
    <path class="fil0" d="M1399 1343l-8 -3 4 -13 8 3 4 4 -9 8zm4 -13l3 1 1 3 -4 -4zm-5 21l-4 -12 13 -4 4 12 0 4 -13 0zm13 0l-6 24 -7 -23 13 0zm0 -1l0 1 -13 -3 0 -1 13 3 0 0zm0 0l0 0 0 0 0 0zm23 -61l9 10 -2 2 -2 2 -2 2 -2 2 -2 2 -2 2 -1 2 -1 2 -1 2 -1 2 -1 2 -1 2 -1 2 -1 2 -1 2 -1 2 -1 2 -1 2 -1 2 -1 2 -1 2 -1 2 -1 2 -1 2 -1 2 -1 2 -1 2 0 2 0 2 0 2 0 2 0 2 -13 -3 0 -2 0 -2 0 -2 1 -2 1 -2 1 -2 1 -2 1 -2 1 -2 1 -2 1 -2 1 -2 1 -2 1 -2 1 -2 1 -2 1 -2 1 -2 1 -2 1 -2 1 -2 1 -2 1 -2 2 -2 2 -2 2 -2 2 -2 2 -2 2 -2 2 -2 2 -2 2 -2z"/>
   </g>
   <g>
    <polygon class="fil0" points="1373,1261 1382,1271 1380,1272 1379,1274 1377,1276 1376,1277 1374,1279 1373,1280 1371,1282 1370,1284 1368,1285 1367,1287 1366,1289 1364,1290 1363,1292 1362,1293 1361,1295 1360,1297 1359,1298 1358,1300 1357,1301 1356,1303 1355,1304 1354,1306 1353,1307 1352,1309 1352,1310 1351,1311 1350,1313 1350,1314 1349,1316 1349,1317 1349,1318 1348,1319 1335,1316 1335,1315 1336,1313 1337,1311 1337,1309 1338,1308 1338,1306 1339,1304 1340,1303 1341,1301 1342,1299 1343,1297 1344,1296 1345,1294 1346,1292 1347,1290 1348,1289 1350,1287 1351,1285 1352,1283 1354,1282 1355,1280 1356,1278 1358,1276 1359,1275 1361,1273 1363,1271 1364,1269 1366,1268 1367,1266 1369,1264 1371,1263 "/>
   </g>
   <g>
    <polygon class="fil0" points="1628,1853 1594,1849 1596,1835 1630,1840 "/>
   </g>
   <g>
    <polygon class="fil0" points="1368,1829 1360,1828 1361,1814 1370,1815 "/>
   </g>
   <g>
    <path class="fil0" d="M1595 2066l-2 -139 14 0 2 139 -7 7 -7 -7zm7 7l-7 0 0 -7 7 7zm25 -1l-25 1 -1 -14 25 -1 7 9 -6 4zm6 -4l-2 4 -4 0 6 -4zm1 -3l-1 3 -13 -5 1 -3 13 2 0 3zm0 -3l0 1 -1 1 0 -3zm-5 -133l5 133 -14 1 -5 -133 7 -7 6 7zm-6 -7l6 0 0 6 -6 -7zm-23 -1l23 1 -1 14 -23 -1 -6 -7 7 -7zm-7 7l0 -7 7 0 -7 7z"/>
   </g>
   <g>
    <polygon class="fil0" points="1652,1733 1542,1716 1544,1703 1654,1720 "/>
   </g>
   <g>
    <path class="fil0" d="M1355 1684l-5 13 3 1 0 0 0 0 0 0 0 0 0 0 0 0 0 0 0 0 0 0 0 0 0 0 0 0 0 0 0 0 0 0 0 0 0 0 0 0 0 0 0 0 0 0 0 0 0 0 0 0 0 0 0 0 0 0 0 0 0 0 0 0 0 0 0 0 -6 -12 0 0 0 0 0 0 0 0 0 0 0 0 0 0 0 0 0 0 0 0 0 0 0 0 0 0 0 0 0 0 0 0 0 0 0 0 0 0 0 0 0 0 0 0 0 0 0 0 0 0 0 0 0 0 0 0 0 0 0 0 0 0 0 0 3 1zm-3 -1l1 0 1 1 -3 -1zm37 69l-14 1 0 1 0 -2 0 -2 0 -2 0 -2 0 -2 0 -2 0 -2 -1 -2 -1 -2 -1 -2 -1 -2 -1 -2 -1 -2 -1 -2 -1 -2 -1 -2 -1 -2 -1 -2 -1 -2 -1 -2 -1 -2 -1 -2 -1 -2 -1 -2 -1 -1 -1 -1 -1 -1 -1 -1 -1 -1 -1 -1 -1 -1 -1 -1 5 -13 2 1 2 1 2 1 2 1 2 2 2 2 2 2 1 2 1 2 1 2 1 2 1 2 1 2 1 2 1 2 1 2 1 2 1 2 1 2 1 2 1 2 1 2 1 2 1 2 1 2 1 2 0 2 0 2 0 2 0 2 0 2 0 2 0 1zm0 -1l0 0 0 0 0 -1zm-10 78l-4 -77 14 -1 4 77 -7 7 -7 -7zm7 7l-7 0 0 -7 7 7zm16 -1l-16 1 -1 -14 16 -1 7 7 -7 7zm7 -7l0 7 -7 0 7 -7zm-7 0l0 0 0 0 0 0 -7 0 7 0zm7 0l0 7 -7 0 7 -7zm0 -2l0 2 -14 1 0 -2 14 -1z"/>
   </g>
   <g>
    <path class="fil0" d="M1879 1595l8 0 0 14 -8 0 -6 -5 7 -9zm0 14l-5 0 -2 -4 6 5zm-5 -42l11 32 -13 5 -11 -32 0 -3 13 -1zm-13 1l4 -27 9 26 -13 1zm-4 28l4 -28 13 2 -4 28 -9 6 -5 -8zm13 2l-1 7 -7 -2 9 -6zm-15 -10l10 3 -4 13 -10 -3 -4 -10 8 -4zm-4 13l-8 -2 4 -7 4 10zm-4 -9l14 1 0 0 0 0 0 0 0 0 0 0 0 0 0 0 0 0 0 0 0 0 0 0 0 0 0 0 0 0 0 0 0 0 0 0 0 0 0 0 0 0 0 0 0 0 0 0 0 0 0 0 0 0 0 0 0 0 0 0 0 0 0 0 0 0 0 0 -12 -6 0 0 0 0 0 0 0 0 0 0 0 0 0 0 0 0 0 0 0 0 0 0 0 0 0 0 0 0 0 0 0 0 0 0 0 0 0 0 0 0 0 0 0 0 0 0 0 0 0 0 0 0 0 0 0 0 0 0 0 0 0 0 0 0 0 0zm0 0l0 0 0 0 0 0zm16 -40l-3 41 -14 -1 3 -41 14 1z"/>
   </g>
   <g>
    <path class="fil0" d="M1612 1162l0 14 -14 0 0 -14 9 -6 5 7zm-5 -7l5 1 0 5 -5 -7zm-7 -2l7 2 -3 13 -7 -2 -3 -2 6 -12zm-3 13l-2 0 -1 -1 3 2zm-10 -27l16 15 -9 10 -16 -15 -2 -7 11 -3zm-11 3l3 -11 8 8 -11 3zm0 1l0 -1 13 3 0 1 -13 -1 0 -2zm0 2l0 -1 0 -1 0 2zm4 37l-4 -37 14 -2 4 37 -1 4 -13 -3zm13 3l-10 17 -2 -20 13 3zm-9 -12l8 11 3 -5 0 0 0 0 0 0 0 0 0 0 0 0 0 0 0 0 0 0 0 0 0 0 0 0 0 0 0 0 0 0 0 0 0 0 0 0 0 0 0 0 0 0 0 0 0 0 0 0 0 0 0 0 0 0 0 0 0 0 0 0 0 0 0 0 -12 -7 0 0 0 0 0 0 0 0 0 0 0 0 0 0 0 0 0 0 0 0 0 0 0 0 0 0 0 0 0 0 0 0 0 0 0 0 0 0 0 0 0 0 0 0 0 0 0 0 0 0 0 0 0 0 0 0 0 0 0 0 0 0 0 0 3 -5zm-3 5l0 -3 3 -2 -3 5zm20 0l-10 6 -8 -11 10 -6 5 -1 3 12zm-8 -11l2 -2 3 1 -5 1zm10 14l-8 -1 3 -13 8 1 6 7 -8 7zm8 -7l0 8 -8 -2 8 -7z"/>
   </g>
   <g>
    <path class="fil0" d="M1594 1248l-1 0 3 -13 1 0 2 13 -5 1zm5 -1l-2 1 -3 -1 5 -1zm10 -6l-10 6 -7 -12 10 -6 10 5 -3 7zm3 -7l0 4 -4 2 3 -7zm-7 -79l7 79 -14 1 -7 -79 14 -1z"/>
   </g>
   <g>
    <path class="fil0" d="M1591 1301l-4 -60 14 -1 4 60 -6 7 -8 -6zm8 6l-7 1 0 -7 8 6zm23 -3l-23 3 -2 -14 23 -3 8 6 -6 7zm6 -7l1 7 -7 1 6 -7zm-5 -61l5 61 -14 1 -5 -61 8 -7 6 6zm-6 -6l6 1 0 6 -6 -6zm-11 -1l11 1 -1 14 -11 -1 -2 -13 4 -1zm-4 1l2 -1 2 0 -4 1zm-11 5l11 -5 6 12 -11 5 -10 -6 4 -7zm-4 7l0 -5 4 -2 -4 7z"/>
   </g>
   <g>
    <path class="fil0" d="M1593 1343l-5 -41 14 -2 5 41 -14 2zm7 -1l0 0 0 0 0 0z"/>
   </g>
   <g>
    <path class="fil0" d="M1639 1301l3 35 -14 1 -3 -35 0 -2 14 0zm-14 1l0 -1 0 -1 0 2zm14 -5l-1 6 -14 -2 1 -6 14 2z"/>
   </g>
   <g>
    <path class="fil0" d="M1585 1339l1 0 6 12 -1 0 -9 -3 3 -9zm6 12l-6 3 -3 -6 9 3zm1 -13l2 4 -12 6 -2 -4 -1 -2 13 -4zm-12 6l0 -1 0 -1 1 2zm12 -16l1 13 -14 2 -1 -13 0 0 14 -1zm-14 2l0 0 0 0 0 0zm12 -23l1 21 -14 1 -1 -21 4 -7 10 6zm-14 1l0 -5 4 -2 -4 7zm22 0l-12 6 -6 -12 12 -6 2 -1 4 13zm-6 -12l1 -1 1 0 -2 1zm22 11l-18 2 -1 -14 18 -2 7 6 -6 7zm-1 -14l7 -1 1 7 -7 -6zm-4 29l-2 -21 14 -1 2 21 -7 7 -7 -6zm7 6l-6 0 -1 -6 7 6zm7 0l-7 0 -1 -14 7 0 7 6 -7 7zm7 -7l0 7 -7 0 7 -7zm-1 -22l1 22 -14 1 -1 -22 6 -7 8 6zm-14 1l0 -6 6 -1 -6 7zm20 4l-12 2 -3 -13 12 -2 4 0 -1 13zm-3 -13l2 0 2 1 -4 0zm10 17l-11 -4 5 -13 11 4 3 11 -8 2zm5 -13l9 3 -6 7 -3 -11zm-11 6l3 -4 10 9 -3 4 -12 -4 2 -5zm-2 5l0 -3 2 -2 -2 5zm1 20l-1 -20 14 -1 1 20 -9 7 -5 -6zm5 6l-4 -1 0 -5 5 6zm6 2l-6 -2 4 -13 6 2 5 6 -9 7zm9 -7l0 10 -9 -3 9 -7zm-1 -24l1 24 -14 0 -1 -24 3 -6 10 6zm-14 0l0 -4 3 -2 -3 6zm13 4l-2 1 -7 -12 2 -1 7 0 1 12zm-7 -12l3 -2 3 2 -7 0zm13 18l-12 -6 6 -12 12 6 2 10 -8 2zm6 -12l8 4 -5 7 -2 -10zm-12 6l4 -4 11 9 -4 4 -12 -4 1 -4zm-1 4l0 -2 1 -2 -1 4zm0 1l0 -1 14 0 0 1 -14 0 0 0zm0 0l0 0 0 0 0 0zm1 28l-1 -28 14 -1 1 28 -14 1z"/>
   </g>
   <g>
    <path class="fil0" d="M1650 1361l29 11 -5 13 -29 -11 2 -13 3 0zm-3 0l2 0 1 1 -3 0zm-44 4l44 -4 1 14 -44 4 -1 -14z"/>
   </g>
   <g>
    <path class="fil0" d="M1605 1357l-13 6 -6 -13 13 -6 2 -1 3 13zm-6 -13l1 0 1 0 -2 1zm47 9l-43 4 -1 -14 43 -4 3 0 -1 13zm-1 -14l1 0 1 0 -3 0zm27 22l-29 -9 4 -13 29 9 4 10 -8 3zm4 -13l8 2 -4 7 -4 -10zm-8 4l0 -1 12 6 0 1 -12 -6z"/>
   </g>
   <g>
    <path class="fil0" d="M1595 1351l-3 -10 13 -3 3 10 0 1 -13 2zm13 -3l0 1 0 1 0 -1zm-12 28l-2 -25 14 -1 2 25 -3 6 -11 -5zm14 -1l0 4 -3 2 3 -6zm-12 -4l2 -1 8 11 -2 1 -8 -11z"/>
   </g>
   <g>
    <path class="fil0" d="M1588 1381l-8 21 -13 -5 8 -21 13 2 0 3zm0 -3l0 2 -1 2 0 -3zm-2 -19l2 19 -14 1 -2 -19 5 -7 9 6zm-14 1l-1 -6 5 -2 -5 7zm18 3l-10 3 -4 -13 10 -3 4 13z"/>
   </g>
   <g>
    <path class="fil0" d="M1574 1407l-11 -4 5 -13 11 4 4 3 -9 9zm5 -13l3 1 1 2 -4 -3zm-3 21l-6 -12 12 -6 6 12 -2 9 -10 -3zm10 3l-7 4 -3 -7 10 3zm-8 -10l12 6 -1 2 0 0 0 0 0 0 0 0 0 0 0 0 0 0 0 0 0 0 0 0 0 0 0 0 0 0 0 0 0 0 0 0 0 0 0 0 0 0 0 0 0 0 0 0 0 0 0 0 0 0 0 0 0 0 0 0 0 0 0 0 0 0 0 0 -8 -11 0 0 0 0 0 0 0 0 0 0 0 0 0 0 0 0 0 0 0 0 0 0 0 0 0 0 0 0 0 0 0 0 0 0 0 0 0 0 0 0 0 0 0 0 0 0 0 0 0 0 0 0 0 0 0 0 0 0 0 0 0 0 0 0 -1 2zm12 6l-1 1 -1 1 1 -2zm4 -7l-4 7 -12 -6 4 -7 10 -3 3 9zm-12 -6l3 -7 6 4 -10 3zm10 13l-7 -4 7 -12 7 4 3 6 -10 6zm10 -6l0 12 -10 -6 10 -6zm0 -1l0 1 -14 0 0 -1 14 -1 0 1zm0 -1l0 0 0 0 0 -1zm-4 -44l4 44 -14 1 -4 -44 12 -5 1 4zm-14 1l-2 -22 14 17 -12 5zm14 20l-13 -16 11 -9 13 16 -10 9 -1 -1zm1 1l-1 0 0 -1 1 1zm3 3l-3 -3 9 -10 3 3 -9 10z"/>
   </g>
   <g>
    <path class="fil0" d="M1344 1300l-9 13 -11 -8 9 -13 13 3 -1 4zm1 -4l0 2 -1 2 1 -4zm-1 -27l1 27 -14 1 -1 -27 4 -7 9 6zm-14 1l0 -5 4 -2 -4 7zm21 1l-11 5 -5 -13 11 -5 8 3 -3 10zm-5 -13l5 -2 3 5 -8 -3zm6 23l-9 -13 11 -8 9 13 0 8 -11 -1zm11 1l-6 7 -5 -8 11 1zm6 -8l-6 8 -10 -9 6 -8 3 -2 7 11zm-10 -9l1 -1 2 -1 -3 2zm21 7l-14 4 -4 -13 14 -4 9 6 -5 7zm-4 -13l8 -3 0 9 -9 -6zm-1 71l-4 -64 14 -1 4 64 -9 7 -5 -6zm5 6l-5 -1 0 -5 5 6zm12 3l-12 -3 4 -13 12 3 4 10 -8 3zm8 -3l-3 4 -5 -1 8 -3zm10 -15l-10 15 -11 -7 10 -15 13 3 -1 4zm1 -4l0 2 -1 2 1 -4zm-2 -27l2 27 -14 1 -2 -27 4 -7 9 6zm-14 1l0 -5 5 -2 -4 7zm19 2l-9 4 -5 -13 9 -4 8 2 -3 11zm-5 -13l4 -2 3 4 -8 -2zm9 24l-12 -13 10 -9 12 13 -2 11 -8 -2zm8 2l-5 2 -3 -4 8 2zm18 -8l-18 8 -6 -12 18 -8 10 6 -4 7zm-6 -12l9 -4 1 10 -10 -6zm1 66l-5 -59 14 -1 5 59 -9 7 -4 -6zm4 6l-4 -2 0 -4 4 6zm9 4l-9 -4 5 -13 9 4 3 10 -8 3zm8 -3l-3 5 -5 -2 8 -3zm11 -16l-11 16 -11 -7 11 -16 13 3 -1 4zm1 -4l0 2 -1 2 1 -4zm-2 -22l2 22 -14 1 -2 -22 5 -7 9 6zm-14 1l0 -5 5 -2 -5 7zm20 2l-11 4 -4 -13 11 -4 8 3 -3 10zm-4 -13l5 -2 3 4 -8 -3zm5 22l-8 -12 11 -8 8 12 -2 10 -9 -2zm9 2l-5 3 -4 -5 9 2zm20 -11l-20 11 -7 -12 20 -11 10 5 -3 7zm-7 -12l9 -5 1 10 -10 -5zm4 69l-7 -62 14 -2 7 62 -6 8 -8 -6zm8 6l-7 1 -1 -7 8 6zm3 0l-3 0 -2 -14 3 0 7 9 -6 4zm6 -4l-2 4 -4 0 6 -4zm7 -17l-7 17 -13 -5 7 -17 13 2 0 3zm0 -3l0 2 -1 2 0 -3zm-2 -20l2 20 -14 1 -2 -20 4 -7 10 6zm-14 1l-1 -5 5 -2 -4 7zm22 0l-12 5 -5 -13 12 -5 8 2 -2 11zm-5 -13l5 -2 3 4 -8 -2zm7 22l-10 -11 10 -9 10 11 -4 11 -6 -2zm6 2l-4 1 -2 -3 6 2zm14 -2l-14 2 -2 -13 14 -2 8 6 -6 8zm-2 -13l7 -1 1 7 -8 -6zm-2 41l-4 -33 14 -2 4 33 -13 3 0 -2zm0 2l0 -1 0 -1 0 2zm7 18l-7 -18 13 -5 7 18 0 1 -13 4zm13 -5l0 0 0 0 0 -1zm-12 6l-1 -2 13 -4 1 2 -10 8 -3 -4zm3 4l-2 -1 -1 -2 3 4zm3 2l-3 -2 8 -11 3 2 3 6 -11 6zm11 -6l0 13 -11 -7 11 -6zm0 -1l0 1 -14 0 0 -1 0 -2 13 2zm-14 0l0 -1 0 -1 0 2zm18 -11l-5 13 -13 -5 5 -13 13 2 0 3zm0 -3l0 1 0 1 0 -3zm-2 -49l2 49 -14 1 -2 -49 5 -7 9 6zm-14 1l0 -5 5 -2 -5 7zm25 1l-16 6 -4 -13 16 -6 4 13z"/>
   </g>
   <g>
    <path class="fil0" d="M1315 1252l-18 11 -7 -12 18 -11 10 6 -3 6zm-7 -12l10 -6 0 12 -10 -6zm-2 58l-1 -52 14 0 1 52 -14 0z"/>
   </g>
   <g>
    <path class="fil0" d="M1520 1592l13 -2 0 0 0 1 0 1 0 1 0 1 0 1 0 0 0 0 0 0 0 0 0 0 0 0 0 0 0 0 0 0 0 0 0 0 0 0 0 0 0 0 0 0 0 0 0 0 0 0 0 0 0 0 0 0 0 0 0 0 0 0 0 0 0 0 0 0 2 14 -1 0 -1 0 -1 0 -1 0 -1 0 -1 0 -1 0 -1 0 -1 0 -1 0 -1 -1 -1 -1 -1 -1 -1 -1 -1 -1 -1 -1 -1 -1 -1 -1 0 -1 0 -1 0 -1 0 -1 0 -1 0 -1 0 -1 0 -1 0 -1 0 -1 0 -1 0 -1 0 -1 0 -1 0 0zm12 -24l2 14 0 0 0 0 0 0 0 0 0 0 0 0 0 0 0 0 0 0 0 0 0 0 0 0 0 0 0 0 0 0 0 0 0 0 0 0 0 0 0 0 0 0 0 0 0 0 0 0 0 0 0 0 0 0 0 0 0 1 0 1 0 1 0 1 0 1 -13 2 0 -1 0 -1 0 -1 0 -1 0 -1 0 -1 0 -1 0 -1 0 -1 0 -1 0 -1 0 -1 0 -1 0 -1 0 -1 0 -1 0 -1 0 -1 0 -1 0 -1 0 -1 1 -1 1 -1 1 -1 1 -1 1 -1 1 -1 1 0 1 0 1 0 1 0 1 0 0 0zm19 19l-13 2 0 0 0 -1 0 -1 0 -1 0 -1 0 -1 0 0 0 0 0 0 0 0 0 0 0 0 0 0 0 0 0 0 0 0 0 0 0 0 0 0 0 0 0 0 0 0 0 0 0 0 0 0 0 0 0 0 0 0 0 0 0 0 0 0 0 0 0 0 -2 -14 1 0 1 0 1 0 1 0 1 0 1 0 1 0 1 0 1 0 1 0 1 1 1 1 1 1 1 1 1 1 1 1 1 1 1 1 0 1 0 1 0 1 0 1 0 1 0 1 0 1 0 1 0 1 0 1 0 1 0 1 0 1 0 1 0 0zm-12 24l-2 -14 0 0 0 0 0 0 0 0 0 0 0 0 0 0 0 0 0 0 0 0 0 0 0 0 0 0 0 0 0 0 0 0 0 0 0 0 0 0 0 0 0 0 0 0 0 0 0 0 0 0 0 0 0 0 0 0 0 -1 0 -1 0 -1 0 -1 0 -1 13 -2 0 1 0 1 0 1 0 1 0 1 0 1 0 1 0 1 0 1 0 1 0 1 0 1 0 1 0 1 0 1 0 1 0 1 0 1 0 1 0 1 0 1 -1 1 -1 1 -1 1 -1 1 -1 1 -1 1 -1 0 -1 0 -1 0 -1 0 -1 0 0 0z"/>
   </g>
   <g>
    <path class="fil0" d="M1564 1602l13 -2 0 0 0 1 0 1 0 1 0 1 0 1 0 0 0 0 0 0 0 0 0 0 0 0 0 0 0 0 0 0 0 0 0 0 0 0 0 0 0 0 0 0 0 0 0 0 0 0 0 0 0 0 0 0 0 0 0 0 0 0 0 0 0 0 0 0 2 14 -1 0 -1 0 -1 0 -1 0 -1 0 -1 0 -1 0 -1 0 -1 0 -1 0 -1 -1 -1 -1 -1 -1 -1 -1 -1 -1 -1 -1 -1 -1 -1 -1 0 -1 0 -1 0 -1 0 -1 0 -1 0 -1 0 -1 0 -1 0 -1 0 -1 0 -1 0 -1 0 -1 0 -1 0 0zm12 -24l2 14 0 0 0 0 0 0 0 0 0 0 0 0 0 0 0 0 0 0 0 0 0 0 0 0 0 0 0 0 0 0 0 0 0 0 0 0 0 0 0 0 0 0 0 0 0 0 0 0 0 0 0 0 0 0 0 0 0 1 0 1 0 1 0 1 0 1 -13 2 0 -1 0 -1 0 -1 0 -1 0 -1 0 -1 0 -1 0 -1 0 -1 0 -1 0 -1 0 -1 0 -1 0 -1 0 -1 0 -1 0 -1 0 -1 0 -1 0 -1 0 -1 1 -1 1 -1 1 -1 1 -1 1 -1 1 -1 1 0 1 0 1 0 1 0 1 0 0 0zm19 19l-13 2 0 0 0 -1 0 -1 0 -1 0 -1 0 -1 0 0 0 0 0 0 0 0 0 0 0 0 0 0 0 0 0 0 0 0 0 0 0 0 0 0 0 0 0 0 0 0 0 0 0 0 0 0 0 0 0 0 0 0 0 0 0 0 0 0 0 0 0 0 -2 -14 1 0 1 0 1 0 1 0 1 0 1 0 1 0 1 0 1 0 1 0 1 1 1 1 1 1 1 1 1 1 1 1 1 1 1 1 0 1 0 1 0 1 0 1 0 1 0 1 0 1 0 1 0 1 0 1 0 1 0 1 0 1 0 1 0 0zm-12 24l-2 -14 0 0 0 0 0 0 0 0 0 0 0 0 0 0 0 0 0 0 0 0 0 0 0 0 0 0 0 0 0 0 0 0 0 0 0 0 0 0 0 0 0 0 0 0 0 0 0 0 0 0 0 0 0 0 0 0 0 -1 0 -1 0 -1 0 -1 0 -1 13 -2 0 1 0 1 0 1 0 1 0 1 0 1 0 1 0 1 0 1 0 1 0 1 0 1 0 1 0 1 0 1 0 1 0 1 0 1 0 1 0 1 0 1 -1 1 -1 1 -1 1 -1 1 -1 1 -1 1 -1 0 -1 0 -1 0 -1 0 -1 0 0 0z"/>
   </g>
   <g>
    <path class="fil0" d="M1396 1560l13 -3 0 0 0 1 0 1 0 1 0 1 0 1 0 1 0 1 0 1 0 1 0 0 0 0 0 0 0 0 0 0 0 0 0 0 0 0 0 0 0 0 0 0 0 0 0 0 0 0 0 0 0 0 0 0 0 0 0 0 0 0 0 0 0 0 0 0 2 14 -1 0 -1 0 -1 0 -1 0 -1 0 -1 0 -1 0 -1 0 -1 0 -1 -1 -1 -1 -1 -1 -1 -1 -1 -1 -1 -1 -1 -1 -1 -1 -1 -1 -1 -1 -1 -1 -1 -1 0 -1 0 -1 0 -1 0 -1 0 -1 0 -1 0 -1 0 -1 0 -1 0 -1 0 -1 0 0zm13 -26l2 14 0 0 0 0 0 0 0 0 0 0 0 0 0 0 0 0 0 0 0 0 0 0 0 0 0 0 0 0 0 0 0 0 0 0 0 0 0 0 0 0 0 0 0 0 0 0 0 0 0 1 0 1 0 1 0 1 0 1 0 1 0 1 0 1 0 1 -13 3 0 -1 0 -1 0 -1 0 -1 0 -1 0 -1 0 -1 0 -1 0 -1 0 -1 0 -1 0 -1 0 -1 0 -1 0 -1 0 -1 0 -1 0 -1 0 -1 1 -1 1 -1 1 -1 1 -1 1 -1 1 -1 1 -1 1 -1 1 0 1 0 1 0 1 0 1 0 0 0zm21 21l-13 2 0 0 0 -1 0 -1 0 -1 0 -1 0 -1 0 -1 0 -1 0 -1 0 -1 0 0 0 0 0 0 0 0 0 0 0 0 0 0 0 0 0 0 0 0 0 0 0 0 0 0 0 0 0 0 0 0 0 0 0 0 0 0 0 0 0 0 0 0 0 0 -2 -14 1 0 1 0 1 0 1 0 1 0 1 0 1 0 1 0 1 0 1 1 1 1 1 1 1 1 1 1 1 1 1 1 1 1 1 1 1 1 1 1 1 1 0 1 0 1 0 1 0 1 0 1 0 1 0 1 0 1 0 1 0 1 0 1 0 0zm-13 26l-2 -14 0 0 0 0 0 0 0 0 0 0 0 0 0 0 0 0 0 0 0 0 0 0 0 0 0 0 0 0 0 0 0 0 0 0 0 0 0 0 0 0 0 0 0 0 0 0 0 0 0 -1 0 -1 0 -1 0 -1 0 -1 0 -1 0 -1 0 -1 0 -1 13 -2 0 1 0 1 0 1 0 1 0 1 0 1 0 1 0 1 0 1 0 1 0 1 0 1 0 1 0 1 0 1 0 1 0 1 0 1 0 1 -1 1 -1 1 -1 1 -1 1 -1 1 -1 1 -1 1 -1 1 -1 0 -1 0 -1 0 -1 0 -1 0 0 0z"/>
   </g>
   <g>
    <path class="fil0" d="M1559 1534l13 -2 0 0 0 1 0 1 0 1 0 1 0 1 0 0 0 0 0 0 0 0 0 0 0 0 0 0 0 0 0 0 0 0 0 0 0 0 0 0 0 0 0 0 0 0 0 0 0 0 0 0 0 0 0 0 0 0 0 0 0 0 0 0 0 0 0 0 2 14 -1 0 -1 0 -1 0 -1 0 -1 0 -1 0 -1 0 -1 0 -1 0 -1 0 -1 -1 -1 -1 -1 -1 -1 -1 -1 -1 -1 -1 -1 -1 -1 -1 0 -1 0 -1 0 -1 0 -1 0 -1 0 -1 0 -1 0 -1 0 -1 0 -1 0 -1 0 -1 0 -1 0 -1 0 0zm12 -24l2 14 0 0 0 0 0 0 0 0 0 0 0 0 0 0 0 0 0 0 0 0 0 0 0 0 0 0 0 0 0 0 0 0 0 0 0 0 0 0 0 0 0 0 0 0 0 0 0 0 0 0 0 0 0 0 0 0 0 1 0 1 0 1 0 1 0 1 -13 2 0 -1 0 -1 0 -1 0 -1 0 -1 0 -1 0 -1 0 -1 0 -1 0 -1 0 -1 0 -1 0 -1 0 -1 0 -1 0 -1 0 -1 0 -1 0 -1 0 -1 0 -1 1 -1 1 -1 1 -1 1 -1 1 -1 1 -1 1 0 1 0 1 0 1 0 1 0 0 0zm19 19l-13 2 0 0 0 -1 0 -1 0 -1 0 -1 0 -1 0 0 0 0 0 0 0 0 0 0 0 0 0 0 0 0 0 0 0 0 0 0 0 0 0 0 0 0 0 0 0 0 0 0 0 0 0 0 0 0 0 0 0 0 0 0 0 0 0 0 0 0 0 0 -2 -14 1 0 1 0 1 0 1 0 1 0 1 0 1 0 1 0 1 0 1 0 1 1 1 1 1 1 1 1 1 1 1 1 1 1 1 1 0 1 0 1 0 1 0 1 0 1 0 1 0 1 0 1 0 1 0 1 0 1 0 1 0 1 0 1 0 0zm-12 24l-2 -14 0 0 0 0 0 0 0 0 0 0 0 0 0 0 0 0 0 0 0 0 0 0 0 0 0 0 0 0 0 0 0 0 0 0 0 0 0 0 0 0 0 0 0 0 0 0 0 0 0 0 0 0 0 0 0 0 0 -1 0 -1 0 -1 0 -1 0 -1 13 -2 0 1 0 1 0 1 0 1 0 1 0 1 0 1 0 1 0 1 0 1 0 1 0 1 0 1 0 1 0 1 0 1 0 1 0 1 0 1 0 1 0 1 -1 1 -1 1 -1 1 -1 1 -1 1 -1 1 -1 0 -1 0 -1 0 -1 0 -1 0 0 0z"/>
   </g>
   <g>
    <path class="fil0" d="M1517 1524l13 -2 0 0 0 1 0 1 0 1 0 1 0 1 0 0 0 0 0 0 0 0 0 0 0 0 0 0 0 0 0 0 0 0 0 0 0 0 0 0 0 0 0 0 0 0 0 0 0 0 0 0 0 0 0 0 0 0 0 0 0 0 0 0 0 0 0 0 2 14 -1 0 -1 0 -1 0 -1 0 -1 0 -1 0 -1 0 -1 0 -1 0 -1 0 -1 -1 -1 -1 -1 -1 -1 -1 -1 -1 -1 -1 -1 -1 -1 -1 0 -1 0 -1 0 -1 0 -1 0 -1 0 -1 0 -1 0 -1 0 -1 0 -1 0 -1 0 -1 0 -1 0 -1 0 0zm12 -24l2 14 0 0 0 0 0 0 0 0 0 0 0 0 0 0 0 0 0 0 0 0 0 0 0 0 0 0 0 0 0 0 0 0 0 0 0 0 0 0 0 0 0 0 0 0 0 0 0 0 0 0 0 0 0 0 0 0 0 1 0 1 0 1 0 1 0 1 -13 2 0 -1 0 -1 0 -1 0 -1 0 -1 0 -1 0 -1 0 -1 0 -1 0 -1 0 -1 0 -1 0 -1 0 -1 0 -1 0 -1 0 -1 0 -1 0 -1 0 -1 0 -1 1 -1 1 -1 1 -1 1 -1 1 -1 1 -1 1 0 1 0 1 0 1 0 1 0 0 0zm19 19l-13 2 0 0 0 -1 0 -1 0 -1 0 -1 0 -1 0 0 0 0 0 0 0 0 0 0 0 0 0 0 0 0 0 0 0 0 0 0 0 0 0 0 0 0 0 0 0 0 0 0 0 0 0 0 0 0 0 0 0 0 0 0 0 0 0 0 0 0 0 0 -2 -14 1 0 1 0 1 0 1 0 1 0 1 0 1 0 1 0 1 0 1 0 1 1 1 1 1 1 1 1 1 1 1 1 1 1 1 1 0 1 0 1 0 1 0 1 0 1 0 1 0 1 0 1 0 1 0 1 0 1 0 1 0 1 0 1 0 0zm-12 24l-2 -14 0 0 0 0 0 0 0 0 0 0 0 0 0 0 0 0 0 0 0 0 0 0 0 0 0 0 0 0 0 0 0 0 0 0 0 0 0 0 0 0 0 0 0 0 0 0 0 0 0 0 0 0 0 0 0 0 0 -1 0 -1 0 -1 0 -1 0 -1 13 -2 0 1 0 1 0 1 0 1 0 1 0 1 0 1 0 1 0 1 0 1 0 1 0 1 0 1 0 1 0 1 0 1 0 1 0 1 0 1 0 1 0 1 -1 1 -1 1 -1 1 -1 1 -1 1 -1 1 -1 0 -1 0 -1 0 -1 0 -1 0 0 0z"/>
   </g>
   <g>
    <path class="fil0" d="M1582 1558l-13 2 0 0 0 -1 0 -1 0 -1 0 -1 0 -1 0 -1 0 -1 0 -1 -1 -1 -1 -1 -1 -1 -1 -1 -1 -1 -1 -1 -1 -1 -1 -1 -1 -1 -1 -1 -1 -1 -1 -1 -1 0 -1 0 -1 0 -1 0 -1 0 -1 0 0 0 0 0 0 0 0 0 0 0 0 0 -2 -14 1 0 1 0 1 0 1 0 1 0 1 0 1 1 1 1 1 1 1 1 1 1 1 1 1 1 1 1 1 1 1 1 1 1 1 1 1 1 1 1 1 1 1 1 1 1 1 1 1 1 1 2 1 2 1 2 0 2 0 2 0 2 0 2 0 0zm-19 39l-2 -14 0 0 0 0 0 0 0 0 0 0 0 0 0 0 0 0 0 0 0 0 0 0 0 0 0 -1 0 -1 0 -1 0 -1 0 -1 0 -1 0 -1 0 -1 0 -1 0 -1 0 -1 0 -1 0 -1 0 -1 0 -1 0 -1 0 -1 0 -1 0 -1 0 -1 0 -1 13 -2 0 2 0 2 0 2 0 2 0 2 0 2 0 2 0 2 0 2 0 2 0 2 0 1 0 1 0 1 0 1 -1 1 -1 1 -1 1 -1 1 -1 1 -1 1 -1 1 -1 1 -1 1 -1 1 -1 1 -1 1 -1 1 -1 1 -1 0 -1 0 -1 0 0 0zm-31 -33l13 -2 0 0 0 1 0 1 0 1 0 1 0 1 0 1 0 1 0 1 1 1 1 1 1 1 1 1 1 1 1 1 1 1 1 1 1 1 1 1 1 1 1 1 1 0 1 0 1 0 1 0 1 0 1 0 0 0 0 0 0 0 0 0 0 0 0 0 2 14 -1 0 -1 0 -1 0 -1 0 -1 0 -1 0 -1 -1 -1 -1 -1 -1 -1 -1 -1 -1 -1 -1 -1 -1 -1 -1 -1 -1 -1 -1 -1 -1 -1 -1 -1 -1 -1 -1 -1 -1 -1 -1 -1 -1 -1 -1 -1 -1 -1 -2 -1 -2 -1 -2 0 -2 0 -2 0 -2 0 -2 0 0zm19 -39l2 14 0 0 0 0 0 0 0 0 0 0 0 0 0 0 0 0 0 0 0 0 0 0 0 0 0 1 0 1 0 1 0 1 0 1 0 1 0 1 0 1 0 1 0 1 0 1 0 1 0 1 0 1 0 1 0 1 0 1 0 1 0 1 0 1 0 1 -13 2 0 -2 0 -2 0 -2 0 -2 0 -2 0 -2 0 -2 0 -2 0 -2 0 -2 0 -2 0 -1 0 -1 0 -1 0 -1 1 -1 1 -1 1 -1 1 -1 1 -1 1 -1 1 -1 1 -1 1 -1 1 -1 1 -1 1 -1 1 -1 1 -1 1 0 1 0 1 0 0 0z"/>
   </g>
   <g>
    <path class="fil0" d="M1611 1555l-13 2 0 0 -1 -4 -1 -4 -1 -4 -1 -4 -1 -3 -1 -3 -1 -3 -1 -3 -1 -3 -1 -3 -2 -3 -2 -3 -2 -3 -2 -3 -2 -2 -2 -2 -2 -2 -2 -2 -2 -2 -2 -2 -2 -2 -2 -1 -2 -1 -2 -1 -2 -1 -2 -1 -2 -1 -2 0 -2 0 -2 0 -2 0 -2 0 -2 -14 3 0 3 0 3 0 3 1 3 1 3 1 3 1 3 1 3 2 3 2 2 2 2 2 2 2 2 2 2 2 2 3 2 3 2 3 2 3 2 3 2 3 2 3 2 3 2 3 1 4 1 4 1 4 1 4 1 4 1 4 1 4 1 4 0 0zm-37 90l-2 -14 0 0 2 0 2 0 2 -1 2 -1 2 -1 1 -1 1 -1 1 -1 1 -1 1 -2 1 -2 1 -2 1 -2 1 -2 1 -2 1 -2 1 -3 1 -3 1 -3 1 -3 1 -3 0 -3 0 -3 0 -3 0 -3 0 -3 0 -4 0 -4 0 -4 0 -4 0 -4 -1 -4 13 -2 1 4 1 4 0 4 0 4 0 4 0 4 0 4 0 4 0 4 0 4 -1 4 -1 3 -1 3 -1 3 -1 3 -1 3 -1 3 -1 3 -1 3 -2 3 -2 3 -2 2 -2 2 -2 2 -2 2 -2 2 -2 2 -2 1 -3 1 -3 1 -3 1 -3 0 0 0zm-65 -77l13 -2 0 0 1 4 1 4 1 4 1 4 1 3 1 3 1 3 1 3 1 3 1 3 2 3 2 3 2 3 2 3 2 2 2 2 2 2 2 2 2 2 2 2 2 2 2 1 2 1 2 1 2 1 2 1 2 1 2 0 2 0 2 0 2 0 2 0 2 14 -3 0 -3 0 -3 0 -3 -1 -3 -1 -3 -1 -3 -1 -3 -1 -3 -2 -3 -2 -2 -2 -2 -2 -2 -2 -2 -2 -2 -2 -2 -3 -2 -3 -2 -3 -2 -3 -2 -3 -2 -3 -2 -3 -2 -3 -2 -3 -1 -4 -1 -4 -1 -4 -1 -4 -1 -4 -1 -4 -1 -4 -1 -4 0 0zm37 -90l2 14 0 0 -2 0 -2 0 -2 1 -2 1 -2 1 -1 1 -1 1 -1 1 -1 1 -1 2 -1 2 -1 2 -1 2 -1 2 -1 2 -1 2 -1 3 -1 3 -1 3 -1 3 -1 3 0 3 0 3 0 3 0 3 0 3 0 4 0 4 0 4 0 4 0 4 1 4 -13 2 -1 -4 -1 -4 0 -4 0 -4 0 -4 0 -4 0 -4 0 -4 0 -4 0 -4 1 -4 1 -3 1 -3 1 -3 1 -3 1 -3 1 -3 1 -3 1 -3 2 -3 2 -3 2 -2 2 -2 2 -2 2 -2 2 -2 2 -2 2 -1 3 -1 3 -1 3 -1 3 0 0 0z"/>
   </g>
   <g>
    <path class="fil0" d="M1547 1852l-14 0 0 1 -1 -3 -1 -3 -1 -4 -1 -4 -1 -4 -1 -4 -1 -4 -1 -4 -2 -4 -2 -4 -2 -4 -2 -4 -2 -4 -2 -5 -2 -5 -2 -5 -2 -5 -2 -5 -3 -5 -3 -5 -3 -4 -3 -4 -3 -4 -3 -4 -3 -4 -3 -4 -3 -4 -3 -4 -3 -4 -3 -4 -3 -4 -4 -3 9 -10 4 4 4 4 4 4 4 4 3 4 3 4 3 4 3 4 3 5 3 5 3 5 3 5 3 5 3 5 3 5 2 5 2 5 2 5 2 5 2 5 2 5 2 5 2 5 2 4 2 4 1 4 1 4 1 4 1 4 1 4 1 4 1 4 0 1zm0 -1l0 1 0 1 0 -1zm-8 218l-6 -216 14 0 6 216 -14 0z"/>
   </g>
   <g>
    <path class="fil0" d="M1431 1832l-14 0 0 -1 1 -7 1 -7 1 -7 1 -6 1 -6 1 -6 1 -6 2 -6 2 -5 2 -5 2 -5 2 -5 2 -5 2 -5 2 -5 2 -4 2 -4 2 -4 2 -4 2 -4 2 -4 2 -4 2 -3 3 -3 3 -3 3 -3 3 -3 3 -3 3 -3 3 -3 3 -3 3 -3 9 10 -3 2 -3 2 -2 3 -2 3 -2 3 -2 3 -2 3 -2 3 -2 3 -2 3 -2 3 -2 3 -2 4 -2 4 -2 4 -2 4 -2 4 -2 4 -2 4 -2 5 -2 5 -2 5 -2 5 -2 5 -1 5 -1 6 -1 6 -1 6 -1 6 -1 6 -1 6 -1 7 0 -1zm-14 0l0 -1 0 -1 0 1zm7 241l-7 -241 14 0 7 241 -6 7 -8 -7zm8 7l-8 1 0 -8 8 7zm3 0l-3 0 -2 -14 3 0 2 14z"/>
   </g>
   <g>
    <path class="fil0" d="M1493 1690l-9 10 -2 -7 1 -3 1 -3 1 -3 1 -3 1 -3 1 -3 1 -2 1 -2 1 -2 1 -2 1 -2 1 -2 1 -2 0 -1 0 -1 0 -1 0 -1 0 -1 0 -1 0 0 0 -1 13 4 0 0 0 0 0 1 0 1 0 1 0 1 0 2 -1 2 -1 2 -1 2 -13 -4 1 -2 1 -2 1 -2 0 -2 0 -1 0 -1 0 -1 0 -1 0 0 0 0 13 4 0 0 0 0 0 1 0 1 0 1 0 1 0 1 0 1 -1 2 -1 2 -1 2 -1 2 -1 2 -1 2 -1 2 -1 3 -1 3 -1 3 -1 3 -1 3 -1 3 -2 -7zm-9 10l-3 -3 1 -4 2 7zm91 140l-14 1 0 1 -2 -6 -2 -6 -2 -6 -2 -6 -2 -5 -2 -5 -2 -5 -2 -5 -2 -5 -2 -5 -2 -5 -2 -5 -2 -5 -2 -4 -2 -4 -2 -4 -2 -4 -2 -4 -2 -4 -3 -4 -3 -4 -3 -4 -3 -4 -3 -4 -3 -4 -3 -4 -3 -4 -3 -4 -3 -4 -3 -4 -4 -4 -4 -4 9 -10 4 4 4 4 4 4 4 4 3 4 3 4 3 4 3 4 3 4 3 4 3 4 3 4 3 4 3 4 3 4 2 4 2 5 2 5 2 5 2 5 2 5 2 5 2 5 2 5 2 5 2 5 2 6 2 6 2 6 2 6 2 6 2 6 0 1zm0 -1l0 1 0 1 0 -1zm-2 229l-11 -227 14 -1 11 227 -14 1z"/>
   </g>
   <g>
    <polygon class="fil0" points="491,1514 1105,1624 1102,1642 488,1532 "/>
   </g>
   <g>
    <path class="fil0" d="M1162 1273l-17 22 -11 -8 17 -22 8 -2 3 10zm-3 -10l8 3 -5 7 -3 -10zm-6 -2l6 2 -5 13 -6 -2 -4 -9 9 -4zm-5 13l-6 -2 2 -6 4 9zm18 -28l-9 25 -13 -5 9 -25 3 -4 9 9zm-13 -5l1 -2 2 -1 -3 4zm56 -15l-47 23 -6 -12 47 -23 3 -1 3 13zm-6 -12l2 -1 2 0 -3 1zm51 14l-48 -1 0 -14 48 1 2 0 -3 13zm0 -14l1 0 1 0 -2 0zm36 28l-39 -15 5 -13 39 15 4 6 -9 6zm5 -13l4 2 0 5 -4 -6zm-9 32l0 -26 14 0 0 26 -3 5 -11 -5zm14 0l0 3 -3 2 3 -5zm-16 -2l5 -4 8 11 -5 4 -11 -5 3 -6zm-3 6l0 -4 3 -2 -3 6zm2 24l-2 -24 14 -1 2 24 -14 1z"/>
   </g>
   <g>
    <path class="fil0" d="M478 1235l-17 -5 4 -13 17 5 5 7 -9 7zm9 -7l0 9 -9 -2 9 -7zm0 -30l0 30 -14 0 0 -30 9 -6 5 6zm-14 0l0 -9 9 3 -9 6zm33 16l-28 -9 4 -13 28 9 5 6 -9 6zm4 -13l5 2 0 5 -5 -6zm-9 37l0 -30 14 0 0 30 -8 7 -5 -7zm5 7l-5 -1 0 -5 5 7zm26 6l-26 -6 3 -13 26 6 5 6 -8 7zm8 -7l0 9 -9 -2 8 -7zm-1 -33l1 33 -14 0 -1 -33 9 -7 5 6zm-14 0l0 -9 9 3 -9 7zm36 16l-32 -9 4 -13 32 9 5 7 -9 7zm4 -13l5 1 0 5 -5 -7zm-9 10l0 -4 14 0 0 4 0 0 -14 0zm0 30l0 -30 14 0 0 30 -8 7 -5 -7zm5 7l-5 -1 0 -5 5 7zm21 5l-21 -5 3 -13 21 5 5 7 -8 7zm8 -7l0 9 -8 -2 8 -7zm0 -30l0 30 -14 0 0 -30 9 -7 5 7zm-14 0l0 -9 9 3 -9 7zm28 14l-23 -7 4 -13 23 7 5 7 -9 7zm4 -13l5 1 0 5 -5 -7zm-9 38l0 -32 14 0 0 32 -8 7 -5 -7zm5 7l-5 -1 0 -5 5 7zm29 7l-29 -7 3 -13 29 7 5 6 -8 7zm8 -7l0 9 -9 -2 8 -7zm-1 -33l1 33 -14 0 -1 -33 9 -7 5 6zm-14 0l0 -9 9 3 -9 7zm30 13l-25 -7 4 -13 25 7 5 7 -9 7zm4 -13l5 1 0 5 -5 -7zm-9 37l0 -30 14 0 0 30 -9 7 -5 -7zm5 7l-5 -1 0 -5 5 7zm18 5l-18 -5 4 -13 18 5 5 7 -9 7zm9 -7l0 9 -9 -2 9 -7zm0 -29l0 29 -14 0 0 -29 9 -7 5 7zm-14 0l0 -9 9 3 -9 7zm33 15l-28 -8 4 -13 28 8 5 7 -9 7zm4 -13l5 1 0 5 -5 -7zm-9 35l0 -28 14 0 0 28 -9 7 -5 -7zm5 7l-5 -1 0 -5 5 7zm20 6l-20 -6 4 -13 20 6 5 7 -9 7zm9 -7l0 9 -9 -3 9 -7zm0 -29l0 29 -14 0 0 -29 9 -6 5 6zm-14 0l0 -9 9 3 -9 6zm29 15l-25 -8 4 -13 25 8 5 6 -9 7zm4 -13l4 1 0 5 -5 -6zm-7 36l-2 -29 14 -1 2 29 -8 7 -5 -6zm5 6l-5 -1 0 -5 5 6zm19 5l-19 -5 3 -13 19 5 5 7 -8 7zm8 -7l0 9 -8 -2 8 -7zm0 -26l0 26 -14 0 0 -26 9 -7 5 7zm-14 0l0 -9 9 3 -9 7zm28 14l-23 -7 4 -13 23 7 5 7 -9 7zm4 -13l5 1 0 5 -5 -7zm-9 32l0 -26 14 0 0 26 -9 7 -5 -7zm5 7l-5 -1 0 -5 5 7zm19 6l-19 -6 4 -13 19 6 5 7 -9 7zm9 -7l0 9 -9 -3 9 -7zm0 -27l0 27 -14 0 0 -27 9 -7 5 7zm-14 0l0 -9 9 2 -9 7zm27 12l-22 -6 3 -13 22 6 5 6 -9 7zm3 -13l5 1 0 5 -5 -6zm-7 34l-1 -27 14 -1 1 27 -9 7 -5 -6zm5 6l-5 -1 0 -5 5 6zm16 5l-16 -5 4 -13 16 5 5 6 -9 7zm9 -7l0 9 -9 -3 9 -7zm-1 -27l1 27 -14 1 -1 -27 9 -7 5 6zm-14 1l0 -10 9 3 -9 7zm28 13l-23 -7 4 -13 23 7 5 7 -9 6zm4 -13l5 2 0 5 -5 -7zm-10 30l1 -23 14 1 -1 23 -9 6 -5 -7zm5 7l-5 -2 0 -5 5 7zm20 7l-20 -7 5 -13 20 7 5 6 -9 7zm9 -7l0 10 -10 -3 9 -7zm-1 -25l1 25 -14 1 -1 -25 9 -7 5 6zm-14 1l0 -9 9 2 -9 7zm27 12l-22 -6 3 -13 22 6 5 7 -9 7zm3 -13l5 1 0 5 -5 -7zm-9 32l0 -26 14 0 0 26 -9 7 -5 -7zm5 7l-5 -1 0 -5 5 7zm16 5l-16 -5 4 -13 16 5 5 6 -9 7zm9 -7l0 9 -9 -3 9 -7zm-1 -26l1 26 -14 1 -1 -26 9 -7 5 6zm-14 1l0 -10 9 3 -9 7zm26 13l-21 -6 4 -13 21 6 5 7 -9 6zm4 -13l5 2 0 5 -5 -7zm-10 32l1 -26 14 1 -1 26 -8 6 -5 -7zm5 7l-6 -1 0 -6 5 7zm17 4l-17 -4 3 -13 17 4 5 7 -8 6zm8 -6l0 8 -8 -2 8 -6zm1 -27l-1 27 -14 0 1 -27 9 -6 5 7zm-14 0l0 -9 9 3 -9 6zm21 13l-16 -6 5 -13 16 6 4 6 -9 7zm5 -13l4 1 1 4 -4 -6zm-6 33l-4 -26 14 -2 4 26 -9 7 -4 -5zm4 5l-4 -1 -1 -4 4 5zm13 5l-13 -5 5 -13 13 5 4 6 -9 6zm9 -6l0 10 -9 -3 9 -6zm0 -25l0 25 -14 0 0 -25 9 -7 5 7zm-14 0l0 -9 9 3 -9 7zm25 12l-20 -6 4 -13 20 6 5 6 -9 7zm4 -13l5 1 0 5 -5 -6zm-8 28l-1 -21 14 -1 1 21 -9 7 -4 -6zm4 6l-4 -2 0 -4 4 6zm15 6l-15 -6 5 -13 15 6 4 6 -9 6zm9 -6l0 10 -9 -4 9 -6zm0 -24l0 24 -14 0 0 -24 9 -7 5 7zm-14 0l0 -9 9 2 -9 7zm22 11l-17 -5 4 -13 17 5 -4 13z"/>
   </g>
   <g>
    <path class="fil0" d="M1904 1607l11 100 -14 1 -11 -100 7 -8 7 6zm-14 1l-1 -8 8 0 -7 8zm8 6l-1 0 0 -14 1 0 0 14z"/>
   </g>
   <g>
    <path class="fil0" d="M1728 2067l-334 14 -1 -14 334 -14 1 14 0 0zm0 0l0 0 0 0 0 0zm49 -3l-49 3 -1 -14 49 -3 1 14z"/>
   </g>
   <g>
    <path class="fil0" d="M1260 2087l-6 0 0 -14 6 0 0 14 0 0zm0 0l0 0 0 0 0 0zm2 0l-2 0 -1 -14 2 0 1 14z"/>
   </g>
   <g>
    <polygon class="fil0" points="1127,2089 681,2107 680,2088 1126,2071 "/>
   </g>
   <g>
    <path class="fil0" d="M1182 1266l1 13 -14 1 -1 -13 1 -3 13 3zm-14 1l0 -2 1 -2 -1 3zm21 -13l-8 15 -12 -6 8 -15 8 -3 4 10zm-12 -6l3 -5 6 2 -8 3zm6 10l-2 -1 4 -13 2 1 1 0 -5 13zm4 -13l1 0 0 0 -1 0zm5 18l-10 -5 6 -12 10 5 4 6 -10 6zm6 -12l3 2 0 4 -4 -6zm-9 25l-1 -19 14 -1 1 19 -14 1z"/>
   </g>
   <g>
    <path class="fil0" d="M1214 1229l2 45 -14 1 -2 -45 0 0 14 -1zm-14 1l0 0 0 0 0 0zm13 -12l0 12 -14 0 0 -12 14 0z"/>
   </g>
   <g>
    <path class="fil0" d="M1244 1228l4 -12 13 5 -4 12 -13 -2 0 -2zm13 5l-13 34 0 -37 13 2zm0 -3l0 1 -14 0 0 -1 14 0 0 0zm-11 47l-3 -47 14 -1 3 47 -14 1z"/>
   </g>
   <g>
    <path class="fil0" d="M1162 1250l0 4 -14 1 0 -4 14 -1 0 0zm0 0l0 0 0 0 0 0zm-1 -13l1 13 -14 1 -1 -13 10 -6 3 5zm-3 -5l3 2 0 3 -3 -5zm-2 -1l2 1 -7 12 -2 -1 -3 -5 10 -6zm-7 12l-3 -2 0 -3 3 5zm10 -15l1 9 -14 1 -1 -9 12 -6 2 4zm-2 -4l2 2 0 2 -2 -4zm-8 -8l8 8 -10 10 -8 -8 -2 -7 11 -3zm-10 10l-3 -3 1 -4 2 7zm21 -30l-9 27 -13 -4 9 -27 3 -4 10 8zm-13 -4l1 -2 2 -1 -3 4zm61 -20l-51 28 -7 -12 51 -28 3 -1 3 13zm-7 -12l2 -1 2 0 -3 1zm55 12l-52 1 0 -14 52 -1 3 1 -3 13zm0 -14l1 0 1 1 -3 -1zm39 32l-42 -19 6 -12 42 19 4 7 -10 6zm6 -12l4 2 0 5 -4 -7zm-12 36l3 -30 14 1 -3 30 -1 3 -13 -4zm14 1l0 1 -1 1 1 -3zm-17 5l4 -8 12 6 -4 8 -13 -3 1 -4zm-1 4l0 -2 1 -2 -1 4zm1 13l-1 -13 14 -1 1 13 -14 1z"/>
   </g>
   <g>
    <path class="fil0" d="M1245 1175l4 -13 13 4 -4 13 -13 -2 0 -2zm0 2l0 -1 0 -1 0 2zm0 12l0 -12 14 0 0 12 -1 4 -12 -4zm14 0l0 2 -2 2 1 -4zm-13 -3l1 -1 11 9 -1 1 -12 -4 1 -5zm-1 5l0 -3 2 -2 -1 5zm2 30l-2 -30 14 -1 2 30 -14 1z"/>
   </g>
   <g>
    <path class="fil0" d="M1199 1179l-3 -14 13 -3 3 14 0 1 -14 2zm13 -3l0 1 0 1 0 -1zm-13 42l-1 -41 14 0 1 41 -14 0z"/>
   </g>
   <g>
    <path class="fil0" d="M1159 1191l-12 7 1 1 0 0 0 0 0 0 0 0 0 0 0 0 0 0 0 0 0 0 0 0 0 0 0 0 0 -1 0 -1 0 0 0 0 0 0 0 0 0 0 0 0 0 0 0 0 0 0 0 0 0 0 0 0 0 0 0 0 0 0 0 0 0 0 0 0 14 -2 0 0 0 0 0 0 0 0 0 0 0 0 0 0 0 0 0 0 0 0 0 0 0 0 0 0 0 0 0 0 0 0 0 0 0 0 0 -1 0 0 0 0 0 0 0 0 0 0 0 0 0 0 0 0 0 0 0 0 0 0 0 0 0 0 1 1zm-1 -1l1 1 0 1 -1 -1zm-5 17l-6 -9 12 -7 6 9 1 4 -13 4zm12 -7l1 2 0 2 -1 -4zm-13 5l0 -1 14 0 0 1 -14 1 0 -1zm0 1l0 -1 0 -1 0 1zm1 8l-1 -8 13 -2 1 8 0 0 -13 2zm13 -2l0 0 0 0 0 0zm-10 20l-3 -18 13 -2 3 18 0 1 -14 2zm13 -2l0 0 0 0 0 -1zm-13 12l-1 -10 14 -1 1 10 -7 7 -7 -6zm14 -1l0 7 -7 0 7 -7zm-7 0l0 0 0 0 0 0 0 7 0 -7zm7 0l0 7 -7 0 7 -7zm-7 -6l0 0 0 14 0 0 0 -14z"/>
   </g>
   <g>
    <path class="fil0" d="M1165 1207l-9 21 -13 -5 9 -21 3 -3 10 9zm-13 -5l1 -2 2 -1 -3 3zm57 -18l-47 27 -7 -12 47 -27 3 -1 4 13zm-7 -12l1 -1 2 0 -3 1zm49 12l-45 1 0 -14 45 -1 3 1 -3 13zm0 -14l2 0 1 1 -3 -1zm42 34l-44 -21 6 -12 44 21 -6 12z"/>
   </g>
   <g>
    <path class="fil0" d="M1167 1218l-9 17 -12 -6 9 -17 3 -3 9 9zm-12 -6l1 -2 2 -1 -3 3zm55 -16l-46 25 -7 -12 46 -25 3 -1 3 13zm-7 -12l1 -1 2 0 -3 1zm49 12l-45 1 0 -14 45 -1 3 1 -3 13zm0 -14l2 0 1 1 -3 -1zm41 32l-43 -19 5 -13 43 19 4 6 -10 6zm5 -13l4 2 0 4 -4 -6zm-10 6l0 0 14 0 0 0 -14 0zm7 0l0 0 0 0 0 0z"/>
   </g>
   <g>
    <path class="fil0" d="M1164 1175l1 14 -14 1 -1 -14 8 -7 6 6zm-6 -6l6 1 0 6 -6 -6zm-4 -1l4 1 -2 14 -4 -1 -6 -8 8 -5zm-2 14l-7 -1 2 -7 6 8zm10 -16l-3 11 -13 -3 3 -11 7 -5 6 8zm-13 -3l1 -6 6 1 -7 5zm14 9l-8 -1 2 -14 8 1 6 6 -8 7zm8 -7l1 8 -8 -1 8 -7zm0 -4l0 4 -14 1 0 -4 8 -7 6 6zm-6 -6l5 1 0 5 -6 -6zm-3 -1l3 1 -2 13 -3 -1 -6 -7 8 -7zm-2 13l-6 -1 0 -6 6 7zm8 -8l0 1 -14 0 0 -1 9 -6 5 6zm-5 -6l5 2 0 5 -5 -6zm-3 -1l3 1 -4 13 -3 -1 -4 -8 9 -5zm-4 13l-6 -2 2 -6 4 8zm12 -16l-3 11 -13 -4 3 -11 3 -4 10 8zm-13 -4l1 -2 2 -1 -3 4zm27 -3l-17 11 -7 -11 17 -11 7 0 1 12zm-7 -11l3 -2 3 2 -7 0zm15 19l-15 -7 6 -12 15 7 4 6 -10 6zm10 -6l0 11 -10 -5 10 -6zm0 -7l0 7 -14 1 0 -7 11 -6 3 5zm-3 -5l3 2 0 3 -3 -5zm-5 -4l5 4 -8 11 -5 -4 0 -11 8 0zm-8 11l-8 -6 8 -5 0 11zm25 -11l-17 11 -8 -11 17 -11 4 -1 4 12zm-8 -11l2 -1 2 0 -4 1zm23 12l-20 0 0 -14 20 0 7 7 -7 7zm0 -14l7 0 0 7 -7 -7zm-7 19l0 -12 14 0 0 12 -4 6 -10 -6zm14 0l0 4 -4 2 4 -6zm-12 -5l2 -1 6 12 -2 1 -10 -4 4 -8zm-4 8l-2 -5 5 -3 -4 8zm1 2l-1 -2 13 -4 1 2 0 2 -13 2zm13 -4l0 1 0 1 0 -2zm-13 17l0 -15 14 0 0 15 -7 7 -7 -7zm7 7l-7 0 0 -7 7 7zm8 0l-8 0 -1 -14 8 0 7 7 -7 7zm7 -7l0 7 -7 0 7 -7zm0 -1l0 1 -14 0 0 -1 14 0 0 0zm0 0l0 0 0 0 0 0zm-1 -22l1 22 -14 0 -1 -22 13 -2 0 2zm0 -2l0 1 0 1 0 -2zm-2 -8l2 8 -13 4 -2 -8 6 -9 7 5zm-13 4l-2 -8 8 -1 -6 9zm24 4l-16 1 -1 -14 16 -1 4 1 -2 13zm-1 -14l2 0 2 1 -4 -1zm15 22l-18 -9 6 -12 18 9 1 11 -7 1zm6 -12l9 5 -8 7 -1 -11zm-13 6l6 -5 9 10 -6 5 -11 -5 2 -6zm-2 6l0 -3 3 -2 -2 6zm2 22l-2 -22 14 -1 2 22 -8 7 -5 -6zm5 6l-5 -1 0 -5 5 6zm6 1l-6 -1 3 -13 6 1 5 5 -8 8zm8 -8l3 10 -11 -2 8 -8zm0 -1l0 1 -13 3 0 -1 0 -1 13 -2zm-13 3l0 -1 0 -1 0 1zm13 -20l1 18 -14 1 -1 -18 0 -2 13 1zm-14 1l0 -1 0 -1 0 2zm16 -7l-2 9 -13 -4 2 -9 10 -4 4 8zm-13 -4l2 -8 7 4 -10 4zm20 16l-16 -8 6 -12 16 8 3 9 -9 4zm6 -12l6 3 -2 6 -3 -9zm-13 13l4 -10 13 5 -4 10 -13 -2 0 -3zm0 3l0 -1 1 -1 0 3zm1 28l-1 -28 14 0 1 28 -14 0z"/>
   </g>
   <g>
    <path class="fil0" d="M1170 1139l0 -2 14 -2 0 2 0 1 -14 1zm14 -2l0 0 0 0 0 -1zm-14 8l0 -7 14 0 0 7 -12 4 -1 -4zm1 4l-1 -2 0 -2 1 4zm1 2l-1 -2 11 -8 1 2 1 3 -12 5zm11 -8l1 2 0 2 -1 -3zm-11 24l-2 -20 14 -1 2 20 -4 7 -9 -6zm9 6l-9 4 -1 -9 9 6zm12 -5l-12 5 -5 -13 12 -5 10 6 -4 7zm4 -7l0 5 -4 2 4 -7zm-1 -18l1 18 -14 0 -1 -18 14 0z"/>
   </g>
   <g>
    <path class="fil0" d="M1208 1132l-13 9 -8 -11 13 -9 10 3 -2 8zm-8 -11l7 -5 3 8 -10 -3zm-2 9l0 -1 13 -5 0 1 -6 9 -6 -4zm6 4l-5 0 -2 -4 6 4zm18 0l-18 0 0 -14 18 0 7 7 -7 7zm7 -7l0 7 -7 0 7 -7zm0 -1l0 1 -14 0 0 -1 14 0z"/>
   </g>
   <g>
    <path class="fil0" d="M1240 1134l-12 0 0 -14 12 0 3 0 -2 13zm0 -14l1 0 1 0 -3 0zm12 18l-14 -5 5 -13 14 5 -5 13z"/>
   </g>
   <g>
    <path class="fil0" d="M1274 1149l-16 -6 5 -13 16 6 4 6 -9 6zm5 -13l4 2 0 5 -4 -6zm-9 6l0 0 14 0 0 0 -14 0z"/>
   </g>
   <g>
    <polygon class="fil0" points="496,1544 1103,1646 1100,1664 493,1562 "/>
   </g>
   <g>
    <path class="fil0" d="M1229 1251l1 23 -14 1 -1 -23 1 -4 13 3zm-14 1l0 -2 1 -2 -1 4zm20 -9l-8 12 -12 -7 8 -12 11 -1 1 8zm-12 -7l5 -8 6 7 -11 1zm12 21l-11 -13 11 -9 11 13 2 4 -12 5zm11 -9l1 2 0 2 -2 -4zm-11 28l-1 -23 14 -1 1 23 -14 1z"/>
   </g>
   <g>
    <path class="fil0" d="M1270 1259l1 20 -14 1 -1 -20 2 -5 12 5zm-14 1l0 -3 2 -2 -2 5zm21 -5l-10 9 -9 -10 10 -9 11 2 -2 8zm-9 -10l7 -7 4 9 -11 -2zm6 26l-8 -18 13 -5 8 18 1 2 -13 3zm13 -5l0 1 0 1 -1 -2zm-12 19l-1 -16 14 -1 1 16 -14 1z"/>
   </g>
   <g>
    <polygon class="fil0" points="1261,2074 1262,2074 1262,2087 1261,2087 "/>
   </g>
   <g>
    <polygon class="fil0" points="1496,1663 1334,1630 1336,1617 1499,1650 "/>
   </g>
   <g>
    <path class="fil0" d="M1645 1693l-149 -30 3 -13 149 30 -1 14 -2 0zm2 0l-1 0 -1 0 2 0zm36 -1l-36 1 0 -14 36 -1 2 0 -1 14zm0 -14l1 0 1 0 -2 0zm30 20l-32 -6 3 -13 32 6 3 12 -6 2zm3 -13l12 3 -9 9 -3 -12zm-14 10l8 -8 10 10 -8 8 -12 -4 2 -6zm-2 6l0 -3 2 -2 -2 6zm1 5l-1 -5 14 -2 1 5 -2 6 -12 -4zm14 -2l0 3 -2 2 2 -6zm-16 0l4 -4 10 10 -4 4 -12 -4 2 -5zm-2 5l0 -3 2 -2 -2 5zm29 351l-29 -351 14 -1 29 351 -14 1z"/>
   </g>
   <g>
    <polygon class="fil0" points="1890,1777 1704,1745 1706,1731 1892,1763 "/>
   </g>
   <g>
    <path class="fil0" d="M1896 1640l10 98 -14 1 -10 -98 1 -4 13 3zm-14 1l0 -2 1 -2 -1 4zm17 -3l-4 6 -12 -7 4 -6 8 -3 4 10zm-4 -10l8 3 -5 7 -4 -10zm-5 -2l5 2 -4 13 -5 -2 -5 -6 9 -7zm-4 13l-4 -1 0 -5 5 6zm7 -42l2 35 -14 1 -2 -35 0 -1 14 0zm-14 1l0 0 0 0 0 1zm17 -47l-3 47 -14 -1 3 -47 13 -1 0 2zm-14 -1l2 -40 11 38 -13 1zm15 53l-15 -51 13 -4 15 51 -1 6 -12 -2zm13 -4l1 3 -2 3 1 -6zm-17 5l5 -7 11 8 -5 7 -11 -8z"/>
   </g>
   <g>
    <path class="fil0" d="M1873 1546l19 48 -13 5 -19 -48 0 -4 13 -1zm-13 1l4 -23 9 22 -13 1zm-9 48l9 -48 13 2 -9 48 -13 -2z"/>
   </g>
   <g>
    <path class="fil0" d="M1884 1542l6 1 -3 13 -6 -1 -5 -5 8 -9zm-3 13l-4 -1 -1 -4 5 5zm-11 -70l19 61 -13 4 -19 -61 0 -2 13 -2zm-13 2l2 -39 12 37 -13 2zm-4 97l4 -97 14 1 -4 97 -14 0 0 0zm0 0l0 0 0 0 0 0zm0 0l0 0 14 0 0 0 -14 0z"/>
   </g>
   <g>
    <path class="fil0" d="M1878 1596l-21 -107 13 -3 21 107 -13 3zm7 -1l0 0 0 0 0 0z"/>
   </g>
   <g>
    <path class="fil0" d="M1637 1456l17 230 -14 1 -17 -230 2 -5 12 4zm-12 -4l11 -10 1 15 -12 -4zm-13 12l13 -12 10 10 -13 12 -12 -4 2 -5zm-2 5l0 -3 2 -2 -2 5zm17 215l-17 -215 14 -1 17 215 -14 1z"/>
   </g>
   <g>
    <polygon class="fil0" points="1615,1475 1395,1399 1399,1386 1619,1462 "/>
   </g>
   <g>
    <path class="fil0" d="M1458 1458l13 -3 0 0 0 4 1 4 1 4 1 4 1 4 1 5 1 5 0 5 0 5 0 5 0 5 0 5 0 6 0 6 0 6 0 6 0 6 0 6 0 6 0 7 0 7 -1 7 -1 7 -1 7 -1 7 -1 7 -1 8 -1 8 -2 8 -2 8 -2 8 -2 8 -13 -3 2 -8 2 -8 2 -8 1 -8 1 -7 1 -7 1 -7 1 -7 1 -7 1 -7 0 -7 0 -6 0 -6 0 -6 0 -6 0 -6 0 -6 0 -6 0 -6 0 -5 0 -5 0 -5 0 -5 0 -5 0 -5 -1 -5 -1 -5 -1 -4 -1 -4 -1 -4 -1 -4 0 -4 0 0zm13 -3l0 0 0 0 0 0zm-1 -6l1 6 -13 3 -1 -6 9 -8 5 5zm-13 3l-2 -11 11 3 -9 8zm22 10l-17 -5 4 -13 17 5 5 6 -9 8zm4 -13l4 1 1 4 -5 -6zm-6 27l-3 -19 14 -2 3 19 -13 2 0 0zm0 0l0 0 0 0 0 0zm2 8l-2 -8 13 -3 2 8 0 0 -13 3zm13 -3l0 0 0 0 0 0zm-5 47l-8 -44 13 -3 8 44 0 0 -13 2zm13 -3l0 0 0 0 0 0zm-7 56l-6 -54 14 -2 6 54 -11 6 -3 -5zm3 5l-2 -2 0 -3 3 5zm4 3l-4 -3 8 -11 4 3 3 5 -11 6zm8 -11l2 2 0 3 -3 -5zm-10 16l-1 -9 14 -2 1 9 -2 6 -12 -4zm14 -2l0 3 -2 2 2 -6zm-14 -2l2 -2 10 10 -2 2 -12 -3 2 -6zm-2 6l-1 -4 3 -3 -2 6zm14 64l-14 -64 13 -3 14 64 -7 8 -7 -5zm13 -3l2 8 -8 0 7 -8zm-7 -5l0 0 0 14 0 0 0 -14z"/>
   </g>
   <g>
    <polygon class="fil0" points="1504,1601 1469,1596 1471,1583 1506,1588 "/>
   </g>
   <g>
    <polygon class="fil0" points="1499,1589 1469,1585 1471,1572 1501,1576 "/>
   </g>
   <g>
    <path class="fil0" d="M1482 1482l-16 -3 3 -13 16 3 5 6 -8 7zm3 -13l5 1 1 5 -5 -6zm-7 15l-1 -8 14 -2 1 8 -8 8 -6 -6zm14 -2l1 9 -9 -1 8 -8zm-23 -8l17 2 -2 14 -17 -2 2 -14z"/>
   </g>
   <g>
    <polygon class="fil0" points="1098,1689 499,1597 502,1579 1100,1671 "/>
   </g>
   <g>
    <polygon class="fil0" points="644,2022 1062,2024 1062,2042 644,2041 "/>
   </g>
   <g>
    <path class="fil0" d="M1678 1414l22 273 -14 1 -22 -273 13 -4 1 3zm-1 -3l1 1 0 1 -1 -3zm-7 -14l7 14 -12 6 -7 -14 0 -6 12 -1zm-12 1l6 -14 7 14 -12 1zm-4 9l4 -9 13 5 -4 9 -13 -2 0 -3zm0 3l0 -2 1 -1 0 3zm22 276l-22 -276 14 -1 22 276 -14 1z"/>
   </g>
   <g>
    <path class="fil0" d="M1680 1698l24 5 -3 13 -24 -5 1 -14 2 0zm-2 0l1 0 1 0 -2 0zm-31 1l31 -1 1 14 -31 1 -7 -9 6 -5zm1 14l-10 0 3 -9 7 9zm12 -25l-6 20 -13 -4 6 -20 13 4z"/>
   </g>
   <g>
    <polygon class="fil0" points="1663,1707 1658,1688 1671,1684 1676,1704 "/>
   </g>
   <g>
    <polygon class="fil0" points="1524,1677 1649,1700 1646,1713 1521,1691 "/>
   </g>
   <g>
    <path class="fil0" d="M1468 1679l-131 -25 3 -13 131 25 -1 14 -1 0zm1 0l-1 0 -1 0 1 0zm1 0l-1 0 0 -14 1 0 3 1 -3 13zm0 -14l2 0 1 1 -3 -1zm-2 13l-1 0 6 -12 1 0 -6 12z"/>
   </g>
   <g>
    <polygon class="fil0" points="1342,1665 1455,1685 1452,1699 1340,1678 "/>
   </g>
   <g>
    <path class="fil0" d="M1418 1463l-14 0 0 0 0 -1 0 -1 0 -1 0 -1 0 -1 0 -1 0 -1 0 -1 0 -1 0 -1 0 -1 0 -1 0 -1 0 -1 0 -1 0 -1 0 -1 0 -1 0 -1 0 -1 0 -1 0 -1 0 -1 0 -1 0 -1 0 -1 0 -1 0 -1 0 -1 0 -1 0 -1 0 -1 14 -1 0 1 0 1 0 1 0 1 0 1 0 1 0 1 0 1 0 1 0 1 0 1 0 1 0 1 0 1 0 1 0 1 0 1 0 1 0 1 0 1 0 1 0 1 0 1 0 1 0 1 0 1 0 1 0 1 0 1 0 1 0 1 0 1 0 0zm-3 0l-8 11 -3 -6 0 0 0 0 0 0 0 0 0 0 0 0 0 0 0 0 0 0 0 0 0 0 0 0 0 0 0 0 0 0 0 0 0 0 0 0 0 0 0 0 0 0 0 0 0 0 0 0 0 0 0 0 0 0 0 0 0 0 0 0 0 0 0 0 14 0 0 0 0 0 0 0 0 0 0 0 0 0 0 0 0 0 0 0 0 0 0 0 0 0 0 0 0 0 0 0 0 0 0 0 0 0 0 0 0 0 0 0 0 0 0 0 0 0 0 0 0 0 0 0 0 0 0 0 0 0 0 0 0 0 -3 -6zm-8 11l-3 -2 0 -3 3 6zm18 7l-13 3 0 0 0 0 0 0 0 0 0 0 0 0 0 0 0 0 0 0 0 0 0 0 0 0 0 0 0 0 0 0 0 0 0 0 0 0 0 0 0 0 0 0 0 0 0 0 0 0 0 0 0 0 0 0 0 0 0 0 0 0 0 0 0 0 0 0 8 -11 0 0 0 0 0 0 0 0 0 0 0 0 0 0 0 0 0 0 0 0 0 0 0 1 0 1 0 1 0 1 0 1 0 1 0 1 0 1 0 1 0 1 0 1 0 1 0 1 0 1 0 1 0 1 0 1 0 1 0 1 0 1 0 1 0 0zm-13 26l-2 -14 0 0 0 0 0 0 0 0 0 0 0 0 0 0 0 0 0 0 0 0 0 0 0 0 0 0 0 0 0 0 0 0 0 0 0 0 0 0 0 0 0 0 0 0 0 0 0 0 0 -1 0 -1 0 -1 0 -1 0 -1 0 -1 0 -1 0 -1 0 -1 13 -3 0 1 0 1 0 1 0 1 0 1 0 1 0 1 0 1 0 1 0 1 0 1 0 1 0 1 0 1 0 1 0 1 0 1 0 1 0 1 -1 1 -1 1 -1 1 -1 1 -1 1 -1 1 -1 1 -1 1 -1 0 -1 0 -1 0 -1 0 -1 0 0 0zm3 -6l-13 -3 9 -5 0 0 0 0 0 0 0 0 0 0 0 0 0 0 0 0 0 0 0 0 0 0 0 0 0 0 0 0 0 0 0 0 0 0 0 0 0 0 0 0 0 0 0 0 0 0 0 0 0 0 0 0 0 0 0 0 0 0 0 0 0 0 0 0 2 14 0 0 0 0 0 0 0 0 0 0 0 0 0 0 0 0 0 0 0 0 0 0 0 0 0 0 0 0 0 0 0 0 0 0 0 0 0 0 0 0 0 0 0 0 0 0 0 0 0 0 0 0 0 0 0 0 0 0 0 0 0 0 0 0 9 -5zm-13 -3l1 -8 7 3 -9 5zm12 5l-13 5 0 -4 0 0 0 0 0 0 0 0 0 0 0 0 0 0 0 0 0 0 0 0 0 0 0 0 0 0 0 0 0 0 0 0 0 0 0 0 0 0 0 0 0 0 0 0 0 0 0 0 0 0 0 0 0 0 0 0 0 0 0 0 0 0 0 0 13 3 0 0 0 0 0 0 0 0 0 0 0 0 0 0 0 0 0 0 0 0 0 0 0 0 0 0 0 0 0 0 0 0 0 0 0 0 0 0 0 0 0 0 0 0 0 0 0 0 0 0 0 0 0 0 0 0 0 0 0 0 0 0 0 0 0 -4zm-13 5l-1 -2 0 -2 0 4zm16 5l-13 3 0 0 0 0 0 0 0 0 0 0 0 0 0 0 0 0 0 0 0 0 0 0 0 0 0 0 0 0 0 0 0 0 0 0 0 0 0 0 0 0 0 0 0 0 0 0 0 0 0 0 0 0 0 0 0 0 0 0 0 0 0 0 0 0 0 0 13 -5 0 0 0 0 0 0 0 0 0 0 0 0 0 0 0 0 0 0 0 0 0 0 0 0 0 0 0 0 0 0 0 0 0 0 0 0 0 0 0 0 0 0 0 0 0 0 0 0 0 0 0 0 0 0 0 0 0 0 0 0 0 0 0 0 0 0zm-21 43l-1 -14 0 0 1 0 1 0 1 0 1 0 1 0 1 0 1 0 1 0 0 0 0 -1 0 -1 0 -1 0 -1 0 -1 0 -1 0 -1 0 -1 0 -1 0 -1 0 -1 0 -1 0 -1 0 -1 0 -1 0 -1 0 -1 0 -1 0 -1 0 -1 0 -1 0 -1 0 -1 13 -3 0 2 0 2 0 2 0 2 0 2 0 2 0 2 0 2 0 2 0 2 0 2 0 2 0 2 0 2 -1 2 -1 2 -1 1 -1 1 -1 1 -1 1 -1 1 -1 1 -1 1 -1 1 -1 1 -1 1 -1 1 -1 1 -1 1 -2 0 -2 0 -2 0 0 0zm2 -4l-12 -6 7 -4 0 0 0 0 0 0 0 0 0 0 0 0 0 0 0 0 0 0 0 0 0 0 0 0 0 0 0 0 0 0 0 0 0 0 0 0 0 0 0 0 0 0 0 0 0 0 0 0 0 0 0 0 0 0 0 0 0 0 0 0 0 0 0 0 1 14 0 0 0 0 0 0 0 0 0 0 0 0 0 0 0 0 0 0 0 0 0 0 0 0 0 0 0 0 0 0 0 0 0 0 0 0 0 0 0 0 0 0 0 0 0 0 0 0 0 0 0 0 0 0 0 0 0 0 0 0 0 0 0 0 7 -4zm-12 -6l2 -4 5 0 -7 4zm6 18l-12 -7 0 0 0 0 0 0 0 0 0 0 0 0 0 0 0 0 0 0 0 0 0 0 0 0 0 0 0 0 0 0 0 0 0 0 0 0 0 0 0 0 0 0 0 0 0 0 0 0 0 0 0 0 0 0 0 0 0 0 0 0 0 0 0 0 0 0 12 6 0 0 0 0 0 0 0 0 0 0 0 0 0 0 0 0 0 0 0 0 0 0 0 0 0 0 0 0 0 0 0 0 0 0 0 0 0 0 0 0 0 0 0 0 0 0 0 0 0 0 0 0 0 0 0 0 0 0 0 0 0 0 0 0 0 0zm-18 16l-10 9 0 -9 1 -1 1 -1 1 -1 1 -1 1 -1 1 -1 1 -1 1 -1 1 -1 1 -1 1 -1 1 -1 1 -1 1 -1 1 -1 1 -1 1 -1 1 -1 1 -1 1 -1 1 -1 1 -1 1 -1 1 -1 1 -1 0 -1 0 -1 0 -1 0 -1 0 -1 0 -1 0 -1 12 7 -1 1 -1 1 -1 1 -1 1 -1 1 -1 1 -1 1 -1 1 -1 1 -1 1 -1 1 -1 1 -1 1 -1 1 -1 1 -1 1 -1 1 -1 1 -1 1 -1 1 -1 1 -1 1 -1 1 -1 1 -1 1 -1 1 -1 1 -1 1 -1 1 -1 1 -1 1 -1 1 0 -9zm-10 9l-4 -4 4 -5 0 9zm44 7l2 14 0 0 -2 0 -2 0 -2 0 -2 0 -2 0 -2 0 -2 0 -2 0 -2 0 -2 0 -2 0 -1 0 -1 -1 -1 -1 -1 -1 -1 -1 -1 -1 -1 -1 -1 -1 -1 -1 -1 -1 -1 -1 -1 -1 -1 -1 -1 -1 -1 -1 -1 -1 -1 -1 -1 -1 -1 -1 -1 -1 -1 -1 10 -9 1 1 1 1 1 1 1 1 1 1 1 1 1 1 1 1 1 1 1 1 1 1 1 1 1 1 1 1 1 1 1 1 1 0 1 0 1 0 1 0 1 0 1 0 1 0 1 0 1 0 1 0 1 0 1 0 1 0 1 0 1 0 1 0 0 0zm31 -84l13 -2 0 0 1 5 1 5 0 5 0 5 0 4 0 4 0 4 0 4 0 4 -1 4 -1 4 -1 4 -1 4 -1 4 -1 4 -1 3 -1 3 -2 3 -2 3 -2 3 -2 3 -2 3 -2 2 -2 2 -2 2 -3 2 -3 2 -3 2 -3 1 -3 1 -3 1 -3 1 -2 -14 2 0 2 -1 2 -1 2 -1 2 -1 2 -1 2 -1 2 -2 2 -2 2 -2 2 -2 2 -2 1 -2 1 -2 1 -3 1 -3 1 -3 1 -3 1 -3 1 -3 1 -3 1 -4 0 -4 0 -4 0 -4 0 -4 0 -4 0 -4 0 -4 0 -4 -1 -4 -1 -4 0 0zm-20 -68l-14 1 11 -6 2 1 2 2 2 2 2 2 1 2 1 2 1 2 1 2 1 2 1 2 1 2 1 2 1 2 1 2 1 2 1 2 1 2 1 2 1 2 1 2 1 2 1 2 1 2 1 3 1 3 1 3 1 3 1 3 1 3 1 3 1 3 1 3 -13 2 0 -3 -1 -2 -1 -2 -1 -2 -1 -2 -1 -2 -1 -2 -1 -2 -1 -2 -1 -2 -1 -2 -1 -2 -1 -2 -1 -2 -1 -2 -1 -2 -1 -2 -1 -2 -1 -2 -1 -2 -1 -2 -1 -2 -1 -2 -1 -2 -1 -2 -1 -2 -1 -2 -1 -1 -1 -1 -1 -1 -1 -1 -1 -1 11 -6zm-14 1l-2 -18 13 12 -11 6z"/>
   </g>
   <g>
    <path class="fil0" d="M467 1267l-5 18 -7 -8 0 0 0 0 0 0 0 0 0 0 0 0 0 0 0 0 0 0 0 0 0 0 0 0 0 0 0 0 0 0 0 0 0 0 0 0 0 0 0 0 0 0 0 0 0 0 0 0 0 0 0 0 0 0 0 0 0 0 0 0 0 0 0 0 18 -1 0 0 0 0 0 0 0 0 0 0 0 0 0 0 0 0 0 0 0 0 0 0 0 0 0 0 0 0 0 0 0 0 0 0 0 0 0 0 0 0 0 0 0 0 0 0 0 0 0 0 0 0 0 0 0 0 0 0 0 0 0 0 0 0 -7 -8zm-5 18l-6 -2 0 -7 7 8zm1 0l-1 0 5 -18 1 0 7 10 -11 8zm11 -8l-1 11 -10 -3 11 -8zm1 -8l-1 8 -18 -2 1 -8 11 -8 7 10zm-7 -10l8 2 -1 8 -7 -10zm-2 -1l2 1 -5 18 -2 -1 -7 -8 11 -9zm-11 9l-1 -12 12 3 -11 9z"/>
   </g>
   <g>
    <path class="fil0" d="M1408 1826l-14 1 0 -1 0 -6 1 -6 1 -6 1 -6 1 -6 1 -6 1 -6 2 -6 2 -6 2 -6 2 -6 2 -6 2 -6 3 -6 3 -6 3 -6 3 -6 3 -6 4 -6 4 -6 4 -6 4 -5 4 -5 4 -5 5 -5 5 -5 5 -4 5 -4 5 -4 6 -4 6 -3 6 -3 6 12 -5 3 -5 3 -5 3 -5 4 -5 4 -5 4 -4 4 -4 5 -4 5 -4 5 -4 5 -4 5 -3 5 -3 6 -3 6 -3 6 -3 6 -3 6 -3 6 -2 6 -2 6 -2 6 -2 6 -2 6 -2 6 -1 6 -1 6 -1 6 -1 6 -1 5 -1 5 0 5 0 -1zm-14 1l0 0 0 0 0 1zm10 248l-10 -248 14 -1 10 248 -7 7 -7 -7zm7 7l-7 0 0 -7 7 7zm180 -8l-180 8 -1 -14 180 -8 1 14zm12 -1l-12 1 -1 -14 12 -1 7 7 -7 7zm7 -7l0 7 -7 0 7 -7zm-7 -212l7 212 -14 0 -7 -212 14 0 0 0zm0 0l0 0 0 0 0 0zm-102 -191l-6 -12 6 0 3 2 3 2 3 2 3 3 3 3 3 4 4 4 4 4 4 5 4 5 4 6 4 6 4 6 4 6 4 7 4 7 4 7 4 7 4 8 4 8 4 8 4 8 3 8 3 8 3 8 3 8 2 9 2 9 2 9 1 9 1 9 1 9 -14 0 0 -8 -1 -8 -1 -8 -2 -8 -2 -8 -2 -8 -2 -8 -3 -8 -3 -8 -3 -8 -3 -8 -4 -8 -4 -7 -4 -7 -4 -7 -4 -7 -4 -7 -4 -6 -4 -6 -4 -6 -4 -6 -4 -5 -4 -5 -4 -5 -4 -4 -3 -4 -3 -3 -3 -3 -3 -3 -2 -2 -2 -1 -1 -1 6 0zm-6 -12l3 -1 3 2 -6 0z"/>
   </g>
   <g>
    <polygon class="fil0" points="1696,2062 1674,1705 1688,1704 1710,2061 "/>
   </g>
   <g>
    <polygon class="fil0" points="1683,2063 1663,1706 1677,1705 1697,2062 "/>
   </g>
   <g>
    <polygon class="fil0" points="1604,1844 1598,1755 1612,1754 1618,1843 "/>
   </g>
   <g>
    <polygon class="fil0" points="1613,1783 1598,1781 1600,1767 1615,1770 "/>
   </g>
   <g>
    <polygon class="fil0" points="1615,1800 1598,1797 1600,1783 1618,1786 "/>
   </g>
   <g>
    <path class="fil0" d="M1617 1818l-18 -3 2 -13 18 3 -2 13zm1 -7l0 0 0 0 0 0z"/>
   </g>
   <g>
    <path class="fil0" d="M1617 1833l-17 -3 2 -13 17 3 -2 13zm1 -7l0 0 0 0 0 0z"/>
   </g>
   <g>
    <path class="fil0" d="M1606 1790l-14 1 0 0 0 -1 0 -1 0 -1 0 -1 0 -1 0 -1 0 -1 0 -1 0 -1 0 -1 0 -1 0 -1 0 -1 0 -1 0 -1 0 -1 0 -1 0 -1 0 -1 0 -1 0 -1 0 -1 0 -1 0 -1 1 -1 1 -1 1 -1 1 -1 1 -1 1 -1 1 -1 1 -1 6 12 0 0 0 0 0 0 0 0 0 0 0 0 0 1 0 1 0 1 0 1 0 1 0 1 0 1 0 1 0 1 0 1 0 1 0 1 0 1 0 1 0 1 0 1 0 1 0 1 0 1 0 1 0 1 0 1 0 1 0 1 0 1 0 1 0 0zm-14 1l0 0 0 0 0 0zm3 52l-3 -52 14 -1 3 52 -8 7 -6 -6zm6 6l-5 -1 0 -5 6 6zm17 3l-17 -3 2 -13 17 3 6 6 -8 7zm8 -7l0 8 -8 -1 8 -7zm-3 -50l3 50 -14 1 -3 -50 14 -1 0 0zm0 0l0 0 0 0 0 0zm-23 -34l9 -10 1 1 1 1 1 1 1 1 1 1 1 1 1 1 1 1 1 1 1 1 0 1 0 1 0 2 0 2 0 2 0 2 0 2 0 2 0 2 0 2 0 2 0 1 0 1 0 1 0 1 0 1 0 1 0 1 0 1 0 1 0 1 0 1 -14 1 0 -1 0 -1 0 -1 0 -1 0 -1 0 -1 0 -1 0 -1 0 -1 0 -1 0 -1 0 -1 0 -1 0 -1 0 -1 0 -1 0 -1 0 -1 0 -1 0 -1 0 -1 0 -1 0 -1 0 -1 0 -1 0 -1 0 -1 0 -1 0 -1 0 -1 0 0 0 0z"/>
   </g>
   <g>
    <polygon class="fil0" points="1353,1749 1349,1749 1351,1735 1355,1736 "/>
   </g>
   <g>
    <polygon class="fil0" points="1356,1768 1352,1768 1353,1754 1358,1755 "/>
   </g>
   <g>
    <path class="fil0" d="M1357 1789l-2 0 2 -14 2 0 6 7 -8 7zm8 -7l0 8 -8 -1 8 -7zm0 0l0 0 -14 0 0 0 14 0z"/>
   </g>
   <g>
    <path class="fil0" d="M1357 1806l-1 0 2 -14 1 0 -2 14zm1 -7l0 0 0 0 0 0z"/>
   </g>
   <g>
    <path class="fil0" d="M1364 1763l2 44 -14 1 -2 -44 14 -1 0 0zm0 0l0 0 0 0 0 0zm-22 -34l12 -6 1 1 1 1 1 1 1 1 1 1 0 1 0 1 0 1 0 1 0 1 0 1 0 1 0 1 0 1 0 1 0 1 0 1 0 1 0 1 0 1 0 1 0 1 0 1 0 1 0 1 0 1 0 1 0 1 0 1 0 1 0 1 0 1 -14 1 0 -1 0 -1 0 -1 0 -1 0 -1 0 -1 0 -1 0 -1 0 -1 0 -1 0 -1 0 -1 0 -1 0 -1 0 -1 0 -1 0 -1 0 -1 0 -1 0 -1 0 -1 0 -1 0 -1 0 -1 0 -1 0 -1 0 -1 0 -1 0 -1 0 -1 0 -1 0 -1z"/>
   </g>
   <g>
    <path class="fil0" d="M1206 1060l3 60 -14 1 -3 -60 3 -6 10 6zm-14 1l0 -4 4 -2 -3 6zm23 -2l-13 7 -7 -12 13 -7 6 -1 1 12zm-7 -12l3 -2 3 1 -6 1zm14 16l-13 -4 4 -13 13 4 5 6 -9 7zm4 -13l5 1 0 5 -5 -6zm-6 73l-3 -66 14 -1 3 66 -8 7 -6 -6zm14 -1l0 8 -8 -1 8 -7zm-26 -9l21 3 -2 14 -21 -3 2 -14z"/>
   </g>
   <g>
    <polygon class="fil0" points="1214,959 1219,1053 1205,1054 1200,960 "/>
   </g>
   <g>
    <path class="fil0" d="M1189 982l0 -20 14 0 0 20 -9 7 -4 -6zm4 6l-4 -2 0 -5 4 6zm12 5l-12 -5 5 -13 12 5 2 2 -7 11zm5 -13l1 1 1 1 -2 -2zm-7 11l0 0 10 -9 0 0 -10 9 0 0zm0 0l0 0 0 0 0 0zm17 17l-17 -17 10 -10 17 17 1 8 -11 2zm11 -2l-4 9 -7 -7 11 -2zm-3 -44l-12 -6 11 -2 1 1 1 1 1 1 1 1 1 1 1 1 1 1 1 1 0 1 0 1 0 2 0 2 0 2 0 2 0 2 0 2 0 2 0 2 0 2 0 2 0 2 0 2 0 2 0 2 0 2 0 2 0 2 0 2 -1 2 -1 2 -1 2 -1 2 -13 -5 1 -1 1 -1 0 -1 0 -1 0 -1 0 -1 0 -1 0 -2 0 -2 0 -1 0 -1 0 -1 0 -1 0 -1 0 -1 0 -1 0 -1 0 -1 0 -1 0 -1 0 -1 0 -1 0 -1 0 -1 0 -1 0 -1 0 -1 0 -1 0 0 0 0 0 0 0 0 11 -2zm-12 -6l4 -8 7 6 -11 2zm-4 7l4 -7 12 6 -4 7 -8 4 -5 -10zm12 6l-2 5 -5 -1 8 -4zm-28 -15l23 5 -3 13 -23 -5 -5 -7 8 -7zm-8 7l0 -9 9 2 -8 7z"/>
   </g>
   <g>
    <polygon class="fil0" points="1877,1608 1681,1558 1684,1545 1880,1595 "/>
   </g>
   <g>
    <polygon class="fil0" points="1656,2064 1640,1687 1653,1687 1669,2063 "/>
   </g>
   <g>
    <polygon class="fil0" points="1600,1466 1597,1379 1610,1378 1614,1465 "/>
   </g>
   <g>
    <polygon class="fil0" points="1623,1457 1618,1369 1632,1369 1637,1456 "/>
   </g>
   <g>
    <polygon class="fil0" points="1680,1358 1671,1402 1657,1399 1667,1355 "/>
   </g>
   <g>
    <polygon class="fil0" points="1653,1352 1652,1325 1666,1325 1667,1351 "/>
   </g>
  </g>
 </g>
</svg>
