<?xml version="1.0" encoding="UTF-8"?>
<!DOCTYPE svg PUBLIC "-//W3C//DTD SVG 1.1//EN" "http://www.w3.org/Graphics/SVG/1.1/DTD/svg11.dtd">
<!-- Creator: CorelDRAW X6 -->
<svg xmlns="http://www.w3.org/2000/svg" xml:space="preserve" width="152.129mm" height="121.591mm" version="1.1" style="shape-rendering:geometricPrecision; text-rendering:geometricPrecision; image-rendering:optimizeQuality; fill-rule:evenodd; clip-rule:evenodd"
viewBox="0 0 14260 11398"
 xmlns:xlink="http://www.w3.org/1999/xlink">
 <defs>
  <style type="text/css">
   <![CDATA[
    .str0 {stroke:#2B2A29;stroke-width:187.476}
    .fil0 {fill:none}
   ]]>
  </style>
 </defs>
 <g id="Warstwa_x0020_1">
  <metadata id="CorelCorpID_0Corel-Layer"/>
  <path class="fil0 str0" d="M4365 6282l0 0c411,0 747,336 747,747l0 3528c0,411 -336,747 -747,747l0 0c-411,0 -747,-336 -747,-747l0 -3528c0,-411 336,-747 747,-747zm-996 953l0 0c139,0 253,114 253,253l0 2542c0,139 -114,253 -253,253l0 0c-139,0 -253,-114 -253,-253l0 -2542c0,-139 114,-253 253,-253zm7901 -29l0 0c139,0 253,114 253,253l0 2542c0,139 -114,253 -253,253l0 0c-139,0 -253,-114 -253,-253l0 -2542c0,-139 114,-253 253,-253zm-4015 -7112c3219,0 5829,2329 5829,5202 0,1368 -592,2613 -1561,3541l0 -1175c479,-687 757,-1498 757,-2367 0,-2476 -2250,-4484 -5025,-4484 -2775,0 -5025,2008 -5025,4484 0,945 327,1821 886,2543l0 1119c-1045,-940 -1690,-2234 -1690,-3662 0,-2873 2610,-5202 5829,-5202zm3002 6136l0 0c411,0 747,336 747,747l0 3528c0,411 -336,747 -747,747l0 0c-411,0 -747,-336 -747,-747l0 -3528c0,-411 336,-747 747,-747zm-6555 -3010c760,-1022 2067,-1697 3553,-1697 1486,0 2793,675 3553,1697m-10745 7242l2503 -2075m2315 -1897l639 -492 645 446 1141 -942 1240 1141 3551 -2554m660 -519l1196 -746m-961 -155l961 155 -205 911m-7903 4592l2923 0c83,0 151,68 151,151l0 0c0,83 -68,151 -151,151l-2923 0c-83,0 -151,-68 -151,-151l0 0c0,-83 68,-151 151,-151zm0 637l2923 0c83,0 151,68 151,151l0 0c0,83 -68,151 -151,151l-2923 0c-83,0 -151,-68 -151,-151l0 0c0,-83 68,-151 151,-151zm0 637l2923 0c83,0 151,68 151,151l0 0c0,83 -68,151 -151,151l-2923 0c-83,0 -151,-68 -151,-151l0 0c0,-83 68,-151 151,-151zm0 637l2923 0c83,0 151,68 151,151l0 0c0,83 -68,151 -151,151l-2923 0c-83,0 -151,-68 -151,-151l0 0c0,-83 68,-151 151,-151zm6732 -1427l1687 0m-2183 670l794 0m-11235 -2604l-1637 0"/>
 </g>
</svg>
