<?xml version="1.0" encoding="UTF-8"?>
<!DOCTYPE svg PUBLIC "-//W3C//DTD SVG 1.1//EN" "http://www.w3.org/Graphics/SVG/1.1/DTD/svg11.dtd">
<!-- Creator: CorelDRAW X6 -->
<svg xmlns="http://www.w3.org/2000/svg" xml:space="preserve" width="137.467mm" height="137.467mm" version="1.1" style="shape-rendering:geometricPrecision; text-rendering:geometricPrecision; image-rendering:optimizeQuality; fill-rule:evenodd; clip-rule:evenodd"
viewBox="0 0 13045 13045"
 xmlns:xlink="http://www.w3.org/1999/xlink">
 <defs>
  <style type="text/css">
   <![CDATA[
    .str0 {stroke:#2B2A29;stroke-width:189.795}
    .fil0 {fill:none}
   ]]>
  </style>
 </defs>
 <g id="Warstwa_x0020_1">
  <metadata id="CorelCorpID_0Corel-Layer"/>
  <path class="fil0 str0" d="M6523 95c3550,0 6428,2878 6428,6428 0,3550 -2878,6428 -6428,6428 -3550,0 -6428,-2878 -6428,-6428 0,-3550 2878,-6428 6428,-6428zm0 3013c1886,0 3415,1529 3415,3415 0,1886 -1529,3415 -3415,3415 -1886,0 -3415,-1529 -3415,-3415 0,-1886 1529,-3415 3415,-3415zm-2048 -2680l960 2857m158 -3123l434 2982m658 -3047l-38 3013m3227 2757l2959 -572m-3437 3074l2532 1633m-7148 -542l-1542 2589m679 -7733l-2298 -1949m4088 2909c485,0 878,442 878,987 0,545 -393,987 -878,987 -485,0 -878,-442 -878,-987 0,-545 393,-987 878,-987zm2441 1151c367,0 664,334 664,746 0,412 -297,746 -664,746 -367,0 -664,-334 -664,-746 0,-412 297,-746 664,-746zm-2879 675l11 467 -1180 402 -301 716m2344 -1575l35 508 1086 377 377 1707m175 -1880l0 344 -491 108m1116 -444l50 386 905 151m-7239 -1896l-986 1481m9121 -5775l-986 1481m-1349 6867l-986 1481m-5881 -5506c153,0 276,129 276,289 0,159 -124,289 -276,289 -153,0 -277,-129 -277,-289 0,-159 124,-289 277,-289zm8135 -4294c153,0 276,129 276,289 0,159 -124,289 -276,289 -153,0 -277,-129 -277,-289 0,-159 124,-289 277,-289zm-2335 8348c153,0 276,129 276,289 0,159 -124,289 -276,289 -153,0 -277,-129 -277,-289 0,-159 124,-289 277,-289zm-4646 -3194c153,0 277,129 277,289 0,159 -124,289 -277,289 -153,0 -276,-129 -276,-289 0,-159 124,-289 276,-289zm8135 -4294c153,0 277,129 277,289 0,159 -124,289 -277,289 -153,0 -276,-129 -276,-289 0,-159 124,-289 276,-289zm-2335 8348c153,0 277,129 277,289 0,159 -124,289 -277,289 -153,0 -276,-129 -276,-289 0,-159 124,-289 276,-289z"/>
 </g>
</svg>
