<?xml version="1.0" encoding="UTF-8"?>
<!DOCTYPE svg PUBLIC "-//W3C//DTD SVG 1.1//EN" "http://www.w3.org/Graphics/SVG/1.1/DTD/svg11.dtd">
<!-- Creator: CorelDRAW X6 -->
<svg xmlns="http://www.w3.org/2000/svg" xml:space="preserve" width="2480px" height="3508px" version="1.1" style="shape-rendering:geometricPrecision; text-rendering:geometricPrecision; image-rendering:optimizeQuality; fill-rule:evenodd; clip-rule:evenodd"
viewBox="0 0 2480 3507"
 xmlns:xlink="http://www.w3.org/1999/xlink">
 <defs>
  <style type="text/css">
   <![CDATA[
    .fil0 {fill:#2B2A29;fill-rule:nonzero}
   ]]>
  </style>
 </defs>
 <g id="Warstwa_x0020_1">
  <metadata id="CorelCorpID_0Corel-Layer"/>
  <g id="_806920304">
   <g>
    <path class="fil0" d="M1772 1758l-1114 -211 4 -23 1114 211 9 8 -14 15zm14 -15l6 19 -19 -4 14 -15zm-548 -411l-2 -23 4 0 32 8 31 9 30 9 29 10 28 10 26 11 25 11 24 11 23 12 22 12 21 12 20 13 19 13 18 13 18 14 17 14 16 14 15 15 14 15 13 15 12 15 12 16 11 16 10 16 10 16 9 16 8 16 8 16 7 16 6 16 6 17 5 17 -23 7 -5 -16 -6 -16 -6 -16 -7 -16 -7 -16 -8 -16 -8 -15 -9 -15 -10 -15 -10 -15 -11 -15 -12 -15 -13 -14 -13 -14 -14 -14 -15 -14 -16 -14 -17 -13 -18 -13 -19 -13 -20 -12 -21 -12 -22 -12 -23 -11 -24 -11 -25 -11 -26 -10 -27 -10 -28 -9 -29 -9 -30 -9 -32 -8 4 0zm-2 -23l2 0 2 0 -4 0zm-573 215l-4 23 -5 -21 19 -16 19 -15 19 -14 19 -13 20 -13 20 -12 20 -11 20 -10 20 -10 20 -9 20 -9 19 -8 19 -8 19 -7 19 -7 19 -6 19 -6 19 -5 19 -5 18 -4 18 -4 18 -4 18 -3 17 -3 17 -3 17 -3 16 -2 16 -2 16 -2 15 -2 15 -2 14 -2 2 23 -14 2 -15 2 -15 2 -15 2 -16 2 -16 2 -16 3 -17 3 -17 3 -17 3 -18 4 -18 4 -18 4 -18 5 -18 5 -18 5 -19 6 -19 6 -19 7 -19 7 -19 8 -19 8 -19 9 -19 10 -19 10 -19 11 -19 11 -19 12 -19 13 -19 14 -19 14 -19 15 -5 -21zm-4 23l-25 -5 19 -16 5 21z"/>
   </g>
   <g>
    <path class="fil0" d="M1791 1840l-22 -7 9 15 -37 -7 -37 -7 -37 -7 -37 -7 -37 -7 -37 -7 -37 -7 -37 -7 -37 -7 -37 -7 -37 -7 -37 -7 -37 -7 -37 -7 -37 -7 -37 -7 -37 -7 -37 -7 -37 -7 -37 -7 -37 -7 -37 -7 -37 -7 -37 -7 -37 -7 -37 -7 -37 -7 -37 -7 -37 -7 -37 -7 -37 -7 -37 -7 5 -23 37 7 37 7 37 7 37 7 37 7 37 7 37 7 37 7 37 7 37 7 37 7 37 7 37 7 37 7 37 7 37 7 37 7 37 7 37 7 37 7 37 7 37 7 37 7 37 7 37 7 37 7 37 7 37 7 37 7 37 7 37 7 37 7 9 15zm-9 -15l13 3 -4 13 -9 -15zm-590 647l12 -20 -13 1 16 -12 17 -12 18 -13 18 -13 19 -14 19 -14 20 -15 20 -15 21 -16 21 -16 21 -17 21 -17 21 -18 21 -18 21 -19 21 -19 21 -20 20 -20 20 -21 20 -21 19 -22 19 -22 18 -23 17 -23 17 -24 16 -24 15 -25 14 -25 13 -26 12 -26 11 -27 10 -27 22 7 -10 28 -11 28 -12 27 -13 26 -15 26 -15 25 -16 25 -17 24 -18 24 -19 23 -19 23 -20 22 -20 21 -20 21 -21 20 -21 20 -21 19 -21 19 -21 18 -21 18 -21 17 -21 17 -21 16 -21 16 -20 15 -20 15 -20 14 -19 14 -18 13 -18 13 -17 12 -16 12 -13 1zm13 -1l-6 5 -7 -4 13 -1zm-613 -877l-5 23 13 -7 -12 35 -8 34 -5 34 -1 34 2 33 5 33 8 33 11 32 13 32 16 32 18 31 20 31 22 30 23 29 25 29 26 28 27 27 28 27 29 26 29 25 30 24 30 23 30 22 30 22 29 21 29 20 28 19 27 17 26 16 25 15 23 14 22 13 -12 20 -22 -13 -23 -14 -25 -15 -26 -16 -27 -18 -28 -19 -29 -20 -30 -21 -30 -22 -30 -23 -30 -24 -30 -25 -30 -25 -29 -26 -29 -27 -28 -28 -27 -29 -25 -29 -24 -30 -22 -31 -20 -32 -18 -32 -16 -33 -14 -34 -11 -34 -8 -35 -5 -35 -2 -36 1 -36 5 -36 9 -37 13 -37 13 -7zm-13 7l4 -9 10 2 -13 7z"/>
   </g>
   <g>
    <polygon class="fil0" points="1735,1948 561,1744 565,1721 1739,1925 "/>
   </g>
   <g>
    <polygon class="fil0" points="1667,2057 592,1906 595,1883 1671,2033 "/>
   </g>
   <g>
    <path class="fil0" d="M1556 2186l-838 -84 2 -23 838 84 7 20 -10 3zm2 -23l25 2 -18 18 -7 -20zm-10 4l1 -1 17 17 -1 1 -17 -17z"/>
   </g>
   <g>
    <path class="fil0" d="M1374 1466l-24 0 0 0 0 -1 0 -1 0 -1 -1 -1 -1 -2 -1 -2 -2 -2 -2 -2 -2 -2 -3 -2 -3 -2 -3 -2 -4 -2 -4 -2 -4 -2 -4 -2 -5 -2 -5 -2 -5 -1 -5 -1 -6 -1 -6 -1 -6 -1 -6 -1 -6 -1 -6 -1 -7 -1 -7 -1 -7 0 -7 0 -7 0 -7 0 0 -24 8 0 8 0 7 0 7 0 7 1 7 1 7 1 7 1 7 1 7 1 6 1 6 1 6 2 6 2 6 2 5 2 5 2 5 2 5 2 4 2 4 2 4 3 4 3 3 3 3 3 3 3 3 3 2 4 2 4 1 4 1 4 0 4 0 0zm-157 65l0 -24 0 0 7 0 7 0 7 0 7 0 7 -1 7 -1 7 -1 6 -1 6 -1 6 -1 6 -1 6 -1 5 -1 5 -1 5 -2 5 -2 4 -2 4 -2 4 -2 4 -2 3 -2 3 -2 3 -2 2 -2 2 -2 2 -2 1 -2 1 -2 1 -1 0 -1 0 -1 0 -1 24 0 0 4 -1 4 -1 4 -2 4 -2 4 -3 3 -3 3 -3 3 -3 3 -4 3 -4 3 -4 2 -4 2 -5 2 -5 2 -5 2 -5 2 -6 2 -6 2 -6 2 -6 1 -6 1 -7 1 -7 1 -7 1 -7 1 -7 1 -7 1 -7 0 -7 0 -8 0 -8 0 0 0zm-157 -65l24 0 0 0 0 1 0 1 0 1 1 1 1 2 1 2 2 2 2 2 2 2 3 2 3 2 3 2 4 2 4 2 4 2 4 2 5 2 5 2 5 1 5 1 6 1 6 1 6 1 6 1 6 1 7 1 7 1 7 1 7 0 7 0 7 0 7 0 0 24 -8 0 -8 0 -7 0 -7 0 -7 -1 -7 -1 -7 -1 -7 -1 -7 -1 -7 -1 -6 -1 -6 -1 -6 -2 -6 -2 -6 -2 -5 -2 -5 -2 -5 -2 -5 -2 -4 -2 -4 -2 -4 -3 -4 -3 -3 -3 -3 -3 -3 -3 -3 -3 -2 -4 -2 -4 -1 -4 -1 -4 0 -4 0 0zm157 -65l0 24 0 0 -7 0 -7 0 -7 0 -7 0 -7 1 -7 1 -6 1 -6 1 -6 1 -6 1 -6 1 -6 1 -5 1 -5 1 -5 2 -5 2 -4 2 -4 2 -4 2 -4 2 -3 2 -3 2 -3 2 -2 2 -2 2 -2 2 -1 2 -1 2 -1 1 0 1 0 1 0 1 -24 0 0 -4 1 -4 1 -4 2 -4 2 -4 3 -3 3 -3 3 -3 3 -3 4 -3 4 -3 4 -2 4 -2 5 -2 5 -2 5 -2 5 -2 6 -2 6 -2 6 -2 6 -1 6 -1 7 -1 7 -1 7 -1 7 -1 7 -1 7 -1 7 0 7 0 8 0 8 0 0 0z"/>
   </g>
   <g>
    <polygon class="fil0" points="736,1377 727,1355 736,1351 745,1348 754,1344 763,1341 771,1337 779,1334 788,1332 796,1329 804,1326 812,1324 819,1322 827,1320 835,1318 842,1316 850,1315 857,1313 865,1312 872,1311 879,1310 887,1309 894,1308 901,1307 909,1306 916,1306 924,1305 931,1305 938,1305 946,1304 954,1304 961,1304 969,1304 977,1304 977,1328 969,1328 961,1328 954,1328 947,1328 939,1328 932,1329 925,1329 918,1329 911,1330 904,1331 897,1331 890,1332 883,1333 876,1334 869,1335 862,1336 855,1338 847,1339 840,1341 833,1343 826,1345 818,1347 811,1349 803,1351 795,1354 787,1357 779,1360 771,1363 763,1366 754,1369 745,1373 "/>
   </g>
   <g>
    <polygon class="fil0" points="1486,1342 1490,1318 1500,1320 1509,1322 1518,1324 1527,1326 1536,1328 1545,1330 1553,1332 1561,1334 1570,1337 1577,1339 1585,1342 1593,1344 1600,1347 1607,1350 1615,1352 1622,1355 1629,1358 1635,1361 1642,1365 1649,1368 1656,1371 1662,1375 1669,1378 1675,1382 1682,1386 1688,1389 1695,1393 1701,1397 1708,1401 1715,1406 1721,1410 1728,1414 1715,1434 1708,1430 1702,1426 1695,1421 1689,1417 1683,1413 1676,1410 1670,1406 1664,1402 1657,1399 1651,1395 1645,1392 1638,1389 1632,1386 1626,1383 1619,1380 1612,1377 1606,1374 1599,1372 1592,1369 1585,1366 1578,1364 1570,1362 1563,1359 1555,1357 1547,1355 1539,1353 1531,1351 1522,1349 1513,1347 1504,1345 1495,1343 "/>
   </g>
   <g>
    <polygon class="fil0" points="1500,1497 1513,1478 1522,1483 1530,1489 1537,1495 1545,1501 1552,1506 1559,1512 1566,1517 1573,1523 1579,1529 1586,1534 1592,1540 1598,1545 1604,1551 1609,1557 1615,1562 1620,1568 1626,1574 1631,1579 1636,1585 1641,1591 1645,1597 1650,1603 1655,1609 1660,1615 1664,1621 1669,1628 1673,1634 1678,1641 1682,1647 1687,1654 1691,1661 1696,1668 1676,1680 1671,1674 1667,1667 1663,1660 1658,1654 1654,1648 1649,1641 1645,1635 1641,1629 1636,1623 1632,1618 1627,1612 1622,1606 1618,1601 1613,1595 1608,1590 1603,1584 1598,1579 1593,1573 1587,1568 1582,1562 1576,1557 1570,1552 1564,1546 1558,1541 1551,1536 1545,1530 1538,1525 1531,1519 1523,1514 1516,1508 1508,1503 "/>
   </g>
   <g>
    <polygon class="fil0" points="1747,1525 1759,1505 1768,1510 1776,1516 1784,1521 1792,1526 1799,1531 1807,1537 1814,1542 1821,1547 1827,1552 1834,1558 1840,1563 1847,1568 1853,1574 1859,1579 1864,1584 1870,1590 1875,1595 1881,1601 1886,1606 1891,1612 1896,1617 1901,1623 1906,1629 1911,1635 1916,1641 1921,1647 1926,1653 1931,1659 1935,1666 1940,1672 1945,1679 1950,1685 1930,1699 1926,1692 1921,1686 1916,1680 1912,1674 1907,1667 1902,1661 1898,1656 1893,1650 1888,1644 1884,1639 1879,1633 1874,1628 1869,1622 1864,1617 1859,1612 1853,1607 1848,1601 1843,1596 1837,1591 1831,1586 1825,1581 1819,1576 1813,1571 1806,1566 1800,1561 1793,1556 1786,1551 1778,1546 1771,1541 1763,1535 1755,1530 "/>
   </g>
   <g>
    <polygon class="fil0" points="591,1495 576,1477 583,1471 589,1466 596,1461 602,1456 609,1452 615,1447 622,1443 628,1438 635,1434 641,1430 648,1426 654,1423 661,1419 667,1416 673,1412 680,1409 686,1406 693,1403 699,1400 706,1398 712,1395 718,1393 725,1391 731,1389 738,1387 745,1385 751,1383 758,1381 764,1380 771,1379 778,1377 784,1376 788,1400 782,1401 776,1402 769,1403 763,1404 757,1406 751,1408 745,1409 739,1411 732,1413 726,1415 720,1417 714,1420 708,1422 702,1425 696,1428 690,1430 684,1433 678,1437 672,1440 666,1443 660,1447 654,1450 647,1454 641,1458 635,1462 629,1467 623,1471 616,1475 610,1480 604,1485 597,1490 "/>
   </g>
   <g>
    <path class="fil0" d="M1257 1352l24 0 0 118 -24 0 0 -118zm0 -141l24 0 0 118 -24 0 0 -118zm0 -141l24 0 0 118 -24 0 0 -118zm24 -51l0 28 -24 0 0 -28 0 0 24 0zm-24 0l0 0 0 0 0 0zm29 -91l19 14 -2 3 -4 6 -4 7 -4 8 -3 9 -3 10 -2 11 -1 12 -1 13 -24 0 1 -14 2 -13 2 -12 3 -11 4 -11 4 -10 5 -9 6 -8 2 -3zm142 1l-20 13 0 -1 -3 -4 -3 -3 -4 -3 -4 -3 -4 -3 -5 -2 -5 -2 -5 -2 -6 -1 -6 -1 -6 0 -6 0 -6 1 -6 1 -6 2 -6 2 -6 3 -3 2 -14 -19 5 -3 8 -4 8 -3 8 -2 8 -2 8 -1 8 0 8 0 8 1 7 1 7 2 7 3 7 3 6 4 6 4 5 5 5 5 4 6 0 1z"/>
   </g>
   <g>
    <path class="fil0" d="M1184 1352l0 118 -24 0 0 -118 24 0zm0 -141l0 118 -24 0 0 -118 24 0zm0 -141l0 118 -24 0 0 -118 24 0zm-24 -51l24 0 0 0 0 28 -24 0 0 -28zm24 0l0 0 0 0 0 0zm-29 -91l2 3 6 8 5 9 4 10 4 11 3 11 2 12 2 13 1 14 -24 0 -1 -13 -1 -12 -2 -11 -3 -10 -3 -9 -4 -8 -4 -7 -4 -6 -2 -3 19 -14zm-142 1l0 -1 4 -6 5 -5 5 -5 6 -4 6 -4 7 -3 7 -3 7 -2 7 -1 8 -1 8 0 8 0 8 1 8 2 8 2 8 3 8 4 5 3 -14 19 -3 -2 -6 -3 -6 -2 -6 -2 -6 -1 -6 -1 -6 0 -6 0 -6 1 -6 1 -5 2 -5 2 -5 2 -4 3 -4 3 -4 3 -3 3 -3 4 0 1 -20 -13z"/>
   </g>
   <g>
    <path class="fil0" d="M1305 1350l24 0 0 118 -24 0 0 -118zm0 -141l24 0 0 118 -24 0 0 -118zm24 -53l0 30 -24 0 0 -30 0 0 24 0zm-24 0l0 0 0 0 0 0zm45 -85l10 21 -1 1 -4 2 -3 2 -3 3 -3 3 -3 4 -3 4 -3 5 -2 5 -2 6 -2 6 -1 7 -1 8 0 8 -24 0 0 -10 1 -9 2 -9 2 -8 3 -8 3 -7 4 -6 4 -6 4 -5 5 -5 5 -4 5 -4 6 -3 1 -1zm85 35l-23 4 -1 -2 -1 -2 -1 -2 -2 -2 -2 -2 -2 -2 -3 -2 -3 -2 -3 -1 -3 -1 -3 -1 -4 -1 -4 0 -3 0 0 -24 5 0 6 1 5 1 5 2 5 2 5 2 5 3 4 3 4 4 4 4 3 4 3 5 2 5 1 5z"/>
   </g>
   <g>
    <path class="fil0" d="M1136 1350l0 118 -24 0 0 -118 24 0zm0 -141l0 118 -24 0 0 -118 24 0zm-24 -53l24 0 0 0 0 30 -24 0 0 -30zm24 0l0 0 0 0 0 0zm-45 -84l1 1 6 3 5 4 5 4 5 5 4 5 4 6 4 6 3 7 3 8 2 8 2 9 1 9 0 10 -24 0 0 -8 -1 -8 -1 -7 -2 -6 -2 -6 -2 -5 -3 -5 -3 -4 -3 -4 -3 -3 -3 -3 -3 -2 -4 -2 -1 -1 10 -21zm-85 35l1 -5 2 -5 3 -5 3 -4 4 -4 4 -4 4 -3 5 -3 5 -2 5 -2 5 -2 5 -1 6 -1 5 0 0 24 -3 0 -4 0 -4 1 -3 1 -3 1 -3 1 -3 2 -3 2 -2 2 -2 2 -2 2 -1 2 -1 2 -1 2 -23 -4z"/>
   </g>
   <g>
    <path class="fil0" d="M1209 1355l24 0 0 118 -24 0 0 -118zm0 -141l24 0 0 118 -24 0 0 -118zm0 -141l24 0 0 118 -24 0 0 -118zm0 -141l24 0 0 118 -24 0 0 -118zm0 -141l24 0 0 118 -24 0 0 -118zm24 -64l0 41 -24 0 0 -41 20 -8 3 8zm-3 -8l3 3 0 5 -3 -8zm-3 -3l3 3 -17 17 -3 -3 17 -17z"/>
   </g>
   <g>
    <polygon class="fil0" points="865,2369 295,2238 300,2215 870,2346 "/>
   </g>
   <g>
    <polygon class="fil0" points="624,2378 466,2354 470,2330 628,2354 "/>
   </g>
   <g>
    <path class="fil0" d="M1850 2573l-401 -83 5 -23 401 83 -2 23 -2 0zm2 0l-1 0 -1 0 2 0zm4 0l-4 0 0 -24 4 0 0 24z"/>
   </g>
   <g>
    <path class="fil0" d="M2079 1904l-231 -41 4 -23 231 41 -2 23 -2 0zm2 0l-1 0 -1 0 2 0zm2 0l-2 0 -1 -24 2 0 1 24z"/>
   </g>
   <g>
    <polygon class="fil0" points="696,1683 692,1707 688,1706 685,1706 682,1707 678,1708 675,1709 672,1710 669,1712 666,1714 663,1717 661,1720 658,1723 655,1727 653,1731 651,1735 648,1739 646,1743 644,1748 643,1753 641,1757 640,1762 639,1767 638,1772 637,1776 636,1781 636,1785 636,1789 636,1793 636,1797 636,1800 637,1803 638,1805 638,1807 617,1816 615,1812 614,1808 613,1803 613,1798 612,1794 612,1789 613,1783 613,1778 614,1773 615,1767 616,1762 617,1756 619,1751 620,1745 622,1740 625,1734 627,1729 630,1723 633,1718 636,1714 639,1709 643,1704 647,1700 651,1696 656,1693 661,1690 666,1687 671,1685 677,1684 683,1683 689,1683 "/>
   </g>
   <g>
    <polygon class="fil0" points="960,2083 960,2106 956,2106 953,2107 950,2108 948,2109 946,2110 944,2112 942,2114 941,2117 939,2120 938,2124 937,2128 936,2132 936,2137 935,2142 935,2148 935,2153 936,2159 936,2165 937,2171 938,2176 940,2182 941,2188 943,2194 944,2199 946,2204 948,2210 950,2214 952,2219 954,2223 956,2226 958,2230 960,2232 942,2247 939,2243 936,2239 934,2234 931,2229 928,2224 926,2218 924,2213 922,2207 920,2200 918,2194 917,2188 915,2181 914,2174 913,2168 912,2161 912,2155 912,2148 912,2142 912,2135 913,2129 914,2123 915,2117 917,2112 920,2106 923,2101 926,2096 931,2092 936,2089 941,2086 947,2084 954,2083 "/>
   </g>
   <g>
    <polygon class="fil0" points="700,1854 697,1877 693,1877 691,1877 688,1877 686,1878 684,1878 682,1880 680,1881 678,1883 676,1885 674,1887 673,1889 671,1892 670,1895 669,1899 668,1902 667,1906 666,1910 665,1914 665,1918 665,1922 664,1926 664,1930 665,1934 665,1938 665,1942 666,1945 667,1949 667,1952 668,1954 669,1957 670,1959 671,1961 651,1973 649,1970 647,1966 646,1962 645,1958 644,1954 643,1949 642,1945 641,1940 641,1935 641,1931 641,1926 641,1921 641,1916 642,1911 643,1906 644,1901 645,1896 646,1891 648,1887 650,1882 652,1878 655,1874 658,1870 661,1866 665,1863 669,1860 673,1857 678,1855 683,1854 689,1853 694,1853 "/>
   </g>
   <g>
    <polygon class="fil0" points="766,1696 762,1719 759,1719 755,1719 752,1720 749,1720 746,1721 743,1723 740,1725 737,1727 734,1730 731,1733 728,1736 726,1739 723,1743 721,1747 719,1752 717,1756 715,1761 713,1765 712,1770 710,1775 709,1780 708,1784 707,1789 707,1793 707,1798 706,1802 706,1806 707,1809 707,1812 707,1815 708,1818 709,1819 687,1829 685,1825 684,1820 684,1816 683,1811 683,1806 683,1801 683,1796 683,1791 684,1785 685,1780 686,1774 687,1769 689,1763 691,1758 693,1752 695,1747 697,1741 700,1736 703,1731 706,1726 710,1721 713,1717 717,1713 722,1709 726,1705 731,1702 736,1700 742,1698 748,1696 754,1696 760,1695 "/>
   </g>
   <g>
    <polygon class="fil0" points="1036,2087 1036,2110 1032,2110 1029,2111 1026,2112 1024,2113 1022,2114 1020,2116 1018,2118 1017,2121 1015,2124 1014,2128 1013,2132 1012,2137 1012,2142 1011,2147 1011,2152 1011,2158 1012,2163 1012,2169 1013,2175 1014,2181 1016,2187 1017,2192 1019,2198 1020,2203 1022,2209 1024,2214 1026,2218 1028,2223 1030,2227 1032,2231 1034,2234 1036,2236 1018,2251 1015,2247 1012,2243 1010,2238 1007,2233 1004,2228 1002,2223 1000,2217 998,2211 996,2205 994,2198 993,2192 991,2185 990,2179 989,2172 988,2165 988,2159 988,2152 988,2146 988,2139 989,2133 990,2127 991,2121 993,2116 996,2110 999,2105 1002,2101 1007,2096 1012,2093 1017,2090 1023,2088 1030,2087 "/>
   </g>
   <g>
    <polygon class="fil0" points="764,1865 761,1888 757,1888 754,1888 752,1888 750,1889 748,1890 746,1891 744,1892 742,1894 740,1896 738,1898 737,1901 735,1903 734,1907 733,1910 732,1913 731,1917 730,1921 729,1925 729,1929 728,1933 728,1937 728,1941 729,1945 729,1949 729,1953 730,1956 731,1960 731,1963 732,1966 733,1968 734,1970 735,1972 715,1984 713,1981 711,1977 710,1973 709,1969 708,1965 707,1961 706,1956 705,1951 705,1947 705,1942 705,1937 705,1932 705,1927 706,1922 707,1917 708,1912 709,1907 710,1902 712,1898 714,1893 716,1889 719,1885 722,1881 725,1877 729,1874 733,1871 737,1868 742,1866 747,1865 753,1864 758,1864 "/>
   </g>
   <g>
    <polygon class="fil0" points="837,1709 833,1732 829,1732 826,1732 822,1732 819,1733 816,1734 813,1736 810,1738 807,1740 804,1742 801,1745 799,1749 796,1752 794,1756 791,1760 789,1764 787,1769 785,1773 784,1778 782,1783 781,1787 780,1792 779,1797 778,1801 777,1806 777,1810 777,1814 777,1818 777,1822 777,1825 778,1828 778,1830 779,1832 757,1841 756,1837 755,1833 754,1828 753,1824 753,1819 753,1814 753,1809 754,1803 755,1798 755,1793 757,1787 758,1782 759,1776 761,1770 763,1765 765,1759 768,1754 771,1749 774,1744 777,1739 780,1734 784,1730 788,1725 792,1722 797,1718 802,1715 807,1712 812,1710 818,1709 824,1708 830,1708 "/>
   </g>
   <g>
    <polygon class="fil0" points="1112,2091 1112,2115 1108,2115 1105,2115 1102,2116 1100,2117 1098,2119 1096,2120 1094,2123 1093,2125 1091,2129 1090,2132 1089,2136 1088,2141 1088,2146 1087,2151 1087,2156 1087,2162 1088,2167 1088,2173 1089,2179 1090,2185 1092,2191 1093,2196 1095,2202 1096,2208 1098,2213 1100,2218 1102,2223 1104,2227 1106,2231 1108,2235 1110,2238 1112,2241 1094,2256 1091,2252 1088,2247 1086,2243 1083,2238 1080,2232 1078,2227 1076,2221 1074,2215 1072,2209 1070,2202 1069,2196 1067,2189 1066,2183 1065,2176 1064,2170 1064,2163 1064,2156 1064,2150 1064,2144 1065,2137 1066,2131 1067,2126 1069,2120 1072,2115 1075,2109 1078,2105 1083,2101 1088,2097 1093,2094 1099,2092 1106,2091 "/>
   </g>
   <g>
    <polygon class="fil0" points="828,1876 824,1899 821,1899 818,1899 816,1899 814,1900 812,1901 810,1902 808,1903 806,1905 804,1907 802,1909 801,1912 799,1915 798,1918 797,1921 795,1925 795,1928 794,1932 793,1936 793,1940 792,1944 792,1948 792,1952 792,1956 793,1960 793,1964 794,1967 794,1971 795,1974 796,1977 797,1979 798,1981 799,1983 779,1996 777,1992 775,1988 774,1984 773,1980 771,1976 771,1972 770,1967 769,1962 769,1958 769,1953 769,1948 769,1943 769,1938 770,1933 771,1928 771,1923 773,1918 774,1913 776,1909 778,1904 780,1900 783,1896 786,1892 789,1888 793,1885 797,1882 801,1879 806,1877 811,1876 817,1875 822,1875 "/>
   </g>
   <g>
    <polygon class="fil0" points="907,1721 903,1745 900,1744 896,1744 893,1745 890,1746 887,1747 884,1748 881,1750 878,1752 875,1755 872,1758 869,1761 867,1765 864,1769 862,1773 860,1777 858,1781 856,1786 854,1791 853,1795 851,1800 850,1805 849,1810 848,1814 848,1819 847,1823 847,1827 847,1831 847,1834 848,1838 848,1841 849,1843 850,1845 828,1854 826,1850 825,1846 824,1841 824,1836 824,1832 824,1827 824,1821 824,1816 825,1811 826,1805 827,1800 828,1794 830,1789 832,1783 834,1777 836,1772 838,1767 841,1761 844,1756 847,1751 851,1747 854,1742 858,1738 862,1734 867,1731 872,1728 877,1725 883,1723 888,1722 895,1721 901,1721 "/>
   </g>
   <g>
    <polygon class="fil0" points="1188,2095 1187,2119 1184,2119 1181,2119 1178,2120 1176,2121 1174,2123 1172,2125 1170,2127 1169,2130 1167,2133 1166,2136 1165,2141 1164,2145 1164,2150 1163,2155 1163,2160 1163,2166 1164,2172 1164,2177 1165,2183 1166,2189 1168,2195 1169,2201 1171,2206 1172,2212 1174,2217 1176,2222 1178,2227 1180,2231 1182,2235 1184,2239 1186,2242 1188,2245 1170,2260 1167,2256 1164,2252 1162,2247 1159,2242 1156,2237 1154,2231 1152,2225 1150,2219 1148,2213 1146,2207 1145,2200 1143,2194 1142,2187 1141,2180 1140,2174 1140,2167 1140,2161 1140,2154 1140,2148 1141,2142 1142,2136 1143,2130 1145,2124 1148,2119 1151,2114 1154,2109 1159,2105 1164,2101 1169,2098 1175,2096 1182,2095 "/>
   </g>
   <g>
    <polygon class="fil0" points="892,1887 888,1910 885,1910 882,1910 880,1910 878,1911 875,1912 873,1913 872,1914 870,1916 868,1918 866,1920 865,1923 863,1926 862,1929 861,1932 859,1936 858,1939 858,1943 857,1947 857,1951 856,1955 856,1959 856,1963 856,1967 857,1971 857,1975 858,1978 858,1982 859,1985 860,1988 861,1990 862,1992 863,1994 843,2007 841,2003 839,1999 838,1995 836,1991 835,1987 834,1983 834,1978 833,1973 833,1969 833,1964 833,1959 833,1954 833,1949 834,1944 834,1939 835,1934 837,1929 838,1924 840,1920 842,1915 844,1911 847,1907 850,1903 853,1899 857,1896 861,1893 865,1890 870,1888 875,1887 881,1886 886,1886 "/>
   </g>
   <g>
    <polygon class="fil0" points="978,1734 974,1757 970,1757 967,1757 963,1757 960,1758 957,1759 954,1761 951,1763 948,1765 945,1768 942,1771 940,1774 937,1777 935,1781 932,1785 930,1790 928,1794 926,1799 924,1803 923,1808 922,1813 920,1817 920,1822 919,1827 918,1831 918,1836 918,1840 918,1844 918,1847 918,1850 919,1853 919,1856 920,1857 898,1867 897,1862 896,1858 895,1854 894,1849 894,1844 894,1839 894,1834 895,1829 895,1823 896,1818 897,1812 899,1807 900,1801 902,1796 904,1790 906,1785 909,1779 911,1774 914,1769 918,1764 921,1759 925,1755 929,1751 933,1747 938,1743 942,1740 948,1738 953,1736 959,1734 965,1733 971,1733 "/>
   </g>
   <g>
    <polygon class="fil0" points="1264,2099 1263,2123 1260,2123 1257,2124 1254,2124 1252,2126 1250,2127 1248,2129 1246,2131 1245,2134 1243,2137 1242,2141 1241,2145 1240,2149 1240,2154 1239,2159 1239,2165 1239,2170 1240,2176 1240,2182 1241,2187 1242,2193 1244,2199 1245,2205 1246,2210 1248,2216 1250,2221 1252,2226 1254,2231 1256,2236 1258,2240 1260,2243 1262,2246 1264,2249 1246,2264 1243,2260 1240,2256 1238,2251 1235,2246 1232,2241 1230,2235 1228,2229 1226,2223 1224,2217 1222,2211 1221,2204 1219,2198 1218,2191 1217,2185 1216,2178 1216,2171 1216,2165 1216,2158 1216,2152 1217,2146 1218,2140 1219,2134 1221,2128 1224,2123 1227,2118 1230,2113 1235,2109 1240,2105 1245,2103 1251,2101 1258,2100 "/>
   </g>
   <g>
    <polygon class="fil0" points="956,1898 952,1921 949,1921 946,1921 944,1921 941,1922 939,1923 937,1924 935,1925 934,1927 932,1929 930,1931 929,1934 927,1937 926,1940 924,1943 923,1947 922,1950 922,1954 921,1958 921,1962 920,1966 920,1970 920,1974 920,1978 921,1982 921,1986 922,1990 922,1993 923,1996 924,1999 925,2001 926,2003 927,2005 907,2018 905,2014 903,2010 902,2007 900,2002 899,1998 898,1994 898,1989 897,1985 897,1980 897,1975 896,1970 897,1965 897,1960 898,1955 898,1950 899,1945 901,1940 902,1936 904,1931 906,1926 908,1922 911,1918 914,1914 917,1910 921,1907 925,1904 929,1901 934,1899 939,1898 945,1897 950,1897 "/>
   </g>
   <g>
    <polygon class="fil0" points="1048,1747 1044,1770 1040,1770 1037,1770 1034,1770 1031,1771 1027,1772 1024,1774 1021,1775 1018,1778 1016,1780 1013,1783 1010,1787 1007,1790 1005,1794 1003,1798 1000,1802 998,1807 997,1811 995,1816 993,1821 992,1825 991,1830 990,1835 989,1839 989,1844 988,1848 988,1852 988,1856 988,1860 989,1863 989,1866 990,1868 990,1870 969,1879 967,1875 966,1871 965,1866 965,1862 964,1857 964,1852 965,1847 965,1841 966,1836 967,1831 968,1825 969,1819 971,1814 973,1808 975,1803 977,1797 979,1792 982,1787 985,1782 988,1777 991,1772 995,1768 999,1763 1003,1760 1008,1756 1013,1753 1018,1750 1024,1748 1029,1747 1035,1746 1042,1746 "/>
   </g>
   <g>
    <polygon class="fil0" points="1340,2104 1339,2127 1336,2127 1333,2128 1330,2129 1328,2130 1326,2131 1324,2133 1322,2135 1321,2138 1319,2141 1318,2145 1317,2149 1316,2153 1316,2158 1315,2163 1315,2169 1315,2174 1316,2180 1316,2186 1317,2192 1318,2197 1320,2203 1321,2209 1322,2215 1324,2220 1326,2225 1328,2231 1330,2235 1332,2240 1334,2244 1336,2247 1338,2251 1340,2253 1322,2268 1319,2264 1316,2260 1314,2255 1311,2250 1308,2245 1306,2239 1304,2234 1302,2228 1300,2221 1298,2215 1296,2209 1295,2202 1294,2195 1293,2189 1292,2182 1292,2176 1292,2169 1292,2163 1292,2156 1293,2150 1294,2144 1295,2138 1297,2133 1300,2127 1303,2122 1306,2117 1311,2113 1316,2110 1321,2107 1327,2105 1334,2104 "/>
   </g>
   <g>
    <polygon class="fil0" points="1020,1909 1016,1932 1013,1932 1010,1932 1008,1932 1005,1933 1003,1934 1001,1935 999,1936 998,1938 996,1940 994,1942 992,1945 991,1948 990,1951 988,1954 987,1958 986,1962 986,1965 985,1969 985,1973 984,1977 984,1981 984,1985 984,1989 985,1993 985,1997 986,2001 986,2004 987,2007 988,2010 989,2012 990,2014 991,2016 971,2029 969,2025 967,2022 966,2018 964,2014 963,2009 962,2005 962,2000 961,1996 961,1991 960,1986 960,1981 961,1976 961,1971 962,1966 962,1961 963,1956 965,1951 966,1947 968,1942 970,1937 972,1933 975,1929 978,1925 981,1921 985,1918 989,1915 993,1913 998,1911 1003,1909 1009,1908 1014,1908 "/>
   </g>
   <g>
    <polygon class="fil0" points="1118,1759 1115,1783 1111,1782 1107,1782 1104,1783 1101,1784 1098,1785 1095,1786 1092,1788 1089,1790 1086,1793 1083,1796 1081,1799 1078,1803 1075,1807 1073,1811 1071,1815 1069,1819 1067,1824 1065,1829 1064,1833 1062,1838 1061,1843 1060,1847 1060,1852 1059,1857 1059,1861 1059,1865 1059,1869 1059,1872 1059,1876 1060,1878 1060,1881 1061,1883 1039,1892 1038,1888 1036,1883 1036,1879 1035,1874 1035,1869 1035,1864 1035,1859 1036,1854 1036,1849 1037,1843 1038,1838 1040,1832 1041,1827 1043,1821 1045,1815 1047,1810 1050,1805 1052,1799 1055,1794 1058,1789 1062,1785 1066,1780 1070,1776 1074,1772 1078,1769 1083,1766 1088,1763 1094,1761 1100,1760 1106,1759 1112,1759 "/>
   </g>
   <g>
    <polygon class="fil0" points="1084,1920 1080,1943 1077,1943 1074,1943 1072,1943 1069,1944 1067,1945 1065,1946 1063,1947 1062,1949 1060,1951 1058,1953 1056,1956 1055,1959 1054,1962 1052,1965 1051,1969 1050,1973 1050,1976 1049,1980 1048,1984 1048,1988 1048,1993 1048,1997 1048,2001 1048,2004 1049,2008 1049,2012 1050,2015 1051,2018 1052,2021 1053,2023 1054,2026 1055,2027 1035,2040 1033,2036 1031,2033 1030,2029 1028,2025 1027,2020 1026,2016 1026,2011 1025,2007 1025,2002 1024,1997 1024,1992 1025,1987 1025,1982 1025,1977 1026,1972 1027,1967 1028,1962 1030,1958 1032,1953 1034,1949 1036,1944 1038,1940 1041,1936 1045,1932 1048,1929 1053,1926 1057,1924 1062,1922 1067,1920 1072,1920 1078,1920 "/>
   </g>
   <g>
    <polygon class="fil0" points="1189,1772 1185,1795 1181,1795 1178,1795 1175,1795 1171,1796 1168,1797 1165,1799 1162,1801 1159,1803 1156,1806 1154,1809 1151,1812 1148,1815 1146,1819 1144,1823 1141,1828 1139,1832 1137,1837 1136,1841 1134,1846 1133,1851 1132,1855 1131,1860 1130,1865 1130,1869 1129,1874 1129,1878 1129,1882 1129,1885 1129,1888 1130,1891 1131,1893 1131,1895 1110,1905 1108,1900 1107,1896 1106,1892 1106,1887 1105,1882 1105,1877 1106,1872 1106,1867 1107,1861 1108,1856 1109,1850 1110,1845 1112,1839 1113,1834 1115,1828 1118,1823 1120,1817 1123,1812 1126,1807 1129,1802 1132,1797 1136,1793 1140,1789 1144,1785 1149,1781 1154,1778 1159,1776 1164,1774 1170,1772 1176,1771 1182,1771 "/>
   </g>
   <g>
    <polygon class="fil0" points="1148,1931 1144,1955 1141,1954 1138,1954 1136,1955 1133,1955 1131,1956 1129,1957 1127,1958 1125,1960 1124,1962 1122,1964 1120,1967 1119,1970 1117,1973 1116,1976 1115,1980 1114,1984 1113,1988 1113,1991 1112,1996 1112,2000 1112,2004 1112,2008 1112,2012 1112,2015 1113,2019 1113,2023 1114,2026 1115,2029 1116,2032 1117,2034 1118,2037 1119,2038 1099,2051 1097,2047 1095,2044 1094,2040 1092,2036 1091,2031 1090,2027 1089,2022 1089,2018 1089,2013 1088,2008 1088,2003 1088,1998 1089,1993 1089,1988 1090,1983 1091,1978 1092,1974 1094,1969 1096,1964 1098,1960 1100,1955 1102,1951 1105,1947 1109,1943 1112,1940 1116,1937 1121,1935 1126,1933 1131,1931 1136,1931 1142,1931 "/>
   </g>
   <g>
    <polygon class="fil0" points="1259,1785 1255,1808 1252,1808 1248,1808 1245,1808 1242,1809 1239,1810 1236,1812 1233,1813 1230,1816 1227,1818 1224,1821 1221,1825 1219,1828 1216,1832 1214,1836 1212,1840 1210,1845 1208,1849 1206,1854 1205,1859 1203,1863 1202,1868 1201,1873 1201,1877 1200,1882 1200,1886 1199,1890 1199,1894 1200,1898 1200,1901 1200,1904 1201,1906 1202,1908 1180,1917 1178,1913 1177,1909 1177,1904 1176,1900 1176,1895 1176,1890 1176,1885 1176,1879 1177,1874 1178,1869 1179,1863 1181,1857 1182,1852 1184,1846 1186,1841 1188,1835 1191,1830 1193,1825 1196,1820 1199,1815 1203,1810 1206,1806 1210,1801 1215,1798 1219,1794 1224,1791 1229,1788 1235,1786 1241,1785 1247,1784 1253,1784 "/>
   </g>
   <g>
    <polygon class="fil0" points="1212,1942 1208,1966 1205,1965 1202,1965 1200,1966 1197,1966 1195,1967 1193,1968 1191,1970 1189,1971 1188,1973 1186,1976 1184,1978 1183,1981 1181,1984 1180,1987 1179,1991 1178,1995 1177,1999 1177,2003 1176,2007 1176,2011 1176,2015 1176,2019 1176,2023 1176,2027 1177,2030 1177,2034 1178,2037 1179,2040 1180,2043 1181,2046 1182,2048 1183,2049 1163,2062 1161,2058 1159,2055 1157,2051 1156,2047 1155,2042 1154,2038 1153,2033 1153,2029 1152,2024 1152,2019 1152,2014 1152,2009 1153,2004 1153,1999 1154,1994 1155,1989 1156,1985 1158,1980 1159,1975 1161,1971 1164,1966 1166,1962 1169,1958 1173,1955 1176,1951 1180,1948 1185,1946 1190,1944 1195,1942 1200,1942 1206,1942 "/>
   </g>
   <g>
    <polygon class="fil0" points="1330,1797 1326,1821 1322,1820 1319,1820 1315,1821 1312,1822 1309,1823 1306,1824 1303,1826 1300,1828 1297,1831 1295,1834 1292,1837 1289,1841 1287,1845 1284,1849 1282,1853 1280,1857 1278,1862 1277,1867 1275,1871 1274,1876 1273,1881 1272,1885 1271,1890 1270,1895 1270,1899 1270,1903 1270,1907 1270,1910 1270,1914 1271,1916 1271,1919 1272,1921 1250,1930 1249,1926 1248,1921 1247,1917 1246,1912 1246,1907 1246,1902 1246,1897 1247,1892 1248,1887 1248,1881 1250,1876 1251,1870 1252,1865 1254,1859 1256,1853 1259,1848 1261,1843 1264,1837 1267,1832 1270,1827 1273,1823 1277,1818 1281,1814 1285,1810 1290,1807 1295,1804 1300,1801 1305,1799 1311,1798 1317,1797 1323,1797 "/>
   </g>
   <g>
    <polygon class="fil0" points="1276,1953 1272,1977 1269,1976 1266,1976 1263,1977 1261,1977 1259,1978 1257,1979 1255,1981 1253,1982 1252,1984 1250,1987 1248,1989 1247,1992 1245,1995 1244,1999 1243,2002 1242,2006 1241,2010 1241,2014 1240,2018 1240,2022 1240,2026 1240,2030 1240,2034 1240,2038 1241,2041 1241,2045 1242,2048 1243,2051 1244,2054 1245,2057 1246,2059 1247,2060 1227,2073 1225,2070 1223,2066 1221,2062 1220,2058 1219,2054 1218,2049 1217,2045 1217,2040 1216,2035 1216,2030 1216,2025 1216,2020 1217,2015 1217,2010 1218,2005 1219,2001 1220,1996 1222,1991 1223,1986 1225,1982 1228,1977 1230,1973 1233,1969 1237,1966 1240,1962 1244,1959 1249,1957 1254,1955 1259,1953 1264,1953 1270,1953 "/>
   </g>
   <g>
    <polygon class="fil0" points="1400,1810 1396,1833 1393,1833 1389,1833 1386,1833 1383,1834 1380,1835 1377,1837 1374,1839 1371,1841 1368,1844 1365,1847 1362,1850 1360,1853 1357,1857 1355,1861 1353,1866 1351,1870 1349,1875 1347,1879 1346,1884 1344,1889 1343,1893 1342,1898 1341,1903 1341,1907 1340,1912 1340,1916 1340,1919 1340,1923 1341,1926 1341,1929 1342,1931 1343,1933 1321,1943 1319,1938 1318,1934 1317,1930 1317,1925 1317,1920 1317,1915 1317,1910 1317,1905 1318,1899 1319,1894 1320,1888 1321,1883 1323,1877 1325,1872 1327,1866 1329,1861 1331,1855 1334,1850 1337,1845 1340,1840 1344,1835 1347,1831 1351,1827 1356,1823 1360,1819 1365,1816 1370,1814 1376,1812 1382,1810 1388,1809 1394,1809 "/>
   </g>
   <g>
    <polygon class="fil0" points="1340,1964 1336,1988 1333,1987 1330,1987 1327,1988 1325,1988 1323,1989 1321,1990 1319,1992 1317,1993 1315,1995 1314,1998 1312,2000 1311,2003 1309,2006 1308,2010 1307,2013 1306,2017 1305,2021 1305,2025 1304,2029 1304,2033 1304,2037 1304,2041 1304,2045 1304,2049 1305,2052 1305,2056 1306,2059 1307,2062 1308,2065 1309,2068 1310,2070 1311,2071 1291,2084 1289,2081 1287,2077 1285,2073 1284,2069 1283,2065 1282,2060 1281,2056 1281,2051 1280,2046 1280,2041 1280,2036 1280,2031 1281,2026 1281,2022 1282,2017 1283,2012 1284,2007 1286,2002 1287,1997 1289,1993 1292,1988 1294,1984 1297,1980 1300,1977 1304,1973 1308,1970 1313,1968 1318,1966 1323,1965 1328,1964 1334,1964 "/>
   </g>
   <g>
    <polygon class="fil0" points="1471,1823 1467,1846 1463,1846 1460,1846 1456,1846 1453,1847 1450,1848 1447,1849 1444,1851 1441,1854 1438,1856 1435,1859 1433,1862 1430,1866 1428,1870 1425,1874 1423,1878 1421,1883 1419,1887 1417,1892 1416,1897 1415,1901 1414,1906 1413,1911 1412,1915 1411,1920 1411,1924 1411,1928 1411,1932 1411,1936 1411,1939 1412,1942 1412,1944 1413,1946 1391,1955 1390,1951 1389,1947 1388,1942 1387,1938 1387,1933 1387,1928 1387,1923 1388,1917 1388,1912 1389,1906 1390,1901 1392,1895 1393,1890 1395,1884 1397,1879 1399,1873 1402,1868 1405,1863 1407,1858 1411,1853 1414,1848 1418,1844 1422,1839 1426,1835 1431,1832 1435,1829 1441,1826 1446,1824 1452,1823 1458,1822 1464,1822 "/>
   </g>
   <g>
    <polygon class="fil0" points="1404,1975 1400,1999 1397,1998 1394,1999 1391,1999 1389,1999 1387,2000 1385,2001 1383,2003 1381,2004 1379,2006 1378,2009 1376,2011 1375,2014 1373,2017 1372,2021 1371,2024 1370,2028 1369,2032 1369,2036 1368,2040 1368,2044 1368,2048 1368,2052 1368,2056 1368,2060 1369,2063 1369,2067 1370,2070 1371,2073 1372,2076 1373,2079 1373,2081 1374,2083 1355,2095 1352,2092 1351,2088 1349,2084 1348,2080 1347,2076 1346,2071 1345,2067 1345,2062 1344,2057 1344,2052 1344,2047 1344,2043 1345,2038 1345,2033 1346,2028 1347,2023 1348,2018 1350,2013 1351,2008 1353,2004 1356,2000 1358,1995 1361,1991 1364,1988 1368,1984 1372,1981 1377,1979 1382,1977 1387,1976 1392,1975 1398,1975 "/>
   </g>
   <g>
    <polygon class="fil0" points="1541,1835 1537,1859 1533,1858 1530,1858 1527,1859 1524,1859 1520,1861 1517,1862 1514,1864 1512,1866 1509,1869 1506,1872 1503,1875 1501,1879 1498,1883 1496,1887 1494,1891 1491,1895 1490,1900 1488,1905 1486,1909 1485,1914 1484,1919 1483,1923 1482,1928 1482,1932 1481,1937 1481,1941 1481,1945 1481,1948 1482,1952 1482,1954 1483,1957 1483,1959 1462,1968 1460,1964 1459,1959 1458,1955 1458,1950 1458,1945 1457,1940 1458,1935 1458,1930 1459,1925 1460,1919 1461,1914 1462,1908 1464,1902 1466,1897 1468,1891 1470,1886 1472,1881 1475,1875 1478,1870 1481,1865 1484,1861 1488,1856 1492,1852 1496,1848 1501,1845 1506,1842 1511,1839 1517,1837 1522,1835 1528,1835 1535,1835 "/>
   </g>
   <g>
    <polygon class="fil0" points="1467,1987 1464,2010 1461,2010 1458,2010 1455,2010 1453,2011 1451,2011 1449,2012 1447,2014 1445,2016 1443,2018 1442,2020 1440,2022 1439,2025 1437,2028 1436,2032 1435,2035 1434,2039 1433,2043 1432,2047 1432,2051 1432,2055 1432,2059 1432,2063 1432,2067 1432,2071 1433,2075 1433,2078 1434,2081 1435,2085 1435,2087 1436,2090 1437,2092 1438,2094 1418,2106 1416,2103 1415,2099 1413,2095 1412,2091 1411,2087 1410,2082 1409,2078 1409,2073 1408,2068 1408,2063 1408,2059 1408,2054 1409,2049 1409,2044 1410,2039 1411,2034 1412,2029 1414,2024 1415,2020 1417,2015 1419,2011 1422,2006 1425,2003 1428,1999 1432,1995 1436,1993 1441,1990 1446,1988 1451,1987 1456,1986 1462,1986 "/>
   </g>
   <g>
    <polygon class="fil0" points="1611,1848 1608,1871 1604,1871 1600,1871 1597,1871 1594,1872 1591,1873 1588,1875 1585,1877 1582,1879 1579,1882 1576,1884 1574,1888 1571,1891 1568,1895 1566,1899 1564,1904 1562,1908 1560,1913 1558,1917 1557,1922 1556,1927 1554,1931 1553,1936 1553,1941 1552,1945 1552,1949 1552,1954 1552,1957 1552,1961 1552,1964 1553,1967 1553,1969 1554,1971 1532,1981 1531,1976 1530,1972 1529,1968 1528,1963 1528,1958 1528,1953 1528,1948 1529,1943 1529,1937 1530,1932 1531,1926 1533,1921 1534,1915 1536,1910 1538,1904 1540,1899 1543,1893 1545,1888 1548,1883 1551,1878 1555,1873 1559,1869 1563,1865 1567,1861 1571,1857 1576,1854 1582,1852 1587,1850 1593,1848 1599,1847 1605,1847 "/>
   </g>
   <g>
    <polygon class="fil0" points="1531,1998 1528,2021 1525,2021 1522,2021 1519,2021 1517,2022 1515,2022 1513,2024 1511,2025 1509,2027 1507,2029 1506,2031 1504,2033 1502,2036 1501,2039 1500,2043 1499,2046 1498,2050 1497,2054 1496,2058 1496,2062 1496,2066 1496,2070 1496,2074 1496,2078 1496,2082 1496,2086 1497,2089 1498,2093 1499,2096 1499,2098 1500,2101 1501,2103 1502,2105 1482,2117 1480,2114 1479,2110 1477,2106 1476,2102 1475,2098 1474,2093 1473,2089 1472,2084 1472,2079 1472,2075 1472,2070 1472,2065 1472,2060 1473,2055 1474,2050 1475,2045 1476,2040 1477,2035 1479,2031 1481,2026 1483,2022 1486,2018 1489,2014 1492,2010 1496,2007 1500,2004 1505,2001 1509,1999 1515,1998 1520,1997 1526,1997 "/>
   </g>
   <g>
    <polygon class="fil0" points="1682,1861 1678,1884 1674,1884 1671,1884 1668,1884 1664,1885 1661,1886 1658,1887 1655,1889 1652,1892 1649,1894 1647,1897 1644,1900 1641,1904 1639,1908 1637,1912 1634,1916 1632,1921 1630,1925 1629,1930 1627,1935 1626,1939 1625,1944 1624,1949 1623,1953 1623,1958 1622,1962 1622,1966 1622,1970 1622,1974 1623,1977 1623,1980 1624,1982 1624,1984 1603,1993 1601,1989 1600,1985 1599,1980 1599,1976 1598,1971 1598,1966 1599,1961 1599,1955 1600,1950 1601,1944 1602,1939 1603,1933 1605,1928 1606,1922 1608,1917 1611,1911 1613,1906 1616,1901 1619,1896 1622,1891 1625,1886 1629,1881 1633,1877 1637,1873 1642,1870 1647,1867 1652,1864 1657,1862 1663,1861 1669,1860 1676,1860 "/>
   </g>
   <g>
    <polygon class="fil0" points="1595,2009 1592,2032 1588,2032 1586,2032 1583,2032 1581,2033 1579,2034 1577,2035 1575,2036 1573,2038 1571,2040 1570,2042 1568,2045 1566,2047 1565,2051 1564,2054 1563,2057 1562,2061 1561,2065 1560,2069 1560,2073 1560,2077 1559,2081 1559,2085 1560,2089 1560,2093 1560,2097 1561,2100 1562,2104 1562,2107 1563,2110 1564,2112 1565,2114 1566,2116 1546,2128 1544,2125 1543,2121 1541,2117 1540,2113 1539,2109 1538,2105 1537,2100 1536,2095 1536,2091 1536,2086 1536,2081 1536,2076 1536,2071 1537,2066 1538,2061 1539,2056 1540,2051 1541,2046 1543,2042 1545,2037 1547,2033 1550,2029 1553,2025 1556,2021 1560,2018 1564,2015 1569,2012 1573,2010 1579,2009 1584,2008 1590,2008 "/>
   </g>
  </g>
 </g>
</svg>
