<?xml version="1.0" encoding="UTF-8"?>
<!DOCTYPE svg PUBLIC "-//W3C//DTD SVG 1.1//EN" "http://www.w3.org/Graphics/SVG/1.1/DTD/svg11.dtd">
<!-- Creator: CorelDRAW X6 -->
<svg xmlns="http://www.w3.org/2000/svg" xml:space="preserve" width="2480px" height="3508px" version="1.1" style="shape-rendering:geometricPrecision; text-rendering:geometricPrecision; image-rendering:optimizeQuality; fill-rule:evenodd; clip-rule:evenodd"
viewBox="0 0 2480 3507"
 xmlns:xlink="http://www.w3.org/1999/xlink">
 <defs>
  <style type="text/css">
   <![CDATA[
    .fil0 {fill:#2B2A29;fill-rule:nonzero}
   ]]>
  </style>
 </defs>
 <g id="Warstwa_x0020_1">
  <metadata id="CorelCorpID_0Corel-Layer"/>
  <g>
   <path class="fil0" d="M951 1154l-563 0 0 -24 563 0 12 12 -12 12zm0 -24l12 0 0 12 -12 -12zm-12 1107l0 -1095 23 0 0 1095 -12 12 -12 -12zm23 0l0 12 -12 0 12 -12zm-574 -12l563 0 0 24 -563 0 -12 -12 12 -12zm0 24l-12 0 0 -12 12 12zm12 -1107l0 1095 -23 0 0 -1095 12 -12 12 12zm-23 0l0 -12 12 0 -12 12zm1146 420l-569 0 0 -24 569 0 12 12 -12 12zm0 -24l12 0 0 12 -12 -12zm-12 601l0 -590 23 0 0 590 -12 12 -12 -12zm23 0l0 12 -12 0 12 -12zm-581 -12l569 0 0 24 -569 0 -12 -12 12 -12zm0 24l-12 0 0 -12 12 12zm12 -601l0 590 -23 0 0 -590 12 -12 12 12zm-23 0l0 -12 12 0 -12 12zm706 -309l-541 320 -12 -21 541 -320 12 0 0 21zm-12 -21l6 -3 6 3 -12 0zm543 341l-543 -320 12 -21 543 320 -6 22 -6 -2zm12 -21l37 22 -43 0 6 -22zm-78 -2l72 0 0 24 -72 0 -12 -12 12 -12zm-12 12l0 -12 12 0 -12 12zm0 585l0 -585 23 0 0 585 -12 12 -12 -12zm23 0l0 12 -12 0 12 -12zm-602 -12l590 0 0 24 -590 0 -12 -12 12 -12zm-12 12l0 -12 12 0 -12 12zm0 4l0 -4 23 0 0 4 -23 0zm-950 -878l-110 0 0 -24 110 0 12 12 -12 12zm0 -24l12 0 0 12 -12 -12zm-12 177l0 -165 23 0 0 165 -12 12 -12 -12zm23 0l0 12 -12 0 12 -12zm-121 -12l110 0 0 24 -110 0 -12 -12 12 -12zm0 24l-12 0 0 -12 12 12zm12 -177l0 165 -23 0 0 -165 12 -12 12 12zm-23 0l0 -12 12 0 -12 12zm682 396l-110 0 0 -24 110 0 12 12 -12 12zm0 -24l12 0 0 12 -12 -12zm-12 177l0 -165 23 0 0 165 -12 12 -12 -12zm23 0l0 12 -12 0 12 -12zm-121 -12l110 0 0 24 -110 0 -12 -12 12 -12zm0 24l-12 0 0 -12 12 12zm12 -177l0 165 -23 0 0 -165 12 -12 12 12zm-23 0l0 -12 12 0 -12 12zm-441 -152l-110 0 0 -24 110 0 12 12 -12 12zm0 -24l12 0 0 12 -12 -12zm-12 177l0 -165 23 0 0 165 -12 12 -12 -12zm23 0l0 12 -12 0 12 -12zm-121 -12l110 0 0 24 -110 0 -12 -12 12 -12zm0 24l-12 0 0 -12 12 12zm12 -177l0 165 -23 0 0 -165 12 -12 12 12zm-23 0l0 -12 12 0 -12 12zm682 396l-110 0 0 -24 110 0 12 12 -12 12zm0 -24l12 0 0 12 -12 -12zm-12 177l0 -165 23 0 0 165 -12 12 -12 -12zm23 0l0 12 -12 0 12 -12zm-121 -12l110 0 0 24 -110 0 -12 -12 12 -12zm0 24l-12 0 0 -12 12 12zm12 -177l0 165 -23 0 0 -165 12 -12 12 12zm-23 0l0 -12 12 0 -12 12zm-438 -151l-110 0 0 -24 110 0 12 12 -12 12zm0 -24l12 0 0 12 -12 -12zm-12 177l0 -165 23 0 0 165 -12 12 -12 -12zm23 0l0 12 -12 0 12 -12zm-121 -12l110 0 0 24 -110 0 -12 -12 12 -12zm0 24l-12 0 0 -12 12 12zm12 -177l0 165 -23 0 0 -165 12 -12 12 12zm-23 0l0 -12 12 0 -12 12zm286 -430l-110 0 0 -24 110 0 12 12 -12 12zm0 -24l12 0 0 12 -12 -12zm-12 177l0 -165 23 0 0 165 -12 12 -12 -12zm23 0l0 12 -12 0 12 -12zm-121 -12l110 0 0 24 -110 0 -12 -12 12 -12zm0 24l-12 0 0 -12 12 12zm12 -177l0 165 -23 0 0 -165 12 -12 12 12zm-23 0l0 -12 12 0 -12 12zm682 396l-110 0 0 -24 110 0 12 12 -12 12zm0 -24l12 0 0 12 -12 -12zm-12 177l0 -165 23 0 0 165 -12 12 -12 -12zm23 0l0 12 -12 0 12 -12zm-121 -12l110 0 0 24 -110 0 -12 -12 12 -12zm0 24l-12 0 0 -12 12 12zm12 -177l0 165 -23 0 0 -165 12 -12 12 12zm-23 0l0 -12 12 0 -12 12zm-441 -152l-110 0 0 -24 110 0 12 12 -12 12zm0 -24l12 0 0 12 -12 -12zm-12 177l0 -165 23 0 0 165 -12 12 -12 -12zm23 0l0 12 -12 0 12 -12zm-121 -12l110 0 0 24 -110 0 -12 -12 12 -12zm0 24l-12 0 0 -12 12 12zm12 -177l0 165 -23 0 0 -165 12 -12 12 12zm-23 0l0 -12 12 0 -12 12zm682 396l-110 0 0 -24 110 0 12 12 -12 12zm0 -24l12 0 0 12 -12 -12zm-12 177l0 -165 23 0 0 165 -12 12 -12 -12zm23 0l0 12 -12 0 12 -12zm-121 -12l110 0 0 24 -110 0 -12 -12 12 -12zm0 24l-12 0 0 -12 12 12zm12 -177l0 165 -23 0 0 -165 12 -12 12 12zm-23 0l0 -12 12 0 -12 12zm-438 -151l-110 0 0 -24 110 0 12 12 -12 12zm0 -24l12 0 0 12 -12 -12zm-12 177l0 -165 23 0 0 165 -12 12 -12 -12zm23 0l0 12 -12 0 12 -12zm-121 -12l110 0 0 24 -110 0 -12 -12 12 -12zm0 24l-12 0 0 -12 12 12zm12 -177l0 165 -23 0 0 -165 12 -12 12 12zm-23 0l0 -12 12 0 -12 12zm293 236l-201 0 0 -24 201 0 12 12 -12 12zm0 -24l12 0 0 12 -12 -12zm-12 332l0 -320 23 0 0 320 -12 12 -12 -12zm23 0l0 12 -12 0 12 -12zm-213 -12l201 0 0 24 -201 0 -12 -12 12 -12zm0 24l-12 0 0 -12 12 12zm12 -332l0 320 -23 0 0 -320 12 -12 12 12zm-23 0l0 -12 12 0 -12 12zm-37 12l-201 0 0 -24 201 0 12 12 -12 12zm0 -24l12 0 0 12 -12 -12zm-12 332l0 -320 23 0 0 320 -12 12 -12 -12zm23 0l0 12 -12 0 12 -12zm-213 -12l201 0 0 24 -201 0 -12 -12 12 -12zm0 24l-12 0 0 -12 12 12zm12 -332l0 320 -23 0 0 -320 12 -12 12 12zm-23 0l0 -12 12 0 -12 12zm1359 -91l-201 0 0 -24 201 0 12 12 -12 12zm0 -24l12 0 0 12 -12 -12zm-12 332l0 -320 23 0 0 320 -12 12 -12 -12zm23 0l0 12 -12 0 12 -12zm-213 -12l201 0 0 24 -201 0 -12 -12 12 -12zm0 24l-12 0 0 -12 12 12zm12 -332l0 320 -23 0 0 -320 12 -12 12 12zm-23 0l0 -12 12 0 -12 12zm468 12l-201 0 0 -24 201 0 12 12 -12 12zm0 -24l12 0 0 12 -12 -12zm-12 332l0 -320 23 0 0 320 -12 12 -12 -12zm23 0l0 12 -12 0 12 -12zm-213 -12l201 0 0 24 -201 0 -12 -12 12 -12zm0 24l-12 0 0 -12 12 12zm12 -332l0 320 -23 0 0 -320 12 -12 12 12zm-23 0l0 -12 12 0 -12 12zm-941 -552l-110 0 0 -24 110 0 12 12 -12 12zm0 -24l12 0 0 12 -12 -12zm-12 177l0 -165 23 0 0 165 -12 12 -12 -12zm23 0l0 12 -12 0 12 -12zm-121 -12l110 0 0 24 -110 0 -12 -12 12 -12zm0 24l-12 0 0 -12 12 12zm12 -177l0 165 -23 0 0 -165 12 -12 12 12zm-23 0l0 -12 12 0 -12 12zm682 396l-110 0 0 -24 110 0 12 12 -12 12zm0 -24l12 0 0 12 -12 -12zm-12 177l0 -165 23 0 0 165 -12 12 -12 -12zm23 0l0 12 -12 0 12 -12zm-121 -12l110 0 0 24 -110 0 -12 -12 12 -12zm0 24l-12 0 0 -12 12 12zm12 -177l0 165 -23 0 0 -165 12 -12 12 12zm-23 0l0 -12 12 0 -12 12zm364 -240l-110 0 0 -24 110 0 12 12 -12 12zm0 -24l12 0 0 12 -12 -12zm-12 177l0 -165 23 0 0 165 -12 12 -12 -12zm23 0l0 12 -12 0 12 -12zm-121 -12l110 0 0 24 -110 0 -12 -12 12 -12zm0 24l-12 0 0 -12 12 12zm12 -177l0 165 -23 0 0 -165 12 -12 12 12zm-23 0l0 -12 12 0 -12 12zm-684 100l-110 0 0 -24 110 0 12 12 -12 12zm0 -24l12 0 0 12 -12 -12zm-12 177l0 -165 23 0 0 165 -12 12 -12 -12zm23 0l0 12 -12 0 12 -12zm-121 -12l110 0 0 24 -110 0 -12 -12 12 -12zm0 24l-12 0 0 -12 12 12zm12 -177l0 165 -23 0 0 -165 12 -12 12 12zm-23 0l0 -12 12 0 -12 12zm682 396l-110 0 0 -24 110 0 12 12 -12 12zm0 -24l12 0 0 12 -12 -12zm-12 177l0 -165 23 0 0 165 -12 12 -12 -12zm23 0l0 12 -12 0 12 -12zm-121 -12l110 0 0 24 -110 0 -12 -12 12 -12zm0 24l-12 0 0 -12 12 12zm12 -177l0 165 -23 0 0 -165 12 -12 12 12zm-23 0l0 -12 12 0 -12 12zm-438 -151l-110 0 0 -24 110 0 12 12 -12 12zm0 -24l12 0 0 12 -12 -12zm-12 177l0 -165 23 0 0 165 -12 12 -12 -12zm23 0l0 12 -12 0 12 -12zm-121 -12l110 0 0 24 -110 0 -12 -12 12 -12zm0 24l-12 0 0 -12 12 12zm12 -177l0 165 -23 0 0 -165 12 -12 12 12zm-23 0l0 -12 12 0 -12 12z"/>
  </g>
 </g>
</svg>
