<?xml version="1.0" encoding="UTF-8"?>
<!DOCTYPE svg PUBLIC "-//W3C//DTD SVG 1.1//EN" "http://www.w3.org/Graphics/SVG/1.1/DTD/svg11.dtd">
<!-- Creator: CorelDRAW X6 -->
<svg xmlns="http://www.w3.org/2000/svg" xml:space="preserve" width="117.17mm" height="168.654mm" version="1.1" style="shape-rendering:geometricPrecision; text-rendering:geometricPrecision; image-rendering:optimizeQuality; fill-rule:evenodd; clip-rule:evenodd"
viewBox="0 0 10998 15831"
 xmlns:xlink="http://www.w3.org/1999/xlink">
 <defs>
  <style type="text/css">
   <![CDATA[
    .str0 {stroke:#2B2A29;stroke-width:187.734}
    .fil0 {fill:none}
   ]]>
  </style>
 </defs>
 <g id="Warstwa_x0020_1">
  <metadata id="CorelCorpID_0Corel-Layer"/>
  <path class="fil0 str0" d="M5150 7676l-4 -2m1783 5124l-4 -2m-5012 -3804l-1180 1588 -591 -405 1193 -1519 0 -1020 -955 612 -260 -525 1427 -947c-778,-420 -558,-1535 357,-1567l0 -1c3,0 5,0 8,0 3,0 5,0 8,0l0 1c915,32 1135,1147 357,1567l1427 947 -260 525 -955 -612 0 1020 1193 1519 -591 405 -1180 -1588zm1780 5122l-1180 1588 -591 -405 1193 -1519 0 -1020 -955 612 -260 -525 1427 -947c-778,-420 -558,-1535 357,-1567l0 -1c3,0 5,0 8,0 3,0 5,0 8,0l0 1c915,32 1135,1147 357,1567l1427 947 -260 525 -955 -612 0 1020 1193 1519 -591 405 -1180 -1588zm-4 -10235l-1180 1588 -591 -405 1193 -1519 0 -1020 -955 612 -260 -525 1427 -947c-778,-420 -558,-1535 357,-1567l0 -1c3,0 5,0 8,0 3,0 5,0 8,0l0 1c915,32 1135,1147 357,1567l1427 947 -260 525 -955 -612 0 1020 1193 1519 -591 405 -1180 -1588zm1810 5113l1180 1588 591 -405 -1193 -1519 0 -1020 955 612 260 -525 -1427 -947c778,-420 558,-1535 -357,-1567l0 -1c-3,0 -5,0 -8,0 -3,0 -5,0 -8,0l0 1c-915,32 -1135,1147 -357,1567l-1427 947 260 525 955 -612 0 1020 -1193 1519 591 405 1180 -1588zm1780 5122l1180 1588 591 -405 -1193 -1519 0 -1020 955 612 260 -525 -1427 -947c778,-420 558,-1535 -357,-1567l0 -1c-3,0 -5,0 -8,0 -3,0 -5,0 -8,0l0 1c-915,32 -1135,1147 -357,1567l-1427 947 260 525 955 -612 0 1020 -1193 1519 591 405 1180 -1588zm-4 -10235l1180 1588 591 -405 -1193 -1519 0 -1020 955 612 260 -525 -1427 -947c778,-420 558,-1535 -357,-1567l0 -1c-3,0 -5,0 -8,0 -3,0 -5,0 -8,0l0 1c-915,32 -1135,1147 -357,1567l-1427 947 260 525 955 -612 0 1020 -1193 1519 591 405 1180 -1588zm1810 5113l-1180 1588 -591 -405 1193 -1519 0 -1020 -955 612 -260 -525 1427 -947c-778,-420 -558,-1535 357,-1567l0 -1c3,0 5,0 8,0 3,0 5,0 8,0l0 1c915,32 1135,1147 357,1567l1427 947 -260 525 -955 -612 0 1020 1193 1519 -591 405 -1180 -1588z"/>
 </g>
</svg>
