<?xml version="1.0" encoding="UTF-8"?>
<!DOCTYPE svg PUBLIC "-//W3C//DTD SVG 1.1//EN" "http://www.w3.org/Graphics/SVG/1.1/DTD/svg11.dtd">
<!-- Creator: CorelDRAW X6 -->
<svg xmlns="http://www.w3.org/2000/svg" xml:space="preserve" width="133.184mm" height="123.938mm" version="1.1" style="shape-rendering:geometricPrecision; text-rendering:geometricPrecision; image-rendering:optimizeQuality; fill-rule:evenodd; clip-rule:evenodd"
viewBox="0 0 12755 11870"
 xmlns:xlink="http://www.w3.org/1999/xlink">
 <defs>
  <style type="text/css">
   <![CDATA[
    .str0 {stroke:#2B2A29;stroke-width:191.547}
    .fil0 {fill:none}
   ]]>
  </style>
 </defs>
 <g id="Warstwa_x0020_1">
  <metadata id="CorelCorpID_0Corel-Layer"/>
  <g id="_696011952">
   <polygon class="fil0 str0" points="96,1081 12660,1081 12660,10076 96,10076 "/>
   <line class="fil0 str0" x1="6426" y1="1081" x2="6426" y2= "10076" />
   <polygon class="fil0 str0" points="913,1819 11844,1819 11844,9376 913,9376 "/>
   <polygon class="fil0 str0" points="913,3798 2760,3798 2760,7491 913,7491 "/>
   <polygon class="fil0 str0" points="9997,3760 11844,3760 11844,7454 9997,7454 "/>
   <path class="fil0 str0" d="M6408 4306c742,0 1343,570 1343,1272 0,703 -601,1272 -1343,1272 -742,0 -1343,-570 -1343,-1272 0,-703 601,-1272 1343,-1272z"/>
   <path class="fil0 str0" d="M9997 6847c-542,-129 -946,-635 -946,-1240 0,-605 404,-1112 946,-1240l0 2481z"/>
   <path class="fil0 str0" d="M2762 6904c542,-129 946,-635 946,-1240 0,-605 -404,-1112 -946,-1240l0 2481z"/>
   <polygon class="fil0 str0" points="913,4815 1592,4815 1592,6474 913,6474 "/>
   <polygon class="fil0 str0" points="11159,4796 11837,4796 11837,6455 11159,6455 "/>
   <line class="fil0 str0" x1="6134" y1="118" x2="10645" y2= "118" />
   <line class="fil0 str0" x1="1864" y1="96" x2="4854" y2= "96" />
   <line class="fil0 str0" x1="1497" y1="11115" x2="7731" y2= "11115" />
   <line class="fil0 str0" x1="6666" y1="11774" x2="10670" y2= "11774" />
   <path class="fil0 str0" d="M2143 5477c84,0 152,68 152,152 0,84 -68,152 -152,152 -84,0 -152,-68 -152,-152 0,-84 68,-152 152,-152z"/>
   <path class="fil0 str0" d="M10581 5426c84,0 152,68 152,152 0,84 -68,152 -152,152 -84,0 -152,-68 -152,-152 0,-84 68,-152 152,-152z"/>
  </g>
 </g>
</svg>
