<?xml version="1.0" encoding="UTF-8"?>
<!DOCTYPE svg PUBLIC "-//W3C//DTD SVG 1.1//EN" "http://www.w3.org/Graphics/SVG/1.1/DTD/svg11.dtd">
<!-- Creator: CorelDRAW X6 -->
<svg xmlns="http://www.w3.org/2000/svg" xml:space="preserve" width="2480px" height="3508px" version="1.1" style="shape-rendering:geometricPrecision; text-rendering:geometricPrecision; image-rendering:optimizeQuality; fill-rule:evenodd; clip-rule:evenodd"
viewBox="0 0 2480 3507"
 xmlns:xlink="http://www.w3.org/1999/xlink">
 <defs>
  <style type="text/css">
   <![CDATA[
    .fil0 {fill:#2B2A29;fill-rule:nonzero}
   ]]>
  </style>
 </defs>
 <g id="Warstwa_x0020_1">
  <metadata id="CorelCorpID_0Corel-Layer"/>
  <g>
   <path class="fil0" d="M1149 1976l23 -1353 22 1 -23 1353 -12 11 -10 -11zm0 0l22 1 0 1 0 1 0 1 0 1 0 1 0 1 0 1 0 0 0 0 0 0 0 0 0 0 0 0 0 0 0 0 0 0 0 0 0 0 0 0 0 0 0 0 0 0 0 0 0 0 0 0 -1 0 -1 0 -1 0 -1 0 -1 0 -1 0 -1 0 -1 0 -1 0 -1 0 -1 0 -1 0 -1 0 -1 0 0 0 0 0 0 0 0 0 0 0 0 0 0 0 0 0 0 0 0 0 0 0 0 0 0 0 0 0 0 0 0 0 0 0 0 -1 0 -1 0 -1 0 -1 0 -1 0 -1 0 -1 0 -1zm186 26l-176 -15 2 -22 176 15 10 11 -12 11zm0 0l2 -22 1 0 1 0 1 0 1 0 1 0 1 0 0 0 0 0 0 0 0 0 0 0 0 0 0 0 0 0 0 0 0 0 0 0 0 0 0 0 0 0 0 0 0 0 0 0 0 1 0 1 0 1 0 1 0 1 0 1 0 1 0 1 0 1 0 1 0 1 0 1 0 1 0 1 0 1 0 0 0 0 0 0 0 0 0 0 0 0 0 0 0 0 0 0 0 0 0 0 0 0 0 0 0 0 0 0 0 0 0 0 0 0 -1 0 -1 0 -1 0 -1 0 -1 0 -1 0 -1 0 -1 0zm-46 -1357l57 1346 -22 1 -57 -1346 13 -11 9 10zm0 0l-22 1 0 -1 0 -1 0 -1 0 -1 0 -1 0 -1 0 -1 0 -1 0 0 0 0 0 0 0 0 0 0 0 0 0 0 0 0 0 0 0 0 0 0 0 0 0 0 0 0 0 0 0 0 0 0 1 0 1 0 1 0 1 0 1 0 1 0 1 0 1 0 1 0 1 0 1 0 1 0 1 0 1 0 1 0 0 0 0 0 0 0 0 0 0 0 0 0 0 0 0 0 0 0 0 0 0 0 0 0 0 0 0 0 0 0 0 0 0 0 0 1 0 1 0 1 0 1 0 1 0 1 0 1zm-104 -33l96 23 -5 21 -96 -23 -9 -11 13 -10zm0 0l-5 21 -1 0 -1 0 -1 0 -1 0 0 0 0 0 0 0 0 0 0 0 0 0 0 0 0 0 0 0 0 0 0 0 0 0 0 0 0 0 0 0 0 0 0 0 0 -1 0 -1 0 -1 0 -1 0 -1 0 -1 0 -1 0 -1 0 -1 0 -1 0 -1 0 -1 0 -1 0 -1 0 -1 0 0 0 0 0 0 0 0 0 0 0 0 0 0 0 0 0 0 0 0 0 0 0 0 0 0 0 0 0 0 0 0 0 0 1 0 1 0 1 0 1 0 1 0 1 0 1 0 1 0 1 0 1 0 1 0z"/>
  </g>
  <g>
   <path class="fil0" d="M1130 653l45 -38 14 17 -45 38 -18 -9 4 -8zm0 0l14 17 0 0 0 0 0 0 0 0 0 0 0 0 0 0 -1 0 -1 0 -1 0 -1 0 -1 0 -1 0 -1 0 -1 0 -1 0 -1 0 -1 0 -1 0 -1 0 -1 0 0 0 0 0 0 0 0 0 0 0 0 0 0 0 0 0 0 0 0 0 0 0 0 0 0 0 0 0 0 0 0 0 0 0 0 -1 0 -1 0 -1 0 -1 0 -1 0 -1 0 -1 0 -1 0 -1 0 -1 0 -1 0 -1 0 -1 0 -1 0 -1 0 0 0 0 0 0 0 0 0 0 0 0 0 0 0 0 0 0 0 0 0 0zm-68 1365l64 -1357 22 1 -64 1357 -6 9 -16 -11zm0 0l22 1 0 1 0 1 0 1 0 1 0 1 0 1 0 0 0 0 0 0 0 0 0 0 0 0 0 0 0 0 0 0 0 0 0 0 0 0 0 0 0 0 0 0 0 0 0 0 0 0 -1 0 -1 0 -1 0 -1 0 -1 0 -1 0 -1 0 -1 0 -1 0 -1 0 -1 0 -1 0 -1 0 -1 0 -1 0 0 0 0 0 0 0 0 0 0 0 0 0 0 0 0 0 0 0 0 0 0 0 0 0 0 0 0 0 0 0 0 0 0 0 0 -1 0 -1 0 -1 0 -1 0 -1 0 -1 0 -1 0 -1zm103 -31l-87 42 -10 -20 87 -42 10 20z"/>
  </g>
  <g>
   <path class="fil0" d="M1039 2027l27 -18 12 18 -27 18 -17 -9 5 -9zm0 0l12 18 0 0 0 0 0 0 -1 0 -1 0 -1 0 -1 0 -1 0 -1 0 -1 0 -1 0 -1 0 -1 0 -1 0 -1 0 -1 0 -1 0 -1 0 -1 0 0 0 0 0 0 0 0 0 0 0 0 0 0 0 0 0 0 0 0 0 0 0 0 0 0 0 0 0 0 0 0 0 0 -1 0 -1 0 -1 0 -1 0 -1 0 -1 0 -1 0 -1 0 -1 0 -1 0 -1 0 -1 0 -1 0 -1 0 -1 0 0 0 0 0 0 0 0 0 0 0 0 0 0 0 0 0 0 0 0 0 0 0 0 0 0 0 0zm-4 51l-1 -42 22 0 1 42 -7 10 -15 -10zm0 0l22 0 0 1 0 1 0 1 0 1 0 1 0 1 0 1 0 0 0 0 0 0 0 0 0 0 0 0 0 0 0 0 0 0 0 0 0 0 0 0 0 0 0 0 0 0 0 0 0 0 0 0 -1 0 -1 0 -1 0 -1 0 -1 0 -1 0 -1 0 -1 0 -1 0 -1 0 -1 0 -1 0 -1 0 -1 0 0 0 0 0 0 0 0 0 0 0 0 0 0 0 0 0 0 0 0 0 0 0 0 0 0 0 0 0 0 0 0 0 0 0 0 0 0 -1 0 -1 0 -1 0 -1 0 -1 0 -1 0 -1zm118 -32l-102 42 -9 -20 102 -42 15 10 -7 10zm0 0l-9 -20 1 0 1 0 1 0 1 0 1 0 1 0 1 0 1 0 1 0 1 0 1 0 1 0 1 0 1 0 1 0 0 0 0 0 0 0 0 0 0 0 0 0 0 0 0 0 0 0 0 0 0 0 0 0 0 0 0 0 0 0 0 0 0 1 0 1 0 1 0 1 0 1 0 1 0 1 0 1 0 1 0 1 0 1 0 1 0 1 0 1 0 1 0 0 0 0 0 0 0 0 0 0 0 0 0 0 0 0 0 0 0 0 0 0 0 0 0 0 0 0 0 0 0 0 0 0 -1 0zm6 -64l0 54 -22 0 0 -54 11 -11 11 11zm0 0l-22 0 0 -1 0 -1 0 -1 0 -1 0 -1 0 -1 0 -1 0 0 0 0 0 0 0 0 0 0 0 0 0 0 0 0 0 0 0 0 0 0 0 0 0 0 0 0 0 0 0 0 0 0 0 0 1 0 1 0 1 0 1 0 1 0 1 0 1 0 1 0 1 0 1 0 1 0 1 0 1 0 1 0 0 0 0 0 0 0 0 0 0 0 0 0 0 0 0 0 0 0 0 0 0 0 0 0 0 0 0 0 0 0 0 0 0 0 0 0 0 1 0 1 0 1 0 1 0 1 0 1 0 1zm-11 11l0 0 0 -22 0 0 0 22z"/>
  </g>
  <g>
   <path class="fil0" d="M1342 1983l11 8 -13 18 -11 -8 0 0 13 -18zm9 34l-22 -16 13 -18 22 16 5 9 -17 9zm13 -18l4 3 0 6 -5 -9zm-17 55l-1 -46 22 0 1 46 -12 11 -10 -11zm22 0l0 12 -12 -1 12 -11zm-220 -28l210 17 -1 22 -210 -17 1 -22z"/>
  </g>
  <g>
   <path class="fil0" d="M1454 2104l-100 -40 8 -20 100 40 -5 21 -3 -1zm0 0l8 -20 1 0 1 0 0 0 0 0 0 0 0 0 0 0 0 0 0 0 0 0 0 0 0 0 0 0 0 0 0 0 0 0 0 0 0 0 0 1 0 1 0 1 0 1 0 1 0 1 0 1 0 1 0 1 0 1 0 1 0 1 0 1 0 1 0 1 0 0 0 0 0 0 0 0 0 0 0 0 0 0 0 0 0 0 0 0 0 0 0 0 0 0 0 0 0 0 0 0 0 0 -1 0 -1 0 -1 0 -1 0 -1 0 -1 0 -1 0 -1 0 -1 0 -1 0 -1 0 -1 0 -1 0 -1 0zm-333 -48l338 27 -1 22 -338 -27 -7 -18 9 -3zm0 0l-1 22 -1 0 -1 0 -1 0 -1 0 -1 0 -1 0 0 0 0 0 0 0 0 0 0 0 0 0 0 0 0 0 0 0 0 0 0 0 0 0 0 0 0 0 0 0 0 0 0 0 0 0 0 -1 0 -1 0 -1 0 -1 0 -1 0 -1 0 -1 0 -1 0 -1 0 -1 0 -1 0 -1 0 -1 0 -1 0 0 0 0 0 0 0 0 0 0 0 0 0 0 0 0 0 0 0 0 0 0 0 0 0 0 0 0 0 0 0 0 0 0 0 0 1 0 1 0 1 0 1 0 1 0 1 0 1 0 1 0zm36 -12l-28 30 -16 -15 28 -30 16 15z"/>
  </g>
  <g>
   <path class="fil0" d="M963 2112l154 -55 8 21 -154 55 -9 -20 2 -1zm0 0l8 21 -1 0 -1 0 -1 0 -1 0 -1 0 -1 0 -1 0 -1 0 -1 0 -1 0 -1 0 -1 0 -1 0 -1 0 0 0 0 0 0 0 0 0 0 0 0 0 0 0 0 0 0 0 0 0 0 0 0 0 0 0 0 0 0 0 0 0 0 -1 0 -1 0 -1 0 -1 0 -1 0 -1 0 -1 0 -1 0 -1 0 -1 0 -1 0 -1 0 -1 0 -1 0 -1 0 0 0 0 0 0 0 0 0 0 0 0 0 0 0 0 0 0 0 0 0 0 0 0 0 0 0 0 0 0 0 0 0 0 1 0 1 0zm89 -24l-79 44 -11 -19 79 -44 11 19z"/>
  </g>
  <g>
   <path class="fil0" d="M1438 2117l9 -27 21 7 -9 27 -11 7 -10 -15zm21 7l-3 8 -8 -1 11 -7zm-342 -37l332 23 -1 22 -332 -23 -9 -15 11 -6zm-1 22l-16 -1 6 -14 9 15zm24 -36l-13 30 -20 -9 13 -30 20 9z"/>
  </g>
  <g>
   <path class="fil0" d="M1438 2149l0 -29 22 0 0 29 -12 11 -10 -11zm0 0l22 0 0 1 0 1 0 1 0 1 0 1 0 1 0 1 0 0 0 0 0 0 0 0 0 0 0 0 0 0 0 0 0 0 0 0 0 0 0 0 0 0 0 0 0 0 0 0 0 0 0 0 -1 0 -1 0 -1 0 -1 0 -1 0 -1 0 -1 0 -1 0 -1 0 -1 0 -1 0 -1 0 -1 0 -1 0 0 0 0 0 0 0 0 0 0 0 0 0 0 0 0 0 0 0 0 0 0 0 0 0 0 0 0 0 0 0 0 0 0 0 0 0 0 -1 0 -1 0 -1 0 -1 0 -1 0 -1 0 -1zm-320 -38l332 27 -1 22 -332 -27 -10 -11 12 -11zm0 0l-1 22 -1 0 -1 0 -1 0 -1 0 -1 0 -1 0 0 0 0 0 0 0 0 0 0 0 0 0 0 0 0 0 0 0 0 0 0 0 0 0 0 0 0 0 0 0 0 0 0 0 0 -1 0 -1 0 -1 0 -1 0 -1 0 -1 0 -1 0 -1 0 -1 0 -1 0 -1 0 -1 0 -1 0 -1 0 -1 0 0 0 0 0 0 0 0 0 0 0 0 0 0 0 0 0 0 0 0 0 0 0 0 0 0 0 0 0 0 0 0 0 0 0 0 1 0 1 0 1 0 1 0 1 0 1 0 1 0 1 0zm10 -14l0 25 -22 0 0 -25 7 -10 15 10zm0 0l-22 0 0 -1 0 -1 0 -1 0 -1 0 -1 0 -1 0 -1 0 0 0 0 0 0 0 0 0 0 0 0 0 0 0 0 0 0 0 0 0 0 0 0 0 0 0 0 0 0 0 0 0 0 0 0 1 0 1 0 1 0 1 0 1 0 1 0 1 0 1 0 1 0 1 0 1 0 1 0 1 0 1 0 0 0 0 0 0 0 0 0 0 0 0 0 0 0 0 0 0 0 0 0 0 0 0 0 0 0 0 0 0 0 0 0 0 0 0 0 0 1 0 1 0 1 0 1 0 1 0 1 0 1zm-151 37l137 -48 7 21 -137 48 -13 -5 6 -16zm0 0l7 21 -1 0 -1 0 -1 0 -1 0 -1 0 -1 0 -1 0 -1 0 -1 0 -1 0 -1 0 -1 0 -1 0 0 0 0 0 0 0 0 0 0 0 0 0 0 0 0 0 0 0 0 0 0 0 0 0 0 0 0 0 0 0 0 0 0 0 0 -1 0 -1 0 -1 0 -1 0 -1 0 -1 0 -1 0 -1 0 -1 0 -1 0 -1 0 -1 0 -1 0 -1 0 -1 0 0 0 0 0 0 0 0 0 0 0 0 0 0 0 0 0 0 0 0 0 0 0 0 0 0 0 0 0 0 0 0 0 0 1 0 1 0zm-1 -18l14 23 -19 11 -14 -23 19 -11z"/>
  </g>
  <g>
   <path class="fil0" d="M1106 2122l0 -25 22 0 0 25 -7 10 -15 -10zm0 0l22 0 0 1 0 1 0 1 0 1 0 1 0 1 0 1 0 0 0 0 0 0 0 0 0 0 0 0 0 0 0 0 0 0 0 0 0 0 0 0 0 0 0 0 0 0 0 0 0 0 0 0 -1 0 -1 0 -1 0 -1 0 -1 0 -1 0 -1 0 -1 0 -1 0 -1 0 -1 0 -1 0 -1 0 -1 0 0 0 0 0 0 0 0 0 0 0 0 0 0 0 0 0 0 0 0 0 0 0 0 0 0 0 0 0 0 0 0 0 0 0 0 0 0 -1 0 -1 0 -1 0 -1 0 -1 0 -1 0 -1zm-128 39l135 -50 8 21 -135 50 -15 -9 7 -11zm0 0l8 21 -1 0 -1 0 -1 0 -1 0 -1 0 -1 0 -1 0 -1 0 -1 0 -1 0 -1 0 -1 0 -1 0 -1 0 0 0 0 0 0 0 0 0 0 0 0 0 0 0 0 0 0 0 0 0 0 0 0 0 0 0 0 0 0 0 0 0 0 -1 0 -1 0 -1 0 -1 0 -1 0 -1 0 -1 0 -1 0 -1 0 -1 0 -1 0 -1 0 -1 0 -1 0 -1 0 0 0 0 0 0 0 0 0 0 0 0 0 0 0 0 0 0 0 0 0 0 0 0 0 0 0 0 0 0 0 0 0 0 1 0 1 0zm13 -17l2 27 -22 2 -2 -27 22 -2z"/>
  </g>
  <g>
   <path class="fil0" d="M1044 2203l-65 -21 6 -21 65 21 0 21 -6 0zm6 0l-3 1 -3 -1 6 0zm93 -25l-93 25 -6 -21 93 -25 13 6 -7 15zm7 -15l6 12 -13 3 7 -15zm-24 -46l24 46 -19 10 -24 -46 19 -10z"/>
  </g>
  <g>
   <path class="fil0" d="M1356 2422l-3 -242 22 0 3 242 -11 11 -11 -11zm22 0l0 11 -11 0 11 -11zm-236 -17l225 6 0 22 -225 -6 -11 -11 11 -11zm0 22l-11 0 0 -11 11 11zm9 -259l2 248 -22 0 -2 -248 11 -11 11 11zm-22 0l0 -11 11 1 -11 11zm234 22l-223 -11 1 -22 223 11 4 21 -5 1zm5 -1l-2 1 -3 0 5 -1zm67 -32l-67 32 -10 -20 67 -32 10 20z"/>
  </g>
  <g>
   <path class="fil0" d="M1451 2475l-88 -44 10 -20 88 44 6 10 -16 10zm10 -20l6 3 0 7 -6 -10zm-14 111l-1 -101 22 0 1 101 -11 11 -11 -11zm22 0l0 11 -11 0 11 -11zm-358 -19l347 8 0 22 -347 -8 -11 -11 11 -11zm0 22l-10 0 0 -10 11 11zm8 -106l3 95 -22 0 -3 -95 2 -7 20 6zm-22 0l0 -4 2 -3 -2 7zm55 -41l-36 48 -18 -13 36 -48 8 -4 10 18zm-10 -18l24 -1 -14 19 -10 -18zm-95 6l95 -6 2 22 -95 6 -12 -11 10 -11zm2 22l-12 1 0 -12 12 11zm11 -239l-1 229 -22 0 1 -229 22 0z"/>
  </g>
  <g>
   <path class="fil0" d="M1098 2457l36 -48 18 13 -36 48 -9 4 -9 -18zm9 18l-22 0 13 -17 9 18zm349 2l-349 -2 0 -22 349 2 0 22z"/>
  </g>
  <g>
   <path class="fil0" d="M986 2453l120 0 0 22 -120 0 -6 -20 6 -2zm0 0l0 22 -1 0 -1 0 -1 0 -1 0 -1 0 -1 0 -1 0 0 0 0 0 0 0 0 0 0 0 0 0 0 0 0 0 0 0 0 0 0 0 0 0 0 0 0 0 0 0 0 0 0 0 0 0 0 -1 0 -1 0 -1 0 -1 0 -1 0 -1 0 -1 0 -1 0 -1 0 -1 0 -1 0 -1 0 -1 0 -1 0 0 0 0 0 0 0 0 0 0 0 0 0 0 0 0 0 0 0 0 0 0 0 0 0 0 0 0 0 0 0 0 0 0 0 0 1 0 1 0 1 0 1 0 1 0 1 0 1 0zm67 -22l-60 42 -13 -18 60 -42 13 18z"/>
  </g>
  <g>
   <path class="fil0" d="M924 2616l1 -173 22 0 -1 173 -11 11 -10 -11zm10 11l-11 -1 0 -11 10 11zm63 4l-63 -4 1 -22 63 4 10 10 -11 12zm11 -12l1 12 -12 -1 11 -12zm-12 -156l12 156 -22 1 -12 -156 18 -9 4 8zm-4 -8l4 3 0 5 -4 -8zm-37 -30l37 30 -14 17 -37 -30 3 -19 11 2zm-11 -2l6 -2 5 4 -11 -2zm-38 15l38 -15 8 20 -38 15 -15 -11 7 -9zm-7 9l1 -7 6 -2 -7 9zm-13 170l13 -170 22 2 -13 170 -10 10 -12 -12zm12 12l-13 1 1 -13 12 12zm40 -2l-40 2 -1 -22 40 -2 1 22z"/>
  </g>
  <g>
   <path class="fil0" d="M1853 2627l-18 -168 22 -2 18 168 -10 12 -12 -10zm0 0l22 -2 0 1 0 1 0 1 0 1 0 1 0 1 0 1 0 1 0 1 0 0 0 0 0 0 0 0 0 0 0 0 0 0 0 0 0 0 0 0 0 0 0 0 0 0 0 0 0 0 0 0 0 0 -1 0 -1 0 -1 0 -1 0 -1 0 -1 0 -1 0 -1 0 -1 0 -1 0 -1 0 -1 0 -1 0 -1 0 -1 0 0 0 0 0 0 0 0 0 0 0 0 0 0 0 0 0 0 0 0 0 0 0 0 0 0 0 0 0 0 0 0 0 0 0 0 -1 0 -1 0 -1 0 -1 0 -1 0 -1zm52 6l-40 4 -2 -22 40 -4 12 9 -10 12zm0 0l-2 -22 1 0 1 0 1 0 1 0 1 0 1 0 1 0 1 0 1 0 0 0 0 0 0 0 0 0 0 0 0 0 0 0 0 0 0 0 0 0 0 0 0 0 0 0 0 0 0 0 0 0 0 0 0 1 0 1 0 1 0 1 0 1 0 1 0 1 0 1 0 1 0 1 0 1 0 1 0 1 0 1 0 1 0 0 0 0 0 0 0 0 0 0 0 0 0 0 0 0 0 0 0 0 0 0 0 0 0 0 0 0 0 0 0 0 0 0 0 0 -1 0 -1 0 -1 0 -1 0 -1 0zm-13 -155l23 143 -22 3 -23 -143 16 -11 5 8zm0 0l-22 3 0 -1 0 -1 0 -1 0 -1 0 -1 0 -1 0 -1 0 -1 0 -1 0 -1 0 0 0 0 0 0 0 0 0 0 0 0 0 0 0 0 0 0 0 0 0 0 0 0 0 0 0 0 0 0 0 0 0 0 1 0 1 0 1 0 1 0 1 0 1 0 1 0 1 0 1 0 1 0 1 0 1 0 1 0 1 0 1 0 0 0 0 0 0 0 0 0 0 0 0 0 0 0 0 0 0 0 0 0 0 0 0 0 0 0 0 0 0 0 0 0 0 0 0 1 0 1 0 1 0 1 0 1zm-40 -29l35 21 -11 19 -35 -21 -5 -8 16 -10zm0 0l-11 19 0 0 0 0 0 0 0 0 0 0 0 0 0 0 0 0 0 0 0 0 0 0 0 0 0 0 0 0 0 -1 0 -1 0 -1 0 -1 0 -1 0 -1 0 -1 0 -1 0 -1 0 -1 0 -1 0 -1 0 -1 0 -1 0 -1 0 -1 0 0 0 0 0 0 0 0 0 0 0 0 0 0 0 0 0 0 0 0 0 0 0 0 0 0 0 0 0 0 0 0 0 0 1 0 1 0 1 0 1 0 1 0 1 0 1 0 1 0 1 0 1 0 1 0 1 0 1 0 1 0 1 0 0 0 0 0z"/>
  </g>
  <g>
   <path class="fil0" d="M1807 2474l32 -25 14 17 -32 25 -18 -9 4 -8zm0 0l14 17 0 0 0 0 0 0 0 0 0 0 0 0 -1 0 -1 0 -1 0 -1 0 -1 0 -1 0 -1 0 -1 0 -1 0 -1 0 -1 0 -1 0 -1 0 -1 0 0 0 0 0 0 0 0 0 0 0 0 0 0 0 0 0 0 0 0 0 0 0 0 0 0 0 0 0 0 0 0 0 0 0 0 -1 0 -1 0 -1 0 -1 0 -1 0 -1 0 -1 0 -1 0 -1 0 -1 0 -1 0 -1 0 -1 0 -1 0 -1 0 0 0 0 0 0 0 0 0 0 0 0 0 0 0 0 0 0 0 0 0 0 0 0zm-10 149l6 -141 22 1 -6 141 -11 10 -11 -12zm0 0l22 1 0 1 0 1 0 1 0 1 0 1 0 1 0 0 0 0 0 0 0 0 0 0 0 0 0 0 0 0 0 0 0 0 0 0 0 0 0 0 0 0 0 0 0 0 0 0 0 0 -1 0 -1 0 -1 0 -1 0 -1 0 -1 0 -1 0 -1 0 -1 0 -1 0 -1 0 -1 0 -1 0 -1 0 -1 0 0 0 0 0 0 0 0 0 0 0 0 0 0 0 0 0 0 0 0 0 0 0 0 0 0 0 0 0 0 0 0 0 0 0 0 -1 0 -1 0 -1 0 -1 0 -1 0 -1 0 -1 0 -1zm66 13l-55 -2 0 -22 55 2 0 22z"/>
  </g>
  <g>
   <path class="fil0" d="M585 2605l-2 -122 22 0 2 122 -10 11 -12 -11zm12 11l-12 1 0 -12 12 11zm42 -4l-42 4 -2 -22 42 -4 12 10 -10 12zm10 -12l1 11 -11 1 10 -12zm-15 -120l15 120 -22 2 -15 -120 15 -11 6 9zm-6 -9l6 3 1 6 -6 -9zm-29 -13l29 13 -9 20 -29 -13 -3 -18 12 -2zm-12 2l5 -4 6 3 -12 2zm-23 19l23 -19 14 17 -23 19 -18 -9 4 -7zm-4 7l0 -5 3 -3 -4 7zm-8 111l8 -111 22 2 -8 111 -14 10 -8 -11zm8 11l-9 -2 1 -9 8 11zm34 10l-34 -10 6 -21 34 10 -6 21z"/>
  </g>
  <g>
   <path class="fil0" d="M1011 2464l-10 20 -10 -5 -11 -6 11 -19 9 5 10 5zm40 14l-7 21 -10 -3 -12 -4 7 -20 11 4 10 3zm42 11l-5 21 -15 -4 -6 -2 6 -21 6 2 15 4zm42 9l-4 21 -15 -3 -7 -2 5 -21 7 1 15 3zm43 8l-3 22 -9 -1 -13 -2 4 -21 12 2 9 1zm43 7l-3 22 -22 -3 3 -22 22 3zm43 5l-2 22 -14 -1 -8 -1 3 -22 8 1 14 1zm43 4l-2 22 -22 -2 2 -22 22 2zm43 3l-1 22 -11 -1 -11 -1 1 -22 11 1 11 1zm44 2l-1 22 -22 -1 1 -22 22 1zm43 0l0 22 -3 0 -19 0 0 -22 19 0 3 0zm44 -1l1 22 -14 0 -8 0 0 -22 8 0 14 0zm43 -2l1 22 -22 1 -1 -22 22 -1zm43 -3l2 22 -3 0 -19 2 -2 -22 19 -2 3 0zm43 -5l3 22 -14 2 -8 1 -2 -22 8 -1 14 -2zm43 -7l4 22 -22 4 -4 -22 22 -4zm42 -8l5 21 -3 1 -19 4 -4 -22 18 -4 3 -1zm42 -11l6 21 -14 4 -7 2 -5 -21 7 -2 14 -4zm41 -13l7 21 -21 7 -7 -21 21 -7zm40 -15l8 20 -7 3 -14 5 -7 -21 13 -5 7 -3zm21 -9l9 20 -2 1 -8 -20 1 0z"/>
  </g>
  <g>
   <path class="fil0" d="M947 2442l-13 10 -13 -18 13 -10 15 16 -2 2zm0 0l-13 -18 0 0 0 0 0 0 0 0 0 0 1 0 1 0 1 0 1 0 1 0 1 0 1 0 1 0 1 0 1 0 1 0 1 0 1 0 1 0 0 0 0 0 0 0 0 0 0 0 0 0 0 0 0 0 0 0 0 0 0 0 0 0 0 0 0 0 0 0 0 0 0 0 0 1 0 1 0 1 0 1 0 1 0 1 0 1 0 1 0 1 0 1 0 1 0 1 0 1 0 1 0 1 0 0 0 0 0 0 0 0 0 0 0 0 0 0 0 0 0 0 0 0 0 0 0 0 0 0zm-1 2l-17 -14 4 -4 17 14 -4 4zm0 0l-17 -14 4 -4 17 14 -4 4 -10 -21 0 0 1 0 1 0 1 0 1 0 1 0 1 0 1 0 1 0 1 0 1 0 1 0 1 0 1 0 1 0 0 0 0 0 0 0 0 0 0 0 0 0 0 0 0 0 0 0 0 0 0 0 0 0 0 0 0 0 0 0 0 0 0 0 0 1 0 1 0 1 0 1 0 1 0 1 0 1 0 1 0 1 0 1 0 1 0 1 0 1 0 1 0 1 0 0 0 0 0 0 0 0 0 0 0 0 0 0 0 0 0 0 0 0 0 0 0 0 0 0 -1 2zm-29 33l-16 -15 3 -3 11 -12 17 15 -12 13 -3 3zm-32 31l-15 -16 6 -5 10 -9 16 16 -10 10 -6 5zm-34 28l-14 -17 12 -9 5 -4 14 17 -6 5 -12 9zm-38 24l-11 -19 8 -4 10 -6 12 18 -11 7 -8 4zm-42 17l-8 -21 10 -3 10 -4 9 20 -11 4 -10 3zm-46 7l-1 -22 5 0 11 -1 4 -1 5 21 -6 1 -13 1 -5 0zm-47 -8l6 -21 4 1 10 3 6 1 -3 22 -8 -1 -11 -3 -4 -1zm-41 -23l13 -17 3 3 9 6 5 3 -10 19 -7 -4 -10 -7 -3 -3zm-33 -34l17 -13 0 0 7 9 6 6 -15 15 -7 -7 -8 -10 0 0zm-24 -39l19 -10 2 4 6 11 2 2 -18 12 -2 -4 -7 -12 -2 -4zm41 -9l-9 20 -10 -4 -10 -5 9 -20 10 4 10 4zm40 16l-8 20 -11 -4 -10 -4 8 -20 9 4 11 4zm41 14l-6 21 -1 0 -17 -5 -4 -1 7 -21 3 1 16 5 1 0zm42 11l-5 21 -14 -3 -8 -2 6 -21 7 2 14 3zm42 6l-2 22 -7 -1 -12 -1 -4 -1 4 -22 3 0 11 1 7 1zm41 -2l3 22 -5 1 -9 1 -9 1 -1 0 0 -22 0 0 8 0 7 -1 5 -1zm37 -13l10 19 -3 2 -5 3 -6 3 -6 2 -1 0 -7 -21 0 0 5 -2 5 -2 5 -2 3 -2zm30 -18l10 19 -3 2 -4 2 -4 2 0 0 -12 -19 0 0 4 -3 4 -2 4 -2z"/>
  </g>
  <g>
   <path class="fil0" d="M1583 2556l0 22 -6 0 -8 0 -8 0 1 -22 8 0 8 0 6 0zm42 -4l3 22 0 0 -9 1 -9 1 -5 0 -2 -22 4 0 8 -1 8 -1 0 0zm42 -9l5 21 -8 2 -9 2 -5 1 -4 -21 4 -1 9 -2 8 -2zm40 -13l8 21 -5 2 -9 3 -7 2 -7 -21 7 -2 9 -3 5 -2zm39 -17l10 20 -8 4 -9 4 -3 1 -9 -20 2 -1 9 -4 8 -4zm37 -20l12 19 0 0 -9 6 -9 5 -1 0 -10 -19 0 0 9 -5 9 -5 0 0zm35 -24l13 18 -9 6 -9 6 0 0 -12 -18 0 0 9 -6 9 -6zm18 -14l14 17 -2 1 -14 -17 1 -1z"/>
  </g>
  <g>
   <polygon class="fil0" points="990,2540 1110,2548 1109,2570 989,2562 "/>
  </g>
  <g>
   <path class="fil0" d="M1050 2597l-1 -41 22 0 1 41 -11 11 -11 -11zm11 11l-11 0 0 -11 11 11zm501 2l-501 -2 0 -22 501 2 11 11 -11 11zm11 -11l0 11 -11 0 11 -11zm0 -32l0 32 -22 0 0 -32 11 -11 11 11zm-11 -11l11 0 0 11 -11 -11zm-105 0l105 0 0 22 -105 0 0 -22z"/>
  </g>
  <g>
   <path class="fil0" d="M873 2557l1 59 -22 0 -1 -59 12 -11 10 11zm-22 0l0 -12 12 1 -12 11zm52 15l-41 -4 2 -22 41 4 10 11 -12 11zm12 -11l0 12 -12 -1 12 -11zm0 0l0 0 -22 0 0 0 22 0z"/>
  </g>
  <g>
   <polygon class="fil0" points="1060,2608 995,2602 997,2581 1062,2586 "/>
  </g>
  <g>
   <polygon class="fil0" points="659,2617 543,2617 542,2596 659,2596 "/>
  </g>
  <g>
   <polygon class="fil0" points="899,2634 760,2628 760,2606 900,2612 "/>
  </g>
  <g>
   <polygon class="fil0" points="1021,2640 869,2640 869,2618 1021,2618 "/>
  </g>
  <g>
   <polygon class="fil0" points="1715,2640 1036,2640 1036,2618 1714,2618 "/>
  </g>
  <g>
   <polygon class="fil0" points="1929,2641 1784,2641 1784,2619 1928,2619 "/>
  </g>
 </g>
</svg>
