<?xml version="1.0" encoding="UTF-8"?>
<!DOCTYPE svg PUBLIC "-//W3C//DTD SVG 1.1//EN" "http://www.w3.org/Graphics/SVG/1.1/DTD/svg11.dtd">
<!-- Creator: CorelDRAW X6 -->
<svg xmlns="http://www.w3.org/2000/svg" xml:space="preserve" width="128.363mm" height="187.341mm" version="1.1" style="shape-rendering:geometricPrecision; text-rendering:geometricPrecision; image-rendering:optimizeQuality; fill-rule:evenodd; clip-rule:evenodd"
viewBox="0 0 12049 17585"
 xmlns:xlink="http://www.w3.org/1999/xlink">
 <defs>
  <style type="text/css">
   <![CDATA[
    .str0 {stroke:#2B2A29;stroke-width:187.737}
    .fil0 {fill:none}
   ]]>
  </style>
 </defs>
 <g id="Warstwa_x0020_1">
  <metadata id="CorelCorpID_0Corel-Layer"/>
  <g id="_696002672">
   <path class="fil0 str0" d="M6823 3970c870,153 1451,982 1298,1852 -153,870 -982,1451 -1852,1298 -870,-153 -1451,-982 -1298,-1852 153,-870 982,-1451 1852,-1298z"/>
   <path class="fil0 str0" d="M6896 3556c1099,193 1833,1240 1640,2339 -193,1099 -1240,1833 -2339,1640 -1099,-193 -1833,-1240 -1640,-2339 193,-1099 1240,-1833 2339,-1640z"/>
   <path class="fil0 str0" d="M7021 2844c1492,262 2489,1684 2227,3176 -262,1492 -1684,2489 -3176,2227 -1492,-262 -2489,-1684 -2227,-3176 262,-1492 1684,-2489 3176,-2227z"/>
   <line class="fil0 str0" x1="7675" y1="4412" x2="9804" y2= "2103" />
   <line class="fil0 str0" x1="8121" y1="5822" x2="9852" y2= "6092" />
   <path class="fil0 str0" d="M10633 5519c382,67 637,431 570,813 -67,382 -431,637 -813,570 -382,-67 -637,-431 -570,-813 67,-382 431,-637 813,-570z"/>
   <path class="fil0 str0" d="M10691 111c613,108 1023,692 915,1306 -108,613 -692,1023 -1306,915 -613,-108 -1023,-692 -915,-1306 108,-613 692,-1023 1306,-915z"/>
   <line class="fil0 str0" x1="5426" y1="6687" x2="3717" y2= "8329" />
   <path class="fil0 str0" d="M3152 8042c540,95 901,610 806,1150 -95,540 -610,901 -1150,806 -540,-95 -901,-610 -806,-1150 95,-540 610,-901 1150,-806z"/>
   <line class="fil0 str0" x1="5293" y1="4551" x2="4131" y2= "3446" />
   <path class="fil0 str0" d="M3457 1054c760,134 1268,858 1134,1618 -134,760 -858,1268 -1618,1134 -760,-134 -1268,-858 -1134,-1618 134,-760 858,-1268 1618,-1134z"/>
   <line class="fil0 str0" x1="7099" y1="7488" x2="7852" y2= "10081" />
   <path class="fil0 str0" d="M8201 10040c421,74 703,475 629,897 -74,421 -475,703 -897,629 -421,-74 -703,-475 -629,-897 74,-421 475,-703 897,-629z"/>
   <path class="fil0 str0" d="M4596 2215c5421,-2908 10521,6278 4940,8335 -1008,371 -1181,1342 -732,2202 447,858 -2573,2550 -4640,2049 -445,-108 -17,-1549 -329,-3014 -808,209 -3166,526 -2928,-951 26,-163 162,-460 -12,-552 -434,-228 -116,-563 -169,-761 -75,-280 -540,-330 27,-843 747,-676 -1388,-906 -385,-1689 273,-213 1167,-1390 1788,-1482 334,-657 -630,-854 354,-1861l6 -10"/>
   <path class="fil0 str0" d="M4596 2215c1607,-862 3187,-661 4467,102m1046 808c2248,2184 2866,6157 -573,7425 -1008,371 -1181,1342 -732,2202 447,858 -2573,2550 -4640,2049 -445,-108 -17,-1549 -329,-3014 -808,209 -3166,526 -2928,-951 26,-163 162,-460 -12,-552 -434,-228 -116,-563 -169,-761 -75,-280 -540,-330 27,-843 747,-676 -1388,-906 -385,-1689 273,-213 1167,-1390 1788,-1482 334,-657 -630,-854 354,-1861l6 -10"/>
   <line class="fil0 str0" x1="5882" y1="8272" x2="3698" y2= "15947" />
   <path class="fil0 str0" d="M3618 15914c432,76 721,488 645,920 -76,432 -488,721 -920,645 -432,-76 -721,-488 -645,-920 76,-432 488,-721 920,-645z"/>
  </g>
 </g>
</svg>
