<?xml version="1.0" encoding="UTF-8"?>
<!DOCTYPE svg PUBLIC "-//W3C//DTD SVG 1.1//EN" "http://www.w3.org/Graphics/SVG/1.1/DTD/svg11.dtd">
<!-- Creator: CorelDRAW X6 -->
<svg xmlns="http://www.w3.org/2000/svg" xml:space="preserve" width="2480px" height="3508px" version="1.1" style="shape-rendering:geometricPrecision; text-rendering:geometricPrecision; image-rendering:optimizeQuality; fill-rule:evenodd; clip-rule:evenodd"
viewBox="0 0 2480 3507"
 xmlns:xlink="http://www.w3.org/1999/xlink">
 <defs>
  <style type="text/css">
   <![CDATA[
    .str0 {stroke:#2B2A29;stroke-width:23.619}
    .str1 {stroke:#2B2A29;stroke-width:23.619}
    .fil1 {fill:none}
    .fil0 {fill:#2B2A29;fill-rule:nonzero}
   ]]>
  </style>
 </defs>
 <g id="Warstwa_x0020_1">
  <metadata id="CorelCorpID_0Corel-Layer"/>
  <g id="_182997536">
   <g>
    <path class="fil0" d="M1220 1492l0 0 0 24 0 0 0 0 0 -24zm0 0l0 0 0 24 0 0 0 0 0 -24zm0 0l0 0 0 24 0 0 0 0 0 -24zm0 24l0 0 0 0 0 0zm0 -24l0 0 -1 24 0 0 0 -24 0 0zm0 0l0 0 0 0 0 0zm0 0l0 0 0 24 0 0 0 0 0 -24zm0 0l0 0 0 24 0 0 0 0 0 -24zm0 0l0 0 0 24 0 0 0 0 0 -24zm0 0l0 0 0 24 0 0 0 0 0 -24zm0 24l0 0 0 0 0 0zm0 -24l0 0 -1 24 0 0 0 -24 0 0zm0 0l0 0 0 0 0 0zm0 0l0 0 0 24 0 0 0 0 0 -24zm0 0l0 0 0 24 0 0 0 0 0 -24zm0 0l0 0 0 24 0 0 0 0 0 -24zm0 0l0 0 0 24 0 0 0 0 0 -24zm0 24l0 0 0 0 0 0zm0 -24l0 0 -1 24 0 0 0 -24 0 0zm0 0l0 0 0 0 0 0zm0 0l0 0 0 24 0 0 0 0 0 -24zm0 0l0 0 0 24 0 0 0 0 0 -24zm0 0l0 0 0 24 0 0 0 0 0 -24zm0 0l0 0 0 24 0 0 0 0 0 -24zm0 24l0 0 0 0 0 0zm0 -24l0 0 -1 24 0 0 0 -24 0 0zm0 0l0 0 0 0 0 0zm0 0l0 0 0 24 0 0 0 0 0 -24zm0 0l0 0 0 24 0 0 0 0 0 -24zm0 0l0 0 0 24 0 0 0 0 0 -24zm0 0l0 0 0 24 0 0 0 0 0 -24zm0 0l0 0 0 24 0 0 0 0 0 -24zm0 0l0 0 0 24 0 0 0 0 0 -24zm0 0l0 0 0 24 0 0 0 0 0 -24zm0 0l0 0 0 24 0 0 0 0 0 -24zm0 24l0 0 0 0 0 0zm0 -24l0 0 -1 24 0 0 0 -24 0 0zm0 0l0 0 0 0 0 0zm0 0l0 0 0 24 0 0 0 0 0 -24zm0 0l0 0 0 24 0 0 0 0 0 -24zm0 0l0 0 0 24 0 0 0 0 0 -24zm0 24l0 0 0 0 0 0zm0 -24l0 0 0 24 0 0 0 -24 0 0zm0 0l0 0 0 0 0 0zm0 0l0 0 0 24 0 0 0 0 0 -24zm0 0l0 0 0 24 0 0 0 0 0 -24zm0 0l0 0 0 24 0 0 0 0 0 -24zm0 24l0 0 0 0 0 0zm0 -24l0 0 0 24 0 0 0 -24 0 0zm0 0l0 0 0 0 0 0zm0 0l0 0 0 24 0 0 0 0 0 -24zm0 0l0 0 0 24 0 0 0 0 0 -24zm0 24l0 0 0 0 0 0zm0 -24l0 0 0 24 0 0 0 -24 0 0zm0 0l0 0 0 0 0 0zm0 0l0 0 0 24 0 0 0 0 0 -24zm0 0l0 0 0 24 0 0 0 0 0 -24zm0 0l0 0 0 24 0 0 0 0 0 -24zm0 24l0 0 0 0 0 0zm0 -24l0 0 0 24 0 0 0 -24 0 0zm0 0l0 0 0 0 0 0zm0 0l0 0 0 24 0 0 0 0 0 -24zm0 0l0 0 0 24 0 0 0 0 0 -24zm0 0l0 0 0 24 0 0 0 0 0 -24zm0 0l0 0 0 24 0 0 0 0 0 -24zm0 0l0 0 0 24 0 0 0 0 0 -24zm0 0l0 0 0 24 0 0 0 0 0 -24zm0 0l0 0 0 24 0 0 0 0 0 -24zm0 0l0 0 0 24 0 0 0 0 0 -24zm0 0l0 0 0 24 0 0 0 0 0 -24zm0 0l0 0 0 24 0 0 0 0 0 -24zm0 0l0 0 0 24 0 0 0 0 0 -24zm0 0l0 0 0 24 0 0 0 0 0 -24zm0 0l0 0 0 24 0 0 0 0 0 -24zm0 0l0 0 0 24 0 0 0 0 0 -24zm0 0l0 0 0 24 0 0 0 0 0 -24zm0 0l0 0 0 24 0 0 0 0 0 -24zm0 0l0 0 0 24 0 0 0 0 0 -24zm0 0l0 0 0 24 0 0 0 0 0 -24zm0 0l0 0 0 24 0 0 0 0 0 -24zm0 0l0 0 0 24 0 0 0 0 0 -24zm0 0l0 0 0 24 0 0 0 0 0 -24zm0 0l0 0 0 24 0 0 0 0 0 -24zm0 0l0 0 0 24 0 0 0 0 0 -24zm0 0l0 0 0 24 0 0 0 0 0 -24zm0 0l0 0 0 24 0 0 0 0 0 -24zm0 0l0 0 0 24 0 0 0 0 0 -24zm0 0l0 0 0 24 0 0 0 0 0 -24zm0 0l0 0 0 24 0 0 0 0 0 -24zm0 0l0 0 0 24 0 0 0 0 0 -24zm0 0l0 0 0 24 0 0 0 0 0 -24zm0 0l0 0 0 24 0 0 0 0 0 -24zm0 0l0 0 0 24 0 0 0 0 0 -24zm0 0l0 0 0 24 0 0 0 -24 0 0zm0 0l0 0 0 0 0 0zm0 0l0 0 0 24 0 0 0 0 0 -24zm0 24l0 0 0 0 0 0zm0 -24l0 0 0 24 0 0 0 0 0 -24zm0 0l0 0 0 24 0 0 0 0 0 -24zm0 0l0 0 0 24 0 0 0 -24 0 0zm0 0l0 0 0 0 0 0zm0 0l0 0 0 24 0 0 0 0 0 -24zm0 24l0 0 0 0 0 0zm0 -24l0 0 0 24 0 0 0 0 0 -24zm0 0l0 0 0 24 0 0 0 -24 0 0zm0 0l0 0 0 0 0 0zm0 0l0 0 0 24 0 0 0 0 0 -24zm0 24l0 0 0 0 0 0zm0 -24l0 0 0 24 0 0 0 0 0 -24zm0 0l0 0 0 24 0 0 0 0 0 -24zm0 0l0 0 0 24 0 0 0 -24 0 0zm0 0l0 0 0 0 0 0zm0 0l0 0 0 24 0 0 0 0 0 -24zm0 24l0 0 0 0 0 0zm0 -24l0 0 0 24 0 0 0 0 0 -24zm0 0l0 0 0 24 0 0 0 0 0 -24zm0 0l0 0 0 24 0 0 0 -24 0 0zm0 0l0 0 0 0 0 0zm0 0l0 0 1 24 0 0 0 0 0 -24zm1 24l0 0 0 0 0 0zm0 -24l0 0 0 24 0 0 0 0 0 -24zm0 0l0 0 0 24 0 0 0 0 0 -24zm0 0l0 0 0 24 0 0 0 0 0 -24zm0 0l0 0 0 24 0 0 0 0 0 -24zm0 0l0 0 0 24 0 0 0 0 0 -24zm0 0l0 0 0 24 0 0 0 0 0 -24zm0 0l0 0 0 24 0 0 0 0 0 -24zm0 0l0 0 0 24 0 0 0 -24 0 0zm0 0l0 0 0 0 0 0zm0 0l0 0 1 24 0 0 0 0 0 -24zm1 24l0 0 0 0 0 0zm0 -24l0 0 0 24 0 0 0 0 0 -24zm0 0l0 0 0 24 0 0 0 0 0 -24zm0 0l0 0 0 24 0 0 0 0 0 -24zm0 0l0 0 0 24 0 0 0 -24 0 0zm0 0l0 0 0 0 0 0zm0 0l0 0 1 24 0 0 0 0 0 -24zm1 24l0 0 0 0 0 0zm0 -24l0 0 0 24 0 0 0 0 0 -24zm0 0l0 0 0 24 0 0 0 0 0 -24zm0 0l0 0 0 24 0 0 0 0 0 -24zm0 0l0 0 0 24 0 0 0 -24 0 0zm0 0l0 0 0 0 0 0zm0 0l0 0 1 24 0 0 0 0 0 -24zm1 24l0 0 0 0 0 0zm0 -24l0 0 0 24 0 0 0 0 0 -24zm0 0l0 0 0 24 0 0 0 0 0 -24zm0 0l0 0 0 24 0 0 0 0 0 -24zm0 0l0 0 0 24 0 0 0 -24 0 0zm0 0l0 0 0 0 0 0zm0 0l0 0 1 24 0 0 0 0 0 -24zm1 24l0 0 0 0 0 0zm0 -24l0 0 0 24 0 0 0 0 0 -24zm0 0l0 0 0 24 0 0 0 0 0 -24zm0 0l0 0 0 24 0 0 0 -24 0 0zm-278 150l20 -13 -20 0 6 -9 6 -8 6 -8 7 -8 7 -7 7 -7 7 -7 7 -7 8 -6 8 -6 8 -6 8 -5 8 -5 9 -5 9 -5 9 -4 9 -4 9 -4 9 -4 9 -3 10 -3 10 -3 10 -2 10 -2 10 -2 10 -2 10 -1 10 -1 10 -1 10 -1 10 0 10 0 0 24 -10 0 -10 0 -10 1 -10 1 -10 1 -10 1 -9 2 -9 2 -9 2 -9 2 -9 3 -9 3 -9 3 -9 3 -9 4 -8 4 -8 4 -8 4 -8 5 -8 5 -8 5 -7 5 -7 6 -7 6 -7 6 -7 6 -6 7 -6 7 -6 7 -6 7 -6 8 -5 8 -20 0zm20 0l-10 15 -10 -15 20 0zm-257 -126l0 -24 0 0 9 0 9 0 9 1 9 1 9 1 9 1 9 2 9 2 9 2 9 2 9 3 9 3 9 3 9 4 8 4 8 4 8 4 8 5 8 5 8 5 8 5 8 6 7 6 7 6 7 7 7 7 7 7 7 7 6 8 6 8 6 8 6 9 -20 13 -5 -8 -6 -8 -6 -7 -6 -7 -6 -7 -6 -7 -6 -6 -7 -6 -7 -6 -7 -6 -7 -5 -7 -5 -7 -5 -7 -5 -7 -4 -8 -4 -8 -4 -8 -4 -8 -3 -8 -3 -8 -3 -8 -3 -8 -2 -8 -2 -8 -2 -8 -2 -9 -1 -9 -1 -9 -1 -9 -1 -9 0 -9 0 0 0zm-239 96l23 -1 -21 -7 6 -6 6 -6 6 -6 6 -6 6 -6 6 -6 6 -5 6 -5 6 -5 7 -5 7 -5 7 -4 7 -4 7 -4 7 -4 7 -4 7 -4 8 -3 8 -3 8 -3 8 -3 8 -2 8 -2 8 -2 8 -2 9 -2 9 -1 9 -1 9 -1 9 -1 9 0 9 0 0 24 -9 0 -9 0 -8 1 -8 1 -8 1 -8 1 -8 1 -8 2 -8 2 -7 2 -7 2 -7 2 -7 3 -7 3 -7 3 -7 3 -7 3 -7 4 -6 4 -6 4 -6 4 -6 4 -6 4 -6 5 -6 5 -6 5 -6 5 -6 5 -6 5 -6 6 -5 6 -5 6 -21 -7zm21 7l-19 22 -1 -29 21 7zm-21 -34l24 0 0 0 0 1 0 1 0 1 0 1 0 1 0 1 0 1 0 1 0 1 0 1 0 1 0 1 0 1 0 1 0 1 0 1 0 1 0 1 0 1 0 1 0 1 0 1 0 1 0 1 0 1 0 1 0 1 0 1 0 1 0 1 0 1 0 1 -23 1 0 -1 0 -1 0 -1 0 -1 0 -1 0 -1 0 -1 0 -1 0 -1 0 -1 0 -1 0 -1 0 -1 0 -1 0 -1 0 -1 0 -1 0 -1 0 -1 0 -1 0 -1 0 -1 0 -1 0 -1 0 -1 0 -1 0 -1 0 -1 0 -1 0 -1 0 -1 0 -1 0 0zm744 -699l24 0 -11 12 -47 2 -46 4 -44 6 -42 7 -40 9 -39 10 -37 12 -36 13 -34 15 -32 16 -31 17 -29 18 -28 19 -26 21 -25 22 -23 23 -22 24 -20 25 -19 26 -17 27 -16 27 -14 28 -13 29 -11 30 -10 30 -9 31 -7 32 -6 32 -5 33 -3 33 -2 34 -1 34 -24 0 1 -35 2 -34 3 -34 5 -34 6 -33 8 -33 9 -32 10 -31 12 -31 13 -30 15 -29 16 -28 18 -28 19 -27 21 -26 22 -25 24 -24 26 -23 27 -21 29 -20 30 -19 32 -18 33 -16 35 -15 37 -14 38 -12 40 -11 41 -9 43 -8 45 -6 46 -4 48 -3 -11 12zm24 0l0 11 -11 0 11 -12zm0 0l0 0 -24 0 0 0 12 -12 11 12zm-24 0l0 -12 12 0 -12 12zm13 -12l1 24 -1 0 0 0 0 0 0 0 0 0 0 0 0 0 0 0 0 0 0 0 0 0 0 0 0 0 0 0 0 0 0 0 0 0 0 0 0 0 0 0 0 0 0 0 0 0 0 0 0 0 0 0 0 0 0 0 0 0 0 0 0 0 0 0 0 0 1 -24 0 0 0 0 0 0 0 0 0 0 0 0 0 0 0 0 0 0 0 0 0 0 0 0 0 0 0 0 0 0 0 0 0 0 0 0 0 0 0 0 0 0 0 0 0 0 0 0 0 0 0 0 0 0 0 0 0 0 0 0 0 0 0 0 -1 0zm1 24l0 0 0 0 1 0zm13 -12l-24 0 12 12 0 0 0 0 0 0 0 0 0 0 0 0 0 0 0 0 0 0 0 0 0 0 0 0 0 0 0 0 0 0 0 0 0 0 0 0 0 0 0 0 0 0 0 0 0 0 0 0 0 0 0 0 0 0 0 0 0 0 0 0 0 0 0 0 -1 -24 0 0 0 0 0 0 0 0 0 0 0 0 0 0 0 0 0 0 0 0 0 0 0 0 0 0 0 0 0 0 0 0 0 0 0 0 0 0 0 0 0 0 0 0 0 0 0 0 0 0 0 0 0 0 0 0 0 0 0 0 0 0 0 0 12 12zm-12 -12l12 0 0 12 -12 -12zm-11 12l0 0 24 0 0 0 -12 12 -11 -12zm11 12l-11 0 0 -11 11 12zm756 687l-24 0 0 0 -1 -34 -2 -34 -3 -33 -5 -33 -6 -32 -7 -32 -9 -31 -10 -30 -11 -30 -13 -29 -14 -28 -16 -27 -17 -27 -19 -26 -20 -25 -22 -24 -23 -23 -25 -22 -26 -21 -28 -19 -29 -18 -31 -17 -32 -16 -34 -15 -36 -13 -37 -12 -39 -10 -40 -9 -42 -7 -44 -6 -46 -4 -47 -2 1 -24 48 3 46 4 45 6 43 8 41 9 40 11 38 12 37 14 35 15 33 16 32 18 30 19 29 20 27 21 26 23 24 24 22 25 21 26 19 27 18 28 16 28 15 29 13 30 12 31 10 31 9 32 8 33 6 33 5 34 3 34 2 34 1 35 0 0zm-21 34l18 -16 -21 7 0 -1 0 -1 0 -1 0 -1 0 -1 0 -1 0 -1 0 -1 0 -1 0 -1 0 -1 0 -1 0 -1 0 -1 0 -1 0 -1 0 -1 0 -1 0 -1 0 -1 0 -1 0 -1 0 -1 0 -1 0 -1 0 -1 0 -1 0 -1 0 -1 0 -1 0 -1 0 -1 24 0 0 1 0 1 0 1 0 1 0 1 0 1 0 1 0 1 0 1 0 1 0 1 0 1 0 1 0 1 0 1 0 1 0 1 0 1 0 1 0 1 0 1 0 1 0 1 0 1 0 1 0 1 0 1 0 1 0 1 0 1 0 1 0 1 -21 7zm21 -7l-1 29 -19 -22 21 -7zm-239 -96l0 -24 0 0 9 0 9 0 9 1 9 1 9 1 9 1 9 2 8 2 8 2 8 2 8 2 8 3 8 3 8 3 8 3 7 4 7 4 7 4 7 4 7 4 7 4 7 5 7 5 6 5 6 5 6 5 6 6 6 6 6 6 6 6 6 6 6 6 -18 16 -5 -6 -5 -6 -6 -6 -6 -5 -6 -5 -6 -5 -6 -5 -6 -5 -6 -5 -6 -4 -6 -4 -6 -4 -6 -4 -6 -4 -7 -4 -7 -3 -7 -3 -7 -3 -7 -3 -7 -3 -7 -2 -7 -2 -7 -2 -8 -2 -8 -2 -8 -1 -8 -1 -8 -1 -8 -1 -8 -1 -9 0 -9 0 0 0zm-257 126l20 -13 -20 0 6 -9 6 -8 6 -8 6 -8 7 -7 7 -7 7 -7 7 -7 7 -6 7 -6 8 -6 8 -5 8 -5 8 -5 8 -5 8 -4 8 -4 8 -4 9 -4 9 -3 9 -3 9 -3 9 -2 9 -2 9 -2 9 -2 9 -1 9 -1 9 -1 9 -1 9 0 9 0 0 24 -9 0 -9 0 -9 1 -9 1 -9 1 -9 1 -8 2 -8 2 -8 2 -8 2 -8 3 -8 3 -8 3 -8 3 -8 4 -8 4 -8 4 -7 4 -7 5 -7 5 -7 5 -7 5 -7 6 -7 6 -7 6 -6 6 -6 7 -6 7 -6 7 -6 7 -6 8 -5 8 -20 0zm20 0l-10 15 -10 -15 20 0zm-278 -126l0 -24 0 0 10 0 10 0 10 1 10 1 10 1 10 1 10 2 10 2 10 2 10 2 10 3 10 3 9 3 9 4 9 4 9 4 9 4 9 5 9 5 8 5 8 5 8 6 8 6 8 6 7 7 7 7 7 7 7 7 7 8 6 8 6 8 6 9 -20 13 -5 -8 -6 -8 -6 -7 -6 -7 -6 -7 -6 -7 -7 -6 -7 -6 -7 -6 -7 -6 -7 -5 -8 -5 -8 -5 -8 -5 -8 -4 -8 -4 -8 -4 -9 -4 -9 -3 -9 -3 -9 -3 -9 -3 -9 -2 -9 -2 -9 -2 -9 -2 -10 -1 -10 -1 -10 -1 -10 -1 -10 0 -10 0 0 0zm0 -24l0 0 0 0 0 0z"/>
   </g>
   <g>
    <path class="fil0" d="M1228 894l-16 -17 16 0 25 22 23 23 22 23 20 23 19 24 17 24 16 24 15 24 14 24 13 24 11 25 10 25 9 25 8 25 7 25 7 25 6 25 5 25 4 25 4 24 3 24 3 24 2 24 2 24 1 24 1 23 1 23 1 23 1 22 0 22 0 22 0 21 -24 0 0 -21 0 -22 0 -22 -1 -22 -1 -23 -1 -23 -1 -23 -1 -23 -2 -23 -2 -24 -3 -24 -3 -24 -4 -24 -4 -24 -5 -24 -6 -24 -6 -24 -7 -24 -8 -24 -9 -24 -10 -24 -11 -24 -12 -24 -13 -24 -14 -23 -16 -23 -17 -23 -18 -23 -20 -23 -21 -22 -23 -22 -24 -22 16 0zm-16 -17l8 -7 8 7 -16 0zm-252 758l-24 0 0 -48 0 -45 1 -43 2 -40 2 -38 3 -36 4 -34 4 -32 5 -30 5 -28 6 -27 6 -25 7 -24 8 -23 8 -21 9 -20 9 -19 10 -18 10 -17 11 -17 11 -16 12 -15 12 -15 13 -14 13 -14 14 -14 14 -14 14 -14 15 -14 15 -14 16 -14 16 -15 16 17 -16 15 -16 14 -15 14 -15 14 -14 14 -14 13 -13 14 -13 14 -12 14 -12 14 -11 15 -11 15 -10 16 -10 16 -9 17 -9 18 -8 19 -8 20 -7 22 -7 23 -6 25 -6 26 -5 28 -5 30 -4 31 -3 33 -3 35 -2 38 -2 40 -1 42 0 45 0 47z"/>
   </g>
   <g>
    <polygon class="fil0" points="1206,2234 1206,1497 1230,1497 1230,2234 "/>
   </g>
   <g>
    <path class="fil1 str0" d="M683 1750c36,0 74,-34 74,-70 0,-36 -35,-73 -72,-73 -37,0 -73,37 -73,74 0,36 35,69 72,69zm144 208c0,-35 0,-72 0,-108 0,-35 2,-32 0,-54 -9,-27 -27,-36 -46,-36 -39,0 -52,0 -82,0 -37,0 -54,0 -91,0 -18,0 -30,-1 -44,11 -19,20 -17,22 -17,80 0,28 0,78 0,110 0,28 -5,73 24,73 27,0 27,-19 27,-48 0,-41 0,-51 0,-75 0,-26 -1,-31 4,-31 5,0 5,0 5,28 0,26 0,389 0,410 0,18 10,37 37,37 27,0 39,-16 39,-34 0,-32 0,-173 0,-189 0,-18 1,-27 5,-27 4,0 4,9 4,27 0,16 0,156 0,189 0,11 12,36 40,36 18,0 35,-23 35,-35 0,-72 0,-392 0,-415 0,-12 -1,-28 4,-28 4,0 4,5 4,22 0,20 0,41 0,69 0,48 7,60 26,60 27,0 25,-46 25,-72z"/>
    <path class="fil1 str0" d="M683 1750c36,0 74,-34 74,-70 0,-36 -35,-73 -72,-73 -37,0 -73,37 -73,74 0,36 35,69 72,69zm144 208c0,-35 0,-72 0,-108 0,-35 2,-32 0,-54 -9,-27 -27,-36 -46,-36 -39,0 -52,0 -82,0 -37,0 -54,0 -91,0 -18,0 -30,-1 -44,11 -19,20 -17,22 -17,80 0,28 0,78 0,110 0,28 -5,73 24,73 27,0 27,-19 27,-48 0,-41 0,-51 0,-75 0,-26 -1,-31 4,-31 5,0 5,0 5,28 0,26 0,389 0,410 0,18 10,37 37,37 27,0 39,-16 39,-34 0,-32 0,-173 0,-189 0,-18 1,-27 5,-27 4,0 4,9 4,27 0,16 0,156 0,189 0,11 12,36 40,36 18,0 35,-23 35,-35 0,-72 0,-392 0,-415 0,-12 -1,-28 4,-28 4,0 4,5 4,22 0,20 0,41 0,69 0,48 7,60 26,60 27,0 25,-46 25,-72z"/>
   </g>
   <g>
    <path class="fil1 str0" d="M1019 1850c30,0 62,-28 62,-58 0,-30 -30,-61 -60,-61 -31,0 -61,31 -61,61 0,30 29,58 60,58zm121 174c0,-29 0,-60 0,-90 0,-30 2,-27 0,-45 -8,-23 -23,-30 -39,-30 -32,0 -43,0 -69,0 -31,0 -46,0 -76,0 -15,0 -25,-1 -36,9 -16,17 -14,19 -14,67 0,24 0,66 0,92 0,24 -4,61 20,61 23,0 23,-16 23,-40 0,-34 0,-43 0,-63 0,-22 -1,-26 3,-26 5,0 5,0 5,23 0,21 0,325 0,342 0,15 8,31 31,31 23,0 32,-13 32,-28 0,-27 0,-145 0,-158 0,-15 1,-22 5,-22 4,0 3,7 3,22 0,14 0,130 0,158 0,10 10,30 33,30 15,0 29,-19 29,-29 0,-60 0,-328 0,-347 0,-10 -1,-23 3,-23 4,0 4,4 4,19 0,17 0,34 0,58 0,40 6,50 22,50 23,0 21,-39 21,-60z"/>
    <path class="fil1 str0" d="M1019 1850c30,0 62,-28 62,-58 0,-30 -30,-61 -60,-61 -31,0 -61,31 -61,61 0,30 29,58 60,58zm121 174c0,-29 0,-60 0,-90 0,-30 2,-27 0,-45 -8,-23 -23,-30 -39,-30 -32,0 -43,0 -69,0 -31,0 -46,0 -76,0 -15,0 -25,-1 -36,9 -16,17 -14,19 -14,67 0,24 0,66 0,92 0,24 -4,61 20,61 23,0 23,-16 23,-40 0,-34 0,-43 0,-63 0,-22 -1,-26 3,-26 5,0 5,0 5,23 0,21 0,325 0,342 0,15 8,31 31,31 23,0 32,-13 32,-28 0,-27 0,-145 0,-158 0,-15 1,-22 5,-22 4,0 3,7 3,22 0,14 0,130 0,158 0,10 10,30 33,30 15,0 29,-19 29,-29 0,-60 0,-328 0,-347 0,-10 -1,-23 3,-23 4,0 4,4 4,19 0,17 0,34 0,58 0,40 6,50 22,50 23,0 21,-39 21,-60z"/>
   </g>
   <g>
    <path class="fil1 str0" d="M1778 1916c26,0 53,-25 53,-51 0,-26 -26,-53 -52,-53 -27,0 -53,27 -53,53 0,26 25,50 52,50zm104 151c0,-25 0,-52 0,-78 0,-26 2,-23 0,-39 -7,-20 -20,-26 -33,-26 -28,0 -38,0 -60,0 -27,0 -39,0 -66,0 -13,0 -22,-1 -32,8 -14,15 -12,16 -12,58 0,21 0,57 0,80 0,21 -4,53 17,53 20,0 20,-14 20,-35 0,-29 0,-37 0,-54 0,-19 -1,-22 3,-22 4,0 4,0 4,20 0,19 0,282 0,297 0,13 7,27 27,27 20,0 28,-12 28,-25 0,-23 0,-126 0,-137 0,-13 1,-19 4,-19 3,0 3,6 3,19 0,12 0,113 0,137 0,8 9,26 29,26 13,0 25,-17 25,-25 0,-52 0,-284 0,-300 0,-9 -1,-20 3,-20 3,0 3,3 3,16 0,15 0,29 0,50 0,34 5,43 19,43 20,0 18,-34 18,-52z"/>
    <path class="fil1 str0" d="M1778 1916c26,0 53,-25 53,-51 0,-26 -26,-53 -52,-53 -27,0 -53,27 -53,53 0,26 25,50 52,50zm104 151c0,-25 0,-52 0,-78 0,-26 2,-23 0,-39 -7,-20 -20,-26 -33,-26 -28,0 -38,0 -60,0 -27,0 -39,0 -66,0 -13,0 -22,-1 -32,8 -14,15 -12,16 -12,58 0,21 0,57 0,80 0,21 -4,53 17,53 20,0 20,-14 20,-35 0,-29 0,-37 0,-54 0,-19 -1,-22 3,-22 4,0 4,0 4,20 0,19 0,282 0,297 0,13 7,27 27,27 20,0 28,-12 28,-25 0,-23 0,-126 0,-137 0,-13 1,-19 4,-19 3,0 3,6 3,19 0,12 0,113 0,137 0,8 9,26 29,26 13,0 25,-17 25,-25 0,-52 0,-284 0,-300 0,-9 -1,-20 3,-20 3,0 3,3 3,16 0,15 0,29 0,50 0,34 5,43 19,43 20,0 18,-34 18,-52z"/>
   </g>
   <g>
    <path class="fil1 str0" d="M1439 1813c31,0 63,-31 63,-63 0,-33 -30,-66 -62,-66 -31,0 -63,34 -63,67 0,33 30,63 61,63zm139 189c-17,-52 -24,-73 -31,-98 -8,-33 -8,-25 -16,-49 -8,-25 -24,-33 -39,-33 -33,0 -13,0 -39,0 -31,0 -31,0 -63,0 -16,0 -39,8 -47,33 -8,24 -8,24 -16,49 -8,25 -24,74 -31,98 -8,25 -24,57 0,66 24,8 39,-41 47,-66 8,-24 8,-24 16,-49 2,-5 5,-19 11,-16 4,2 0,7 -3,16 -6,23 -55,180 -55,180l63 0c0,0 0,177 0,196 0,16 5,33 27,33 21,0 28,-17 28,-33 0,-29 0,-157 0,-171 0,-16 0,-24 4,-24 4,0 3,8 3,24 0,15 0,141 0,171 0,10 5,32 28,32 21,0 27,-22 27,-32 0,-65 0,-196 0,-196l63 0c0,0 -43,-155 -49,-180 -2,-11 -5,-16 -1,-18 5,-1 2,1 11,27 8,24 8,24 16,49 5,17 16,57 31,57 24,0 31,-16 16,-66z"/>
    <path class="fil1 str0" d="M1439 1813c31,0 63,-31 63,-63 0,-33 -30,-66 -62,-66 -31,0 -63,34 -63,67 0,33 30,63 61,63zm139 189c-17,-52 -24,-73 -31,-98 -8,-33 -8,-25 -16,-49 -8,-25 -24,-33 -39,-33 -33,0 -13,0 -39,0 -31,0 -31,0 -63,0 -16,0 -39,8 -47,33 -8,24 -8,24 -16,49 -8,25 -24,74 -31,98 -8,25 -24,57 0,66 24,8 39,-41 47,-66 8,-24 8,-24 16,-49 2,-5 5,-19 11,-16 4,2 0,7 -3,16 -6,23 -55,180 -55,180l63 0c0,0 0,177 0,196 0,16 5,33 27,33 21,0 28,-17 28,-33 0,-29 0,-157 0,-171 0,-16 0,-24 4,-24 4,0 3,8 3,24 0,15 0,141 0,171 0,10 5,32 28,32 21,0 27,-22 27,-32 0,-65 0,-196 0,-196l63 0c0,0 -43,-155 -49,-180 -2,-11 -5,-16 -1,-18 5,-1 2,1 11,27 8,24 8,24 16,49 5,17 16,57 31,57 24,0 31,-16 16,-66z"/>
   </g>
   <polyline class="fil1 str1" points="317,1981 547,1981 547,1981 "/>
   <line class="fil1 str1" x1="1863" y1="1709" x2="2124" y2= "1709" />
   <line class="fil1 str1" x1="1925" y1="1761" x2="2082" y2= "1761" />
   <polyline class="fil1 str1" points="223,1911 442,1911 446,1915 "/>
   <line class="fil1 str1" x1="826" y1="2000" x2="905" y2= "2000" />
  </g>
 </g>
</svg>
