<?xml version="1.0" encoding="UTF-8"?>
<!DOCTYPE svg PUBLIC "-//W3C//DTD SVG 1.1//EN" "http://www.w3.org/Graphics/SVG/1.1/DTD/svg11.dtd">
<!-- Creator: CorelDRAW X6 -->
<svg xmlns="http://www.w3.org/2000/svg" xml:space="preserve" width="96.6705mm" height="185.966mm" version="1.1" style="shape-rendering:geometricPrecision; text-rendering:geometricPrecision; image-rendering:optimizeQuality; fill-rule:evenodd; clip-rule:evenodd"
viewBox="0 0 9579 18428"
 xmlns:xlink="http://www.w3.org/1999/xlink">
 <defs>
  <style type="text/css">
   <![CDATA[
    .str0 {stroke:#2B2A29;stroke-width:198.187}
    .fil0 {fill:none}
   ]]>
  </style>
 </defs>
 <g id="Warstwa_x0020_1">
  <metadata id="CorelCorpID_0Corel-Layer"/>
  <path class="fil0 str0" d="M7017 9324c351,1050 210,3268 103,5355m-61 123l0 0m-16 365l0 6m-5763 -5909c299,-113 6,49 380,-187 445,-281 710,-61 912,-61m-1137 -1122c325,18 390,413 779,518 166,45 364,518 419,522m-805 473c81,94 590,292 765,645 14,27 -45,-162 -95,-162m2337 -1555c217,-78 334,-234 729,-166 370,64 714,315 714,686 0,53 -8,47 -51,113m-1765 -1827c-166,302 -372,2581 -492,4517m-145 -7618c-475,399 -1021,2677 -1117,3867 -4,55 -125,2540 -247,4288m-633 -2788c197,319 -515,502 -256,803 105,122 -350,984 -177,1059 133,58 984,466 1092,534m2872 -2951c76,178 33,1345 -43,1519 -19,44 -52,1750 241,1367 546,-713 555,-523 570,-1282 6,-310 -195,-1076 99,-1488m-1755 -2312c209,91 638,442 978,464 104,7 669,136 715,269m634 367c88,117 694,581 752,237 57,-338 -21,-906 -310,-1144 -308,-253 -768,-448 -987,-661m-1468 1596c426,0 1161,-408 1379,-395 72,4 733,290 725,558 -2,71 301,503 319,748 0,3 213,389 98,420l-36 114m-2264 -4721c134,207 53,1365 0,1687m468 -2167c533,334 654,2035 686,2079 7,-23 3,-45 3,-72m-1559 -2375c-258,-8 -643,227 -961,612m2082 -1123c-65,0 -225,84 -289,90 -479,42 -629,364 -833,421 111,172 76,1237 70,1496 -3,141 -155,924 -149,1076 2,57 0,126 0,185m-643 -2687c-536,-107 -462,357 -698,756 -75,127 -266,482 -286,615 -5,3 -513,1141 -642,1289 -269,307 -472,1433 -822,1504 -220,45 -405,472 -405,665 0,1145 933,699 961,928m1886 -6612c83,293 41,563 8,855 23,-41 84,-209 114,-219 370,-128 827,-491 1077,-536 3,2 454,57 551,126 51,37 313,117 497,259 153,117 94,350 313,622 251,311 409,966 736,1268 267,247 289,880 163,1216m-4122 -3928c88,-55 232,-49 330,-49m-207 -727c154,-12 255,-12 406,-12m-848 -795c80,210 -144,868 61,1062 129,122 -29,392 135,643 65,100 -28,14 116,173 355,395 297,232 776,-28 277,-151 496,-466 496,-773m3 -320c358,-120 101,-165 354,-196 59,-7 8,-253 176,-234m64 1692c69,82 -44,-95 -62,-259 -98,-924 572,-305 320,-1110 -187,-597 -474,-91 -228,-497 210,-347 -909,-1091 -1200,-1006 -1152,337 -1000,625 -1010,1012 197,-27 1213,-93 1213,252 0,309 487,67 373,345 -93,225 266,195 217,393 -30,122 447,381 319,275m4211 12620c337,239 337,688 0,1096 -1103,716 -2205,1433 -3308,2149l-21 -1264m-1921 -3313c-341,-420 -676,-843 -983,-1285 -1061,-506 -1796,-96 -2846,112 611,1166 1057,2387 1668,3553 413,-178 970,-317 1587,-386m4079 -1681c203,-112 425,-227 674,-355 -824,-695 -1683,-1427 -2467,-2079m-314 -260c-1020,86 -1791,466 -2381,1096m2925 5862l-42 -43 0 0 -2474 -2540 -623 -640 -21 -1011m6296 1098c234,102 423,430 7,1095m209 -878l-3365 2111 0 0m3374 -1711l-3367 2122 0 0m3314 -2847l-6459 -990m3223 -906l-84 3877m-2960 -4211c-557,-228 -1308,-193 -2191,137m2402 220c-557,-228 -1308,-193 -2191,137m5025 -160l-3223 906 3139 2971 3329 -1980 -3245 -1896zm-3038 -11088c96,-132 32,-44 0,0zm1572 4400c-278,971 263,1336 260,1367 -20,166 -324,294 49,551 2,1 53,282 384,517 245,175 443,-711 912,-86 164,218 -42,344 45,570 -132,0 357,249 452,182 101,-72 238,-135 388,-194l0 0c306,-120 670,-224 909,-353 330,-179 23,-1791 -171,-2063 -215,-300 -1107,-863 -1394,-745 -195,81 -868,21 -1124,21 -204,0 -589,118 -711,234z"/>
 </g>
</svg>
