<?xml version="1.0" encoding="UTF-8"?>
<!DOCTYPE svg PUBLIC "-//W3C//DTD SVG 1.1//EN" "http://www.w3.org/Graphics/SVG/1.1/DTD/svg11.dtd">
<!-- Creator: CorelDRAW X6 -->
<svg xmlns="http://www.w3.org/2000/svg" xml:space="preserve" width="2480px" height="3508px" version="1.1" style="shape-rendering:geometricPrecision; text-rendering:geometricPrecision; image-rendering:optimizeQuality; fill-rule:evenodd; clip-rule:evenodd"
viewBox="0 0 2480 3507"
 xmlns:xlink="http://www.w3.org/1999/xlink">
 <defs>
  <style type="text/css">
   <![CDATA[
    .str0 {stroke:#2B2A29;stroke-width:23.619}
    .fil0 {fill:none}
   ]]>
  </style>
 </defs>
 <g id="Warstwa_x0020_1">
  <metadata id="CorelCorpID_0Corel-Layer"/>
  <path class="fil0 str0" d="M1490 1717c40,120 24,375 12,614m-7 14l0 0m-2 42l0 1m-661 -677c34,-13 1,6 44,-21 51,-32 81,-7 105,-7m-130 -129c37,2 45,47 89,59 19,5 42,59 48,60m-92 54c9,11 68,33 88,74 2,3 -5,-19 -11,-19m268 -178c25,-9 38,-27 84,-19 42,7 82,36 82,79 0,6 -1,5 -6,13m-202 -209c-19,35 -43,296 -56,518m-17 -873c-54,46 -117,307 -128,443 -1,6 -14,291 -28,491m-73 -320c23,37 -59,58 -29,92 12,14 -40,113 -20,121 15,7 113,53 125,61m329 -338c9,20 4,154 -5,174 -2,5 -6,201 28,157 63,-82 64,-60 65,-147 1,-36 -22,-123 11,-171m-201 -265c24,10 73,51 112,53 12,1 77,16 82,31m73 42c10,13 80,67 86,27 7,-39 -2,-104 -36,-131 -35,-29 -88,-51 -113,-76m-168 183c49,0 133,-47 158,-45 8,0 84,33 83,64 0,8 35,58 37,86 0,0 24,45 11,48l-4 13m-260 -541c15,24 6,156 0,193m54 -248c61,38 75,233 79,238 1,-3 0,-5 0,-8m-179 -272c-30,-1 -74,26 -110,70m239 -129c-7,0 -26,10 -33,10 -55,5 -72,42 -95,48 13,20 9,142 8,171 0,16 -18,106 -17,123 0,7 0,14 0,21m-74 -308c-61,-12 -53,41 -80,87 -9,15 -30,55 -33,70 -1,0 -59,131 -74,148 -31,35 -54,164 -94,172 -25,5 -46,54 -46,76 0,131 107,80 110,106m216 -758c9,34 5,64 1,98 3,-5 10,-24 13,-25 42,-15 95,-56 124,-61 0,0 52,7 63,14 6,4 36,13 57,30 17,13 11,40 36,71 29,36 47,111 84,145 31,28 33,101 19,139m-473 -450c10,-6 27,-6 38,-6m-24 -83c18,-1 29,-1 47,-1m-97 -91c9,24 -16,99 7,122 15,14 -3,45 16,74 7,11 -3,2 13,20 41,45 34,27 89,-3 32,-17 57,-53 57,-89m0 -37c41,-14 12,-19 41,-22 7,-1 1,-29 20,-27m7 194c8,9 -5,-11 -7,-30 -11,-106 66,-35 37,-127 -21,-68 -54,-10 -26,-57 24,-40 -104,-125 -138,-115 -132,39 -115,72 -116,116 23,-3 139,-11 139,29 0,35 56,8 43,40 -11,26 30,22 25,45 -3,14 51,44 37,32m483 1447c39,27 39,79 0,126 -126,82 -253,164 -379,246l-2 -145m-220 -380c-39,-48 -77,-97 -113,-147 -122,-58 -206,-11 -326,13 70,134 121,274 191,407 47,-20 111,-36 182,-44m468 -193c23,-13 49,-26 77,-41 -94,-80 -193,-164 -283,-238m-36 -30c-117,10 -205,53 -273,126m335 672l-5 -5 0 0 -284 -291 -71 -73 -2 -116m722 126c27,12 48,49 1,126m24 -101l-386 242 0 0m387 -196l-386 243 0 0m380 -326l-740 -114m370 -104l-10 444m-339 -483c-64,-26 -150,-22 -251,16m275 25c-64,-26 -150,-22 -251,16m576 -18l-370 104 360 341 382 -227 -372 -217zm-348 -1271c11,-15 4,-5 0,0zm180 504c-32,111 30,153 30,157 -2,19 -37,34 6,63 0,0 6,32 44,59 28,20 51,-82 105,-10 19,25 -5,39 5,65 -15,0 41,29 52,21 12,-8 27,-16 44,-22l0 0c35,-14 77,-26 104,-41 38,-21 3,-205 -20,-236 -25,-34 -127,-99 -160,-85 -22,9 -100,2 -129,2 -23,0 -67,13 -82,27z"/>
 </g>
</svg>
