<?xml version="1.0" encoding="UTF-8"?>
<!DOCTYPE svg PUBLIC "-//W3C//DTD SVG 1.1//EN" "http://www.w3.org/Graphics/SVG/1.1/DTD/svg11.dtd">
<!-- Creator: CorelDRAW X6 -->
<svg xmlns="http://www.w3.org/2000/svg" xml:space="preserve" width="2480px" height="3508px" version="1.1" style="shape-rendering:geometricPrecision; text-rendering:geometricPrecision; image-rendering:optimizeQuality; fill-rule:evenodd; clip-rule:evenodd"
viewBox="0 0 2480 3507"
 xmlns:xlink="http://www.w3.org/1999/xlink">
 <defs>
  <style type="text/css">
   <![CDATA[
    .fil0 {fill:#2B2A29;fill-rule:nonzero}
   ]]>
  </style>
 </defs>
 <g id="Warstwa_x0020_1">
  <metadata id="CorelCorpID_0Corel-Layer"/>
  <g>
   <polygon class="fil0" points="734,1484 635,1688 613,1679 712,1475 "/>
  </g>
  <g>
   <polygon class="fil0" points="717,1691 625,1692 625,1669 716,1669 "/>
  </g>
  <g>
   <path class="fil0" d="M709 1478l0 -1 22 9 0 1 -22 -9zm-61 321l-154 -69 10 -21 154 69 7 10 -17 10zm17 -10l0 18 -17 -8 17 -10zm0 0l0 0 -24 0 0 0 24 0zm-147 271l-154 -69 10 -21 154 69 -10 21zm5 -10l0 0 0 0 0 0zm163 -329l-71 -33 10 -20 71 33 -10 20zm374 -123l-165 0 0 -23 165 0 0 23zm312 -147l-158 0 0 -23 158 0 0 23zm517 89l-935 0 0 -23 935 0 0 23zm-1348 93l-323 1 0 -23 323 -1 0 23zm1070 147l5 87 -24 1 -5 -87 24 -1zm414 166l-6 -92 24 -2 6 92 -24 2zm-10 -132l-6 -92 24 -2 6 92 -24 2zm-1309 -52l-26 -13 11 -20 26 13 2 2 -13 19zm11 -20l1 1 1 1 -2 -2zm534 479l-547 -461 16 -17 547 461 -15 18 -1 -1zm1 1l0 0 0 0 1 1zm38 27l-38 -27 14 -18 38 27 5 9 -19 9zm14 -18l5 3 0 6 -5 -9zm-19 9l0 0 24 0 0 0 -24 0zm392 -378l-70 17 -6 -22 70 -17 0 0 6 22zm-6 -22l0 0 0 0 0 0zm83 4l-77 18 -6 -22 77 -18 3 0 3 22zm-6 -22l1 0 1 0 -3 0zm103 21l-100 2 0 -23 100 -2 5 22 -5 1zm0 -23l55 -1 -50 23 -5 -22zm-142 63l137 -62 10 21 -137 62 -10 -21zm78 69l-6 -62 24 -2 6 62 -17 11 -7 -9zm7 9l-6 -3 -1 -7 7 9zm4 2l-4 -2 9 -21 4 2 3 19 -12 1zm9 -21l18 8 -16 12 -3 -19zm-13 2l1 -1 15 18 -1 1 -15 -18zm-49 21l-9 -73 24 -3 9 73 -24 3zm-477 -41l20 -46 22 9 -20 46 -14 7 -8 -15zm8 15l-13 -3 5 -12 8 15zm6 2l-6 -2 6 -22 6 2 -6 22zm559 -56l-8 -128 24 -1 8 128 -24 1zm-65 4l-8 -126 24 -1 8 126 -24 1zm-75 4l-8 -123 24 -1 8 123 -24 1zm-37 0l-8 -119 24 -1 8 119 -24 1zm-162 1l-6 -105 24 -1 6 105 -24 1zm-46 14l-5 -114 24 -1 5 114 -24 1zm-57 -8l-1 -102 24 0 1 102 -12 11 -12 -11zm24 0l0 11 -12 0 12 -11zm-12 -11l0 0 0 23 0 0 0 -23zm-69 0l-1 -85 24 0 1 85 -24 0zm12 0l0 0 0 0 0 0zm-68 -6l-1 -73 24 0 1 73 -12 11 -12 -11zm24 0l0 11 -12 0 12 -11zm-12 -11l0 0 0 23 0 0 0 -23zm-178 -57l32 -2 2 23 -32 2 -13 -12 11 -11zm2 23l-13 1 1 -13 13 12zm13 -56l-2 46 -24 -1 2 -46 11 -11 13 12zm-24 -1l0 -10 11 -1 -11 11zm86 8l-73 4 -1 -23 73 -4 4 0 -3 22zm-1 -23l2 0 2 1 -4 0zm13 26l-15 -4 7 -22 15 4 9 10 -15 12zm7 -22l8 2 1 8 -9 -10zm-11 49l-4 -37 24 -2 4 37 -24 2 0 0zm0 0l0 0 0 0 0 0zm6 54l-6 -54 24 -2 6 54 -24 2zm12 -1l0 0 0 0 0 0zm-66 -21l314 47 -4 22 -314 -47 -10 -11 14 -11zm-4 22l-10 -1 0 -10 10 11zm14 -48l0 37 -24 0 0 -37 11 -11 13 11zm-24 0l0 -10 11 -1 -11 11zm752 -61l-739 72 -2 -23 739 -72 8 2 -6 20zm-2 -23l5 0 4 3 -8 -2zm48 60l-54 -39 14 -18 54 39 -7 20 -7 -2zm7 2l-4 0 -3 -2 7 2zm32 0l-32 0 0 -23 32 0 10 5 -10 17zm0 -23l7 0 3 5 -10 -5zm11 50l-21 -33 20 -12 21 33 2 6 -22 6zm20 -12l2 3 0 3 -2 -6zm-21 27l-1 -21 24 -1 1 21 -4 9 -20 -8zm24 -1l0 5 -4 3 4 -9zm-57 25l37 -33 16 17 -37 33 -7 3 -9 -20zm16 17l-3 3 -4 0 7 -3zm-290 -3l281 -17 1 23 -281 17 -3 0 2 -22zm1 23l-2 0 -2 0 3 0zm-50 -33l52 10 -5 22 -52 -10 -4 -1 9 -21zm-5 22l-2 0 -2 -1 4 1zm-19 -37l28 17 -12 19 -28 -17 3 -20 10 1zm-10 -1l5 -2 5 3 -10 -1zm-214 64l214 -64 7 22 -214 64 -4 1 -3 -22zm3 22l-74 -1 71 -21 3 22zm158 2l-158 -2 0 -23 158 2 4 22 -4 1zm4 -1l-2 1 -2 0 4 -1zm134 -43l-134 43 -8 -21 134 -43 8 21zm188 284l-413 18 -1 -23 413 -18 4 0 -3 22zm-1 -23l2 0 2 0 -4 0zm368 118l-371 -96 6 -22 371 96 -6 22zm-1013 -25l127 -51 9 21 -127 51 -8 0 -1 -21zm1 21l-33 -9 32 -13 1 21zm353 94l-353 -94 6 -22 353 94 -6 22zm-614 -1273l-84 -41 11 -20 84 41 -11 20zm84 -242l-306 394 -19 -14 306 -394 21 10 -2 4zm-19 -14l38 -49 -17 59 -21 -10zm-140 481l138 -477 23 6 -138 477 -23 -6zm-147 -74l-16 27 -21 -11 16 -27 16 -5 5 16zm-21 -11l6 -9 10 5 -16 5zm173 98l-168 -82 11 -20 168 82 5 15 -16 5zm11 -20l11 5 -5 10 -5 -15zm-31 33l15 -28 21 10 -15 28 -21 -10zm11 5l0 0 0 0 0 0zm-131 338l31 -71 22 9 -31 71 -23 -4 1 -4zm-1 4l0 -2 1 -2 -1 4zm0 0l0 0 24 0 0 0 -24 0zm-20 -14l32 -74 22 9 -32 74 -15 6 -7 -15zm7 15l-12 -4 5 -11 7 15zm5 2l-5 -2 7 -22 5 2 -7 22zm-78 5l43 -97 22 9 -43 97 -22 -9zm11 4l0 0 0 0 0 0zm-36 -17l44 -93 22 9 -44 93 -22 -9zm157 20l-22 -7 3 -8 3 -7 3 -7 2 -6 2 -6 2 -5 2 -5 2 -4 2 -4 1 -3 1 -3 1 -2 0 -2 0 -1 0 -1 0 0 0 0 0 0 0 0 -1 -1 -1 -1 -2 -1 -2 -1 -3 -1 -4 -1 -4 -2 -5 -2 -5 -2 -6 -2 -7 -2 -7 -2 -8 -3 8 -21 8 3 7 2 7 2 6 2 6 2 5 2 5 2 4 2 4 2 4 2 3 2 3 2 3 3 3 3 2 4 1 4 1 4 0 4 0 4 -1 4 -1 4 -1 4 -1 4 -2 4 -2 4 -2 5 -2 5 -2 5 -2 6 -3 6 -3 7 -3 7zm-73 1l-23 -7 3 -9 3 -8 3 -8 2 -7 2 -7 2 -6 2 -6 2 -5 1 -5 1 -4 1 -4 1 -3 0 -3 0 -2 0 -2 0 -1 0 -1 0 -1 -1 -1 -1 -1 -2 -1 -2 -1 -3 -1 -4 -2 -4 -2 -5 -2 -5 -2 -6 -2 -7 -2 -7 -2 -8 -2 -8 -3 7 -22 8 3 8 2 7 2 7 2 6 2 6 2 5 2 5 2 5 2 4 2 4 2 4 3 3 3 3 3 2 4 2 4 1 4 0 4 0 4 0 4 -1 4 -1 5 -1 5 -2 5 -2 5 -2 6 -2 6 -2 7 -2 7 -3 8 -3 8 -3 9zm-104 -296l17 19 -18 15 -17 -19 -2 -13 20 -2zm-18 15l-5 -6 4 -7 2 13zm105 -163l-86 161 -21 -10 86 -161 16 -5 5 15zm-21 -10l5 -10 11 5 -16 5zm207 115l-202 -99 11 -20 202 99 5 15 -16 5zm11 -20l11 5 -6 10 -5 -15zm-106 166l90 -162 21 11 -90 162 -15 5 -5 -16zm21 11l-5 9 -10 -5 15 -5zm-96 -56l90 40 -10 21 -90 -40 0 0 10 -21zm-3 -1l3 1 -10 21 -3 -1 10 -21 0 0zm-88 -39l88 39 -10 21 -88 -39 0 0 10 -21zm77 60l-87 -40 10 -20 87 40 0 0 -10 20zm3 1l-3 -1 10 -20 3 1 -10 20zm71 32l-71 -32 10 -20 71 32 6 15 -16 6zm10 -20l10 5 -5 10 -6 -15zm-93 168l77 -163 22 9 -77 163 -14 6 -7 -15zm7 15l-13 -4 5 -12 7 15zm73 22l-73 -22 7 -22 73 22 4 2 -11 19zm7 -22l2 1 2 1 -4 -2zm576 491l-587 -472 15 -17 587 472 -10 20 -5 -2zm5 2l-3 -1 -2 -2 5 2zm143 31l-143 -31 5 -22 143 31 -3 22 -3 0zm3 0l-1 0 -1 0 3 0zm5 0l-5 0 0 -23 5 0 12 11 -12 11zm0 -23l12 0 0 11 -12 -11zm-12 40l0 -29 24 0 0 29 -6 10 -18 -10zm24 0l0 6 -6 3 6 -10zm-70 21l52 -31 12 19 -52 31 -18 -6 5 -13zm12 19l-13 8 -5 -14 18 6zm-4 -40l9 27 -23 7 -9 -27 14 -14 9 8zm-9 -8l7 1 2 6 -9 -8zm-154 -31l154 31 -5 22 -154 -31 -5 -3 10 -20zm-5 22l-3 -1 -2 -2 5 3zm-584 -517l595 497 -16 17 -595 -497 7 -20 9 3zm-9 -3l5 0 4 3 -9 -3zm-20 2l20 -2 2 23 -20 2 -12 -16 10 -6zm-10 6l3 -6 7 -1 -10 6zm-206 422l206 -422 21 10 -206 422 -11 7 -11 -16zm21 10l-3 7 -8 0 11 -7zm-211 -20l201 3 0 23 -201 -3 -10 -16 11 -6zm0 23l-18 0 8 -16 10 16zm353 -692l-342 686 -21 -10 342 -686 20 -2 2 12zm-2 -12l5 6 -3 7 -2 -12zm1404 397l-24 0 0 0 0 0 0 0 0 0 0 0 0 0 0 0 0 0 0 0 0 0 0 0 0 0 0 0 0 0 0 0 0 0 0 0 0 0 0 0 0 0 0 0 0 0 0 0 0 0 0 0 0 0 0 0 0 0 0 0 0 0 0 0 0 0 0 0 0 -23 1 0 1 0 1 0 1 0 1 0 1 0 1 0 1 0 1 0 1 0 1 0 1 0 1 1 1 1 1 1 1 1 1 1 1 1 1 1 1 1 0 1 0 1 0 1 0 1 0 1 0 1 0 1 0 1 0 1 0 1 0 1 0 1 0 0zm-19 19l0 -23 0 0 0 0 0 0 0 0 0 0 0 0 0 0 0 0 0 0 0 0 0 0 0 0 0 0 0 0 0 0 0 0 0 0 0 0 0 0 0 0 0 0 0 0 0 0 0 0 0 0 0 0 0 0 0 0 0 0 0 0 0 0 0 0 0 0 24 0 0 1 0 1 0 1 0 1 0 1 0 1 0 1 0 1 0 1 0 1 0 1 -1 1 -1 1 -1 1 -1 1 -1 1 -1 1 -1 1 -1 1 -1 1 -1 0 -1 0 -1 0 -1 0 -1 0 -1 0 -1 0 -1 0 -1 0 -1 0 -1 0 -1 0 0 0zm-19 -19l24 0 0 0 0 0 0 0 0 0 0 0 0 0 0 0 0 0 0 0 0 0 0 0 0 0 0 0 0 0 0 0 0 0 0 0 0 0 0 0 0 0 0 0 0 0 0 0 0 0 0 0 0 0 0 0 0 0 0 0 0 0 0 0 0 0 0 0 0 23 -1 0 -1 0 -1 0 -1 0 -1 0 -1 0 -1 0 -1 0 -1 0 -1 0 -1 0 -1 0 -1 -1 -1 -1 -1 -1 -1 -1 -1 -1 -1 -1 -1 -1 -1 -1 -1 -1 0 -1 0 -1 0 -1 0 -1 0 -1 0 -1 0 -1 0 -1 0 -1 0 -1 0 -1 0 0zm19 -19l0 23 0 0 0 0 0 0 0 0 0 0 0 0 0 0 0 0 0 0 0 0 0 0 0 0 0 0 0 0 0 0 0 0 0 0 0 0 0 0 0 0 0 0 0 0 0 0 0 0 0 0 0 0 0 0 0 0 0 0 0 0 0 0 0 0 0 0 -24 0 0 -1 0 -1 0 -1 0 -1 0 -1 0 -1 0 -1 0 -1 0 -1 0 -1 0 -1 0 -1 1 -1 1 -1 1 -1 1 -1 1 -1 1 -1 1 -1 1 -1 1 0 1 0 1 0 1 0 1 0 1 0 1 0 1 0 1 0 1 0 1 0 1 0 0 0zm-196 156l-24 0 0 0 0 0 0 0 0 0 0 0 0 0 0 0 0 0 0 0 0 0 0 0 0 0 0 0 0 0 0 0 0 0 0 0 0 0 0 0 0 0 0 0 0 0 0 0 0 0 0 0 0 0 0 0 0 0 0 0 0 0 0 0 0 0 0 0 0 -23 2 0 2 0 1 0 1 0 1 0 1 0 1 0 1 1 1 1 1 1 1 1 1 1 1 1 1 1 1 1 1 1 1 1 1 1 1 1 1 1 1 1 1 1 1 1 1 1 1 1 0 1 0 1 0 1 0 1 0 1 0 1 0 1 0 0zm-30 28l0 -23 0 0 0 0 0 0 0 0 0 0 0 0 0 0 0 0 0 0 0 0 0 0 0 0 0 0 0 0 0 0 0 0 0 0 0 0 0 0 0 0 0 0 0 0 0 0 0 0 0 0 0 0 0 0 0 0 0 0 0 0 0 0 0 0 0 0 24 0 0 1 0 1 0 1 0 1 0 1 0 1 0 1 -1 1 -1 1 -1 1 -1 1 -1 1 -1 1 -1 1 -1 1 -1 1 -1 1 -1 1 -1 1 -1 1 -1 1 -1 1 -1 1 -1 1 -1 1 -1 0 -1 0 -1 0 -1 0 -1 0 -2 0 -2 0 0 0zm-30 -28l24 0 0 0 0 0 0 0 0 0 0 0 0 0 0 0 0 0 0 0 0 0 0 0 0 0 0 0 0 0 0 0 0 0 0 0 0 0 0 0 0 0 0 0 0 0 0 0 0 0 0 0 0 0 0 0 0 0 0 0 0 0 0 0 0 0 0 0 0 23 -2 0 -2 0 -1 0 -1 0 -1 0 -1 0 -1 0 -1 -1 -1 -1 -1 -1 -1 -1 -1 -1 -1 -1 -1 -1 -1 -1 -1 -1 -1 -1 -1 -1 -1 -1 -1 -1 -1 -1 -1 -1 -1 -1 -1 -1 -1 -1 0 -1 0 -1 0 -1 0 -1 0 -1 0 -1 0 -1 0 0zm25 -28l4 22 0 0 0 0 0 0 0 0 0 0 0 0 0 0 0 0 0 0 0 0 0 0 0 0 0 0 0 0 0 0 0 0 0 0 0 0 0 0 0 0 0 0 0 0 0 0 0 0 0 0 0 0 0 0 0 0 0 0 0 0 0 0 0 0 0 0 -24 0 0 -1 0 -1 0 -1 0 -1 0 -1 0 -1 0 -1 0 -1 0 -1 1 -1 1 -1 1 -1 1 -1 1 -1 1 -1 1 -1 1 -1 1 -1 1 -1 1 -1 1 -1 1 -1 1 -1 1 -1 1 -1 1 -1 1 0 1 0 1 0 1 0 1 0 1 0 0 0zm3 0l2 23 0 0 0 0 0 0 0 0 0 0 0 0 0 0 0 0 0 0 0 0 0 0 0 0 0 0 0 0 0 0 0 0 0 0 0 0 0 0 0 0 0 0 0 0 0 0 0 0 0 0 0 0 0 0 0 0 0 0 0 0 0 0 0 0 0 0 -4 -22 0 0 0 0 0 0 0 0 0 0 0 0 0 0 0 0 0 0 0 0 0 0 0 0 0 0 0 0 0 0 0 0 0 0 0 0 0 0 0 0 0 0 0 0 0 0 0 0 0 0 0 0 0 0 0 0 0 0 0 0 0 0 0 0 0 0zm3 0l0 23 0 0 0 0 0 0 0 0 0 0 0 0 0 0 0 0 0 0 0 0 0 0 0 0 0 0 0 0 0 0 0 0 0 0 0 0 0 0 0 0 0 0 0 0 0 0 0 0 0 0 0 0 0 0 0 0 0 0 0 0 0 0 0 0 0 0 -2 -23 0 0 0 0 0 0 0 0 0 0 0 0 0 0 0 0 0 0 0 0 0 0 0 0 0 0 0 0 0 0 0 0 0 0 0 0 0 0 0 0 0 0 0 0 0 0 0 0 0 0 0 0 0 0 0 0 0 0 0 0 0 0 0 0 0 0zm-489 6l-24 0 0 0 0 0 0 0 0 0 0 0 0 0 0 0 0 0 0 0 0 0 0 0 0 0 0 0 0 0 0 0 0 0 0 0 0 0 0 0 0 0 0 0 0 0 0 0 0 0 0 0 0 0 0 0 0 0 0 0 0 0 0 0 0 0 0 0 0 -23 2 0 2 0 1 0 1 0 1 0 1 0 1 0 1 1 1 1 1 1 1 1 1 1 1 1 1 1 1 1 1 1 1 1 1 1 1 1 1 1 1 1 1 1 1 1 1 1 1 1 0 1 0 1 0 1 0 1 0 1 0 1 0 1 0 0zm-30 28l0 -23 0 0 0 0 0 0 0 0 0 0 0 0 0 0 0 0 0 0 0 0 0 0 0 0 0 0 0 0 0 0 0 0 0 0 0 0 0 0 0 0 0 0 0 0 0 0 0 0 0 0 0 0 0 0 0 0 0 0 0 0 0 0 0 0 0 0 24 0 0 1 0 1 0 1 0 1 0 1 0 1 0 1 -1 1 -1 1 -1 1 -1 1 -1 1 -1 1 -1 1 -1 1 -1 1 -1 1 -1 1 -1 1 -1 1 -1 1 -1 1 -1 1 -1 1 -1 1 -1 0 -1 0 -1 0 -1 0 -1 0 -2 0 -2 0 0 0zm-30 -28l24 0 0 0 0 0 0 0 0 0 0 0 0 0 0 0 0 0 0 0 0 0 0 0 0 0 0 0 0 0 0 0 0 0 0 0 0 0 0 0 0 0 0 0 0 0 0 0 0 0 0 0 0 0 0 0 0 0 0 0 0 0 0 0 0 0 0 0 0 23 -2 0 -2 0 -1 0 -1 0 -1 0 -1 0 -1 0 -1 -1 -1 -1 -1 -1 -1 -1 -1 -1 -1 -1 -1 -1 -1 -1 -1 -1 -1 -1 -1 -1 -1 -1 -1 -1 -1 -1 -1 -1 -1 -1 -1 -1 -1 -1 0 -1 0 -1 0 -1 0 -1 0 -1 0 -1 0 -1 0 0zm30 -28l0 23 0 0 0 0 0 0 0 0 0 0 0 0 0 0 0 0 0 0 0 0 0 0 0 0 0 0 0 0 0 0 0 0 0 0 0 0 0 0 0 0 0 0 0 0 0 0 0 0 0 0 0 0 0 0 0 0 0 0 0 0 0 0 0 0 0 0 -24 0 0 -1 0 -1 0 -1 0 -1 0 -1 0 -1 0 -1 1 -1 1 -1 1 -1 1 -1 1 -1 1 -1 1 -1 1 -1 1 -1 1 -1 1 -1 1 -1 1 -1 1 -1 1 -1 1 -1 1 -1 1 -1 1 0 1 0 1 0 1 0 1 0 2 0 2 0 0 0zm504 61l-24 0 0 0 0 0 0 0 0 0 0 0 0 0 0 0 0 0 0 0 0 0 0 0 0 0 0 0 0 0 0 0 0 0 0 0 0 0 0 0 0 0 0 0 0 0 0 0 0 0 0 0 0 0 0 0 0 0 0 0 0 0 0 0 0 0 0 0 0 -23 2 0 2 0 1 0 1 0 1 0 1 0 1 0 1 1 1 1 1 1 1 1 1 1 1 1 1 1 1 1 1 1 1 1 1 1 1 1 1 1 1 1 1 1 1 1 1 1 1 1 0 1 0 1 0 1 0 1 0 1 0 1 0 1 0 0zm-30 28l0 -23 0 0 0 0 0 0 0 0 0 0 0 0 0 0 0 0 0 0 0 0 0 0 0 0 0 0 0 0 0 0 0 0 0 0 0 0 0 0 0 0 0 0 0 0 0 0 0 0 0 0 0 0 0 0 0 0 0 0 0 0 0 0 0 0 0 0 24 0 0 1 0 1 0 1 0 1 0 1 0 1 0 1 -1 1 -1 1 -1 1 -1 1 -1 1 -1 1 -1 1 -1 1 -1 1 -1 1 -1 1 -1 1 -1 1 -1 1 -1 1 -1 1 -1 1 -1 1 -1 0 -1 0 -1 0 -1 0 -1 0 -2 0 -2 0 0 0zm-30 -28l24 0 0 0 0 0 0 0 0 0 0 0 0 0 0 0 0 0 0 0 0 0 0 0 0 0 0 0 0 0 0 0 0 0 0 0 0 0 0 0 0 0 0 0 0 0 0 0 0 0 0 0 0 0 0 0 0 0 0 0 0 0 0 0 0 0 0 0 0 23 -2 0 -2 0 -1 0 -1 0 -1 0 -1 0 -1 0 -1 -1 -1 -1 -1 -1 -1 -1 -1 -1 -1 -1 -1 -1 -1 -1 -1 -1 -1 -1 -1 -1 -1 -1 -1 -1 -1 -1 -1 -1 -1 -1 -1 -1 -1 -1 0 -1 0 -1 0 -1 0 -1 0 -1 0 -1 0 -1 0 0zm28 -28l2 23 0 0 0 0 0 0 0 0 0 0 0 0 0 0 0 0 0 0 0 0 0 0 0 0 0 0 0 0 0 0 0 0 0 0 0 0 0 0 0 0 0 0 0 0 0 0 0 0 0 0 0 0 0 0 0 0 0 0 0 0 0 0 0 0 0 0 -24 0 0 -1 0 -1 0 -1 0 -1 0 -1 0 -1 0 -1 0 -1 1 -1 1 -1 1 -1 1 -1 1 -1 1 -1 1 -1 1 -1 1 -1 1 -1 1 -1 1 -1 1 -1 1 -1 1 -1 1 -1 1 -1 1 0 1 0 1 0 1 0 1 0 1 0 1 0 0 0zm2 23l0 0 0 0 0 0zm0 0l0 0 -2 -23 0 0 0 0 2 23zm-2 -23l0 0 0 0 0 0zm2 0l0 23 0 0 0 0 0 0 0 0 0 0 0 0 0 0 0 0 0 0 0 0 0 0 0 0 0 0 0 0 0 0 0 0 0 0 0 0 0 0 0 0 0 0 0 0 0 0 0 0 0 0 0 0 0 0 0 0 0 0 0 0 0 0 0 0 0 0 -1 -23 0 0 0 0 0 0 0 0 0 0 0 0 0 0 0 0 0 0 0 0 0 0 0 0 0 0 0 0 0 0 0 0 0 0 0 0 0 0 0 0 0 0 0 0 0 0 0 0 0 0 0 0 0 0 0 0 0 0 0 0 0 0 0 0 0 0z"/>
  </g>
 </g>
</svg>
