<?xml version="1.0" encoding="UTF-8"?>
<!DOCTYPE svg PUBLIC "-//W3C//DTD SVG 1.1//EN" "http://www.w3.org/Graphics/SVG/1.1/DTD/svg11.dtd">
<!-- Creator: CorelDRAW X6 -->
<svg xmlns="http://www.w3.org/2000/svg" xml:space="preserve" width="147.065mm" height="151.899mm" version="1.1" style="shape-rendering:geometricPrecision; text-rendering:geometricPrecision; image-rendering:optimizeQuality; fill-rule:evenodd; clip-rule:evenodd"
viewBox="0 0 14583 15062"
 xmlns:xlink="http://www.w3.org/1999/xlink">
 <defs>
  <style type="text/css">
   <![CDATA[
    .str0 {stroke:#2B2A29;stroke-width:198.318}
    .fil0 {fill:none}
   ]]>
  </style>
 </defs>
 <g id="Warstwa_x0020_1">
  <metadata id="CorelCorpID_0Corel-Layer"/>
  <g id="_697279776">
   <path class="fil0 str0" d="M1694 3072l518 -835 633 518 29 -288 -288 -317 29 -979 1525 -86 173 144 979 -58 518 288 29 -259 1727 -144 230 230 662 -201 29 173 0 144 748 403 1468 -1669 1353 1065 -979 576 0 86 -345 806 0 86 173 345 1238 863 1382 230 -29 86 -201 691 -345 -115 -29 403 -748 -115 288 777 -489 1957 -2389 518 0 863 288 144 230 633 -201 1295 -863 115 -374 -432 -230 115 -115 576 -432 -86 -1785 -115 58 2619 -1036 -29 -29 201 -86 0 -1324 -86 -374 748 -979 -58c0,-79 20,-115 -58,-115l-720 -576 144 -720 -345 -317 2418 -2648 -1727 -1698 691 -345 29 -86 288 -345 29 -489 -1180 173 -230 345 -1439 -288 1669 -1353 -86 0 -1209 -115 201 -518 1036 -374 58 -576 173 -86 29 -86 29 -604 -1036 173 201 -1151 403 -29z"/>
   <path class="fil0 str0" d="M9341 4229c667,0 1207,540 1207,1207 0,667 -540,1207 -1207,1207 -667,0 -1207,-540 -1207,-1207 0,-667 540,-1207 1207,-1207z"/>
   <path class="fil0 str0" d="M9341 3442c1101,0 1994,893 1994,1994 0,1101 -893,1994 -1994,1994 -1101,0 -1994,-893 -1994,-1994 0,-1101 893,-1994 1994,-1994z"/>
   <path class="fil0 str0" d="M9341 2655c1536,0 2781,1245 2781,2781 0,1536 -1245,2781 -2781,2781 -1536,0 -2781,-1245 -2781,-2781 0,-1536 1245,-2781 2781,-2781z"/>
   <path class="fil0 str0" d="M9341 1868c1971,0 3568,1598 3568,3568 0,1971 -1598,3568 -3568,3568 -1971,0 -3568,-1598 -3568,-3568 0,-1971 1598,-3568 3568,-3568z"/>
   <path class="fil0 str0" d="M9341 1080c2405,0 4355,1950 4355,4355 0,2405 -1950,4355 -4355,4355 -2405,0 -4355,-1950 -4355,-4355 0,-2405 1950,-4355 4355,-4355z"/>
   <path class="fil0 str0" d="M9341 293c2840,0 5142,2302 5142,5142 0,2840 -2302,5142 -5142,5142 -2840,0 -5142,-2302 -5142,-5142 0,-2840 2302,-5142 5142,-5142z"/>
   <path class="fil0 str0" d="M5252 7714c464,0 840,376 840,840 0,464 -376,840 -840,840 -464,0 -840,-376 -840,-840 0,-464 376,-840 840,-840z"/>
   <path class="fil0 str0" d="M2558 11011c464,0 840,376 840,840 0,464 -376,840 -840,840 -464,0 -840,-376 -840,-840 0,-464 376,-840 840,-840z"/>
   <path class="fil0 str0" d="M5252 7137c782,0 1417,634 1417,1417 0,782 -634,1417 -1417,1417 -782,0 -1417,-634 -1417,-1417 0,-782 634,-1417 1417,-1417z"/>
   <path class="fil0 str0" d="M2558 10434c782,0 1417,634 1417,1417 0,782 -634,1417 -1417,1417 -782,0 -1417,-634 -1417,-1417 0,-782 634,-1417 1417,-1417z"/>
  </g>
 </g>
</svg>
