<?xml version="1.0" encoding="UTF-8"?>
<!DOCTYPE svg PUBLIC "-//W3C//DTD SVG 1.1//EN" "http://www.w3.org/Graphics/SVG/1.1/DTD/svg11.dtd">
<!-- Creator: CorelDRAW X6 -->
<svg xmlns="http://www.w3.org/2000/svg" xml:space="preserve" width="2480px" height="3508px" version="1.1" style="shape-rendering:geometricPrecision; text-rendering:geometricPrecision; image-rendering:optimizeQuality; fill-rule:evenodd; clip-rule:evenodd"
viewBox="0 0 2480 3507"
 xmlns:xlink="http://www.w3.org/1999/xlink">
 <defs>
  <style type="text/css">
   <![CDATA[
    .str1 {stroke:#2B2A29;stroke-width:23.619}
    .str0 {stroke:#2B2A29;stroke-width:20.4258}
    .fil0 {fill:none}
    .fil1 {fill:#FEFEFE}
   ]]>
  </style>
 </defs>
 <g id="Warstwa_x0020_1">
  <metadata id="CorelCorpID_0Corel-Layer"/>
  <g id="_180271296">
   <path class="fil0 str0" d="M1735 1863c165,0 298,134 298,298 0,165 -134,298 -298,298 -165,0 -298,-134 -298,-298 0,-165 134,-298 298,-298zm0 40c143,0 259,116 259,259 0,143 -116,259 -259,259 -143,0 -259,-116 -259,-259 0,-143 116,-259 259,-259zm0 215c24,0 44,20 44,44 0,24 -20,44 -44,44 -24,0 -44,-20 -44,-44 0,-24 20,-44 44,-44zm0 -215l0 215m0 88l0 215m0 -517l0 215m0 88l0 215m-67 -508l56 207m23 85l56 207m-196 -474l107 186m44 76l107 186m-312 -407l152 152m62 62l152 152m-407 -312l186 107m76 44l186 107m-474 -196l207 56m85 23l207 56m-508 -67l215 0m88 0l215 0m-508 67l207 -56m85 -23l207 -56m-474 196l186 -107m76 -44l186 -107m-407 312l152 -152m62 -62l152 -152m-312 407l107 -186m44 -76l107 -186m-196 474l56 -207m23 -85l56 -207m-1271 -163c0,1 0,2 1,3 0,1 0,2 0,2 88,453 428,473 590,457m-594 -459c1,0 2,0 4,-1 1,0 2,0 3,0 483,-83 634,210 682,369m-21 -3c7,0 14,1 21,3 32,9 55,38 55,73 0,42 -34,76 -76,76 -36,0 -65,-25 -74,-58 -1,-6 -2,-12 -2,-18 0,-15 4,-29 12,-41l64 -35zm-574 269l107 -186m-161 145l152 -152m-193 98l186 -107m-220 -22l215 0m88 0l6 0m-7 11l207 56m-500 -134l207 56m81 33l186 107m-448 -259l186 107m69 53l152 152m-366 -366l152 152m3 -18l7 11 -7 -11zm51 88l107 186m-118 -181l56 207m-67 -206l0 215m0 -215l0 215m44 -261c0,1 0,2 0,3 0,24 -20,44 -44,44 -24,0 -44,-20 -44,-44 0,-18 11,-34 27,-41 20,15 40,27 61,38zm209 55c-24,118 -128,207 -253,207 -143,0 -259,-116 -259,-259 0,-84 40,-159 103,-206 102,196 274,250 409,258zm40 1c-25,139 -147,245 -294,245 -165,0 -298,-134 -298,-298 0,-100 49,-189 125,-243 109,248 320,296 467,296zm-23 -384l1 -19 28 -6 10 12 17 59m-105 -220l51 154m-30 -184l-21 30 -78 -7 -32 -83 263 -10 15 34 -147 34 58 179m130 219c51,4 97,-4 133,-25 72,-70 88,-231 219,-276m-219 276c1,11 2,21 3,32 -45,18 -87,28 -123,22m123 -22l-133 91 0 0m401 -305l-33 -23m-24 -96l-27 -92 39 -47 30 -8c11,-9 11,-19 6,-26l-8 -4 -80 -43 17 -19 6 0c29,17 59,35 88,52 15,12 14,23 7,37l-20 30 -30 5 -22 30 24 75 0 0m13 -138l-37 -17 -149 -23 -10 26c53,10 119,12 159,29m-338 588c21,0 39,17 39,39 0,21 -17,39 -39,39 -21,0 -39,-17 -39,-39 0,-21 17,-39 39,-39zm-46 98l-31 102 84 1 7 -28c-5,-2 -3,-1 -7,-1l-40 -1 15 -59m83 -113c58,-40 105,-92 149,-173 21,-60 58,-162 145,-186l-23 -69 0 0 -8 -25 40 -12c58,148 97,373 164,459m-9 11c-75,-75 -86,-229 -135,-340l21 -6m130 333c9,0 17,7 17,17 0,9 -7,17 -17,17 -9,0 -17,-7 -17,-17 0,-1 0,-3 0,-4 1,-5 4,-9 9,-11 2,-1 5,-2 7,-2zm-984 1c9,0 17,8 17,17 0,9 -8,17 -17,17 -9,0 -17,-8 -17,-17 0,-9 8,-17 17,-17z"/>
   <path class="fil0 str0" d="M377 2161c5,124 66,259 201,333l1 2"/>
   <path class="fil0 str0" d="M358 2034c-15,36 -28,118 -3,199l0 1"/>
  </g>
  <line class="fil0 str1" x1="1029" y1="1629" x2="1207" y2= "1779" />
  <path class="fil1 str1" d="M1349 773c-20,-2 -147,21 -85,166l-37 46c-28,8 -56,17 -83,25 -119,142 -208,284 -272,440 -6,58 1,124 97,166 119,27 205,42 325,70 -36,30 -104,58 -131,188 0,0 -55,84 -112,164 22,80 73,173 120,199l62 -11 -55 -207c91,-135 174,-196 267,-316l-19 -99 -302 -141c66,-22 83,-79 112,-175 34,-58 71,-102 101,-173l-31 -71 26 -31c75,15 100,0 133,-12 31,-67 -24,-134 53,-143 -22,-31 -65,-89 -167,-84z"/>
  <path class="fil0 str1" d="M1292 1872c-25,62 -31,118 -24,146"/>
  <path class="fil0 str1" d="M1314 2108c7,37 21,73 9,113l-10 73 191 56"/>
  <line class="fil0 str1" x1="1394" y1="1761" x2="1389" y2= "1873" />
  <path class="fil0 str1" d="M1389 2013c8,114 10,195 61,229"/>
  <path class="fil0 str1" d="M1235 1031c-22,-13 -62,5 -74,38 -40,115 -77,229 -51,345l46 31 256 35 74 -1 74 -4 -5 -49 -32 -38 -8 0 -81 30 -224 -55 56 -215c7,-37 15,-94 -31,-116z"/>
  <polyline class="fil0 str1" points="1297,1185 1276,1322 1361,1399 "/>
  <line class="fil0 str1" x1="1121" y1="1462" x2="893" y2= "1398" />
  <line class="fil0 str1" x1="1412" y1="1479" x2="1469" y2= "1524" />
  <line class="fil0 str1" x1="739" y1="2204" x2="687" y2= "2413" />
  <line class="fil0 str1" x1="707" y1="2169" x2="510" y2= "2226" />
 </g>
</svg>
