<?xml version="1.0" encoding="UTF-8"?>
<!DOCTYPE svg PUBLIC "-//W3C//DTD SVG 1.1//EN" "http://www.w3.org/Graphics/SVG/1.1/DTD/svg11.dtd">
<!-- Creator: CorelDRAW X6 -->
<svg xmlns="http://www.w3.org/2000/svg" xml:space="preserve" width="2480px" height="3508px" version="1.1" style="shape-rendering:geometricPrecision; text-rendering:geometricPrecision; image-rendering:optimizeQuality; fill-rule:evenodd; clip-rule:evenodd"
viewBox="0 0 2480 3507"
 xmlns:xlink="http://www.w3.org/1999/xlink">
 <defs>
  <style type="text/css">
   <![CDATA[
    .str0 {stroke:#2B2A29;stroke-width:23.619}
    .fil0 {fill:none}
   ]]>
  </style>
 </defs>
 <g id="Warstwa_x0020_1">
  <metadata id="CorelCorpID_0Corel-Layer"/>
  <path class="fil0 str0" d="M673 1979c48,0 87,38 87,86 0,47 -39,86 -87,86 -48,0 -87,-38 -87,-86 0,-47 39,-86 87,-86z"/>
  <path class="fil0 str0" d="M1742 1973c48,0 87,38 87,86 0,47 -39,86 -87,86 -48,0 -87,-38 -87,-86 0,-47 39,-86 87,-86z"/>
  <path class="fil0 str0" d="M412 1456l1593 0 0 655 -139 0c7,-16 10,-33 10,-51 0,-73 -60,-132 -134,-132 -74,0 -134,59 -134,132 0,18 4,35 10,51l-818 0c5,-14 8,-30 8,-46 0,-73 -60,-132 -134,-132 -74,0 -134,59 -134,132 0,16 3,32 8,46l-135 0 0 -655z"/>
  <line class="fil0 str0" x1="789" y1="1532" x2="789" y2= "1788" />
  <line class="fil0 str0" x1="1618" y1="1532" x2="1618" y2= "1788" />
  <line class="fil0 str0" x1="1818" y1="1532" x2="1818" y2= "1788" />
  <line class="fil0 str0" x1="232" y1="1865" x2="412" y2= "1865" />
  <line class="fil0 str0" x1="2005" y1="1870" x2="2196" y2= "1870" />
  <line class="fil0 str0" x1="576" y1="1163" x2="1823" y2= "1163" />
  <line class="fil0 str0" x1="1084" y1="2197" x2="1587" y2= "2197" />
  <line class="fil0 str0" x1="907" y1="2260" x2="1302" y2= "2260" />
  <line class="fil0 str0" x1="1728" y1="1220" x2="1883" y2= "1220" />
  <path class="fil0 str0" d="M673 1932l361 0m346 0l324 0 0 -5"/>
  <polygon class="fil0 str0" points="458,1532 1960,1532 1960,1788 1376,1788 1376,1584 1034,1584 1034,1788 458,1788 "/>
  <polyline class="fil0 str0" points="952,1456 1003,1427 1372,1427 1412,1456 "/>
  <line class="fil0 str0" x1="1620" y1="1163" x2="1238" y2= "1427" />
  <line class="fil0 str0" x1="1484" y1="1163" x2="1107" y2= "1427" />
  <line class="fil0 str0" x1="1076" y1="1584" x2="1076" y2= "2111" />
  <line class="fil0 str0" x1="1206" y1="1588" x2="1206" y2= "2115" />
  <line class="fil0 str0" x1="1336" y1="1588" x2="1336" y2= "2115" />
 </g>
</svg>
