<?xml version="1.0" encoding="UTF-8"?>
<!DOCTYPE svg PUBLIC "-//W3C//DTD SVG 1.1//EN" "http://www.w3.org/Graphics/SVG/1.1/DTD/svg11.dtd">
<!-- Creator: CorelDRAW X6 -->
<svg xmlns="http://www.w3.org/2000/svg" xml:space="preserve" width="2480px" height="3508px" version="1.1" style="shape-rendering:geometricPrecision; text-rendering:geometricPrecision; image-rendering:optimizeQuality; fill-rule:evenodd; clip-rule:evenodd"
viewBox="0 0 2480 3507"
 xmlns:xlink="http://www.w3.org/1999/xlink">
 <defs>
  <style type="text/css">
   <![CDATA[
    .str0 {stroke:#2B2A29;stroke-width:16.975}
    .str1 {stroke:#2B2A29;stroke-width:16.975;stroke-linejoin:round}
    .fil0 {fill:none}
    .fil1 {fill:#2B2A29;fill-rule:nonzero}
   ]]>
  </style>
 </defs>
 <g id="Warstwa_x0020_1">
  <metadata id="CorelCorpID_0Corel-Layer"/>
  <path class="fil0 str0" d="M357 1831l-30 23 2 237 34 5 -2 10 15 6 52 -5 29 6 168 2 17 1 158 -12 102 22 0 102 -6 9 0 4c41,33 129,39 190,41l1 13 324 -12 0 -12c36,-7 53,-15 70,-25l522 100 -5 -587 83 -242 -1 -53 -26 7 1 30 -21 5 -1 -29 -18 5 1 29 -25 5 -1 -29 -17 5 1 27 -21 4 -1 -26 -16 4 1 26 -20 4 -1 -26 -18 5 1 25 -16 4 -2 -24 -17 5 1 22 -18 4 -2 -22 -27 7 2 47 -49 12 1 -4 -1 -20 -17 19 -11 -9 0 19 -35 6 -1 -17 -13 0 -12 16 -12 -8 0 17 -27 6 0 -17 -19 1 -7 11 -11 -5 0 18 -32 7 -1 -414 24 -27 9 -45 -6 -27c-11,-12 -22,-24 -33,-37 -77,-49 -183,-80 -318,-86 -32,-4 -223,2 -372,113l-17 34 9 52 30 37 -6 566 -162 84 12 15 -1 215"/>
  <path class="fil0 str0" d="M350 1836l7 -6 1 -83 74 -52 102 -150 52 -19 -4 -10 19 -11 7 -13 1 -23 3 -6 16 -6 4 1 19 11 0 28 3 12 25 19 -6 10 -1 13 9 12 14 4c4,32 15,22 20,30l4 -3 10 0 1 15 10 7c-9,8 -7,18 -9,27 7,37 33,16 40,44l5 -24 7 26 0 24 19 7 -16 13 0 114 0 0"/>
  <polyline class="fil0 str0" points="357,1747 449,1719 454,1705 793,1718 "/>
  <polyline class="fil0 str0" points="454,1705 467,1739 458,1760 458,1951 455,1956 450,2112 "/>
  <polyline class="fil0 str0" points="467,1739 787,1752 787,1752 "/>
  <polyline class="fil0 str0" points="506,1741 491,1763 458,1760 "/>
  <polyline class="fil0 str0" points="491,1763 495,1952 500,2114 "/>
  <polyline class="fil0 str0" points="627,1746 648,1767 674,1767 654,1747 "/>
  <polyline class="fil0 str0" points="674,1767 675,2114 675,2114 "/>
  <line class="fil0 str0" x1="646" y1="1767" x2="642" y2= "2117" />
  <line class="fil0 str0" x1="494" y1="1887" x2="533" y2= "1889" />
  <line class="fil0 str0" x1="495" y1="1952" x2="529" y2= "1952" />
  <polyline class="fil0 str0" points="600,1887 628,1888 646,1887 "/>
  <line class="fil0 str0" x1="674" y1="1887" x2="737" y2= "1886" />
  <polyline class="fil0 str0" points="675,1941 742,1941 742,1941 "/>
  <polyline class="fil0 str0" points="378,1771 378,1954 370,1960 368,2109 "/>
  <path class="fil0 str0" d="M464 1703l0 -31 19 -2c7,-18 38,-5 40,-40l-5 -29 7 -5 2 -16 15 1c7,-8 22,-1 22,-25l15 0 1 -17 5 -15"/>
  <line class="fil0 str0" x1="522" y1="1599" x2="740" y2= "1618" />
  <line class="fil0 str0" x1="586" y1="1526" x2="587" y2= "1710" />
  <line class="fil0 str0" x1="667" y1="1531" x2="670" y2= "1713" />
  <line class="fil0 str0" x1="726" y1="1617" x2="728" y2= "1716" />
  <line class="fil0 str0" x1="531" y1="1600" x2="533" y2= "1708" />
  <line class="fil0 str0" x1="583" y1="1516" x2="680" y2= "1530" />
  <polyline class="fil0 str0" points="378,1771 418,1757 419,2108 419,2108 "/>
  <polyline class="fil0 str0" points="378,1895 418,1885 461,1884 "/>
  <polyline class="fil0 str0" points="378,1954 418,1954 458,1953 "/>
  <line class="fil0 str0" x1="353" y1="1834" x2="346" y2= "2094" />
  <line class="fil0 str0" x1="737" y1="1886" x2="893" y2= "1872" />
  <line class="fil0 str0" x1="742" y1="2001" x2="897" y2= "2013" />
  <line class="fil0 str0" x1="892" y1="1794" x2="902" y2= "2127" />
  <path class="fil0 str0" d="M1592 1624c-9,60 -43,107 -133,184l17 24 4 412"/>
  <line class="fil0 str0" x1="1459" y1="1808" x2="2055" y2= "1752" />
  <polyline class="fil0 str0" points="1476,1833 2065,1796 2063,1796 "/>
  <line class="fil0 str0" x1="1478" y1="2039" x2="2087" y2= "2088" />
  <path class="fil0 str0" d="M1086 2283c1,-24 0,-66 2,-92l322 -6 0 83"/>
  <path class="fil0 str0" d="M1313 1480l93 7c-1,-37 -2,-73 -2,-110 -11,-57 -73,-55 -85,-15l-5 117z"/>
  <polygon class="fil0 str0" points="1313,1480 1310,1475 "/>
  <line class="fil0 str0" x1="1206" y1="1730" x2="1208" y2= "1791" />
  <line class="fil0 str0" x1="1262" y1="2040" x2="1262" y2= "2076" />
  <path class="fil0 str0" d="M1011 1847l-32 0c-1,-25 0,-51 -1,-76 2,-20 10,-28 20,-28 10,7 12,15 12,27l0 78z"/>
  <path class="fil0 str0" d="M910 1519l40 -17 0 -100c-2,-24 -8,-25 -18,-29 -11,8 -19,25 -19,44l1 100"/>
  <path class="fil0 str0" d="M898 1228c74,-48 196,-84 344,-87 132,9 258,28 331,95"/>
  <path class="fil0 str0" d="M862 1154c113,-106 302,-128 360,-125 218,6 336,62 379,136"/>
  <polyline class="fil0 str0" points="900,1089 899,1062 905,1053 913,1053 916,1078 912,1040 924,1048 924,1043 924,1024 944,1036 943,1015 953,1026 959,1004 982,1015 982,998 996,1007 1012,984 1031,993 1033,980 1051,990 1068,970 1081,981 1082,1011 "/>
  <polyline class="fil0 str0" points="1095,1008 1094,963 1111,976 1133,953 1146,972 1146,998 "/>
  <polyline class="fil0 str0" points="1164,996 1165,953 1184,968 1204,946 1205,992 "/>
  <polyline class="fil0 str0" points="1232,991 1232,945 1257,963 1276,950 1276,994 "/>
  <polyline class="fil0 str0" points="1301,994 1301,952 1324,973 1345,958 1345,1000 "/>
  <polyline class="fil0 str0" points="1369,1007 1368,963 1390,982 1411,972 1414,1015 "/>
  <polyline class="fil0 str0" points="1437,1021 1435,979 1452,996 1467,986 1467,1031 "/>
  <polyline class="fil0 str0" points="1490,1039 1489,1001 1502,1015 1513,1011 1515,1051 "/>
  <polyline class="fil0 str0" points="1532,1059 1531,1024 1542,1036 1550,1032 1548,1068 "/>
  <polyline class="fil0 str0" points="1565,1079 1564,1052 1584,1070 1585,1099 "/>
  <path class="fil0 str0" d="M1194 957c0,-4 0,-7 0,-11l2 -41 24 -15 34 0 37 18 0 87"/>
  <path class="fil0 str1" d="M1600 1173c-9,3 -33,21 -36,36 3,-22 12,-41 24,-53 -18,0 -30,18 -39,36 0,-12 12,-33 22,-55 -19,9 -33,24 -44,43 2,-27 8,-42 20,-64 -28,6 -31,36 -43,55 -6,-29 3,-54 6,-79 -25,16 -40,32 -48,58 -4,-22 -9,-54 -7,-76 -18,10 -39,38 -44,59 -6,-26 -5,-50 -11,-76 -17,16 -35,43 -41,68 -5,-28 -4,-53 -20,-78 -16,22 -27,46 -33,72 -4,-26 -13,-63 -30,-79 -18,23 -27,53 -32,77 -6,-24 -17,-56 -33,-79 -15,20 -26,51 -32,79 -4,-27 -23,-55 -38,-73 -8,21 -15,54 -25,80 -4,-19 -11,-51 -37,-68l-14 78c-8,-24 -21,-50 -38,-62 -2,25 -4,38 -7,76 -7,-24 -15,-46 -44,-60 9,18 19,56 9,81 -8,-34 -22,-57 -47,-62 9,23 20,51 10,77 -6,-26 -23,-48 -43,-55 14,21 26,38 19,67 -2,-16 -23,-43 -39,-46 11,17 19,34 18,59 -5,-13 -23,-22 -34,-23"/>
  <polyline class="fil0 str0" points="858,1746 873,1658 893,1748 787,1741 794,1776 893,1777 893,1777 "/>
  <polyline class="fil0 str0" points="893,1748 893,1741 884,1747 "/>
  <polygon class="fil0 str0" points="531,1993 609,1991 610,1989 610,1893 573,1868 571,1868 530,1890 "/>
  <line class="fil0 str0" x1="533" y1="1893" x2="609" y2= "1894" />
  <path class="fil0 str0" d="M547 1991c0,-19 0,-39 0,-58 5,-15 16,-17 26,-17 14,3 17,8 22,18l1 58"/>
  <path class="fil0 str0" d="M548 1879c0,-31 0,-62 0,-93 4,-22 15,-27 26,-30 18,9 19,18 23,28l2 103"/>
  <path class="fil0 str0" d="M694 1887c0,-32 0,-64 1,-95 1,-11 9,-22 23,-26 11,5 16,18 16,28l0 83 0 0"/>
  <path class="fil0 str0" d="M675 2048c5,0 5,0 9,1l24 -2 -1 60"/>
  <polygon class="fil0 str0" points="559,2075 591,2074 590,2035 559,2035 "/>
  <polygon class="fil0 str0" points="559,2075 559,2074 "/>
  <path class="fil0 str0" d="M600 1603c0,-1 0,-1 -1,-3 0,-13 0,-26 0,-39 4,-20 18,-23 31,-20 20,3 23,16 26,30l-1 39"/>
  <path class="fil0 str0" d="M598 1708c0,-15 0,-37 0,-51 1,-25 20,-33 35,-30 18,2 24,17 25,30 1,22 2,38 1,53"/>
  <g>
   <path class="fil1" d="M532 1659l17 0 0 0 0 1 0 1 0 1 0 1 0 1 0 1 0 1 0 1 0 1 0 2 0 2 0 2 0 2 0 2 0 2 0 2 0 2 0 2 0 2 0 2 0 2 0 2 0 2 0 1 0 1 0 1 0 1 0 1 0 1 0 1 0 1 0 1 -17 0 0 -1 0 -1 0 -1 0 -1 0 -1 0 -1 0 -1 0 -1 0 -1 0 -2 0 -2 0 -2 0 -2 0 -2 0 -2 0 -2 0 -2 0 -2 0 -2 0 -2 0 -2 0 -2 0 -2 0 -1 0 -1 0 -1 0 -1 0 -1 0 -1 0 -1 0 -1 0 -1 0 0zm0 0l0 0 0 0 0 0zm36 -35l-3 17 -1 0 -1 0 -1 0 -1 0 -1 0 -1 0 -1 0 -1 0 -1 0 -1 0 -1 0 -1 0 -1 0 -1 0 -1 0 -1 0 -1 0 -1 0 -1 1 -1 1 -1 1 0 1 0 1 0 1 0 1 0 1 0 1 0 1 0 1 0 1 0 2 0 2 0 2 -17 0 0 -2 0 -2 0 -2 0 -2 0 -2 1 -2 1 -2 1 -2 1 -2 1 -2 1 -2 1 -2 1 -1 1 -1 1 -1 1 -1 1 -1 1 -1 1 -1 2 -1 2 -1 2 -1 2 0 2 0 2 0 2 0 2 0 2 0 2 0 2 0 2 0 2 0 -1 0zm-3 17l0 0 0 0 1 0zm29 19l-17 0 0 0 0 -1 0 -1 0 -1 0 -1 0 -1 0 -1 0 -1 0 -1 0 -1 0 -1 0 -1 0 -1 0 -1 0 -1 0 -1 0 -1 0 -1 0 -1 0 -1 0 0 0 0 0 0 0 0 0 0 -1 0 -1 0 -1 0 -1 0 -1 0 -1 0 -1 0 -1 0 3 -17 2 0 2 0 2 1 2 1 2 1 1 1 1 1 1 1 1 1 1 1 1 1 1 1 1 1 1 1 1 1 1 1 1 1 1 1 1 1 1 1 0 1 0 1 0 1 0 1 0 1 0 1 0 1 0 1 0 1 0 1 0 1 0 1 0 0zm1 49l-17 0 0 -1 0 -1 0 -1 0 -1 0 -1 0 -1 0 -1 0 -1 0 -1 0 -1 0 -1 0 -1 0 -1 0 -1 0 -1 0 -1 0 -1 0 -1 0 -2 0 -2 0 -2 0 -2 0 -2 0 -2 0 -2 0 -2 0 -2 0 -2 0 -2 0 -2 0 -2 0 -2 17 0 0 2 0 2 0 2 0 2 0 2 0 2 0 2 0 2 0 2 0 2 0 2 0 2 0 2 0 2 0 2 0 1 0 1 0 1 0 1 0 1 0 1 0 1 0 1 0 1 0 1 0 1 0 1 0 1 0 1 0 1 0 1 0 1z"/>
  </g>
  <g>
   <path class="fil1" d="M667 1665l17 0 0 0 0 1 0 1 0 1 0 1 0 1 0 1 0 1 0 1 0 1 0 2 0 2 0 2 0 2 0 2 0 2 0 2 0 2 0 2 0 2 0 2 0 2 0 2 0 2 0 1 0 1 0 1 0 1 0 1 0 1 0 1 0 1 0 1 -17 0 0 -1 0 -1 0 -1 0 -1 0 -1 0 -1 0 -1 0 -1 0 -1 0 -2 0 -2 0 -2 0 -2 0 -2 0 -2 0 -2 0 -2 0 -2 0 -2 0 -2 0 -2 0 -2 0 -2 0 -1 0 -1 0 -1 0 -1 0 -1 0 -1 0 -1 0 -1 0 -1 0 0zm0 0l0 0 0 0 0 0zm36 -35l-3 17 -1 0 -1 0 -1 0 -1 0 -1 0 -1 0 -1 0 -1 0 -1 0 -1 0 -1 0 -1 0 -1 0 -1 0 -1 0 -1 0 -1 0 -1 0 -1 1 -1 1 -1 1 0 1 0 1 0 1 0 1 0 1 0 1 0 1 0 1 0 1 0 2 0 2 0 2 -17 0 0 -2 0 -2 0 -2 0 -2 0 -2 1 -2 1 -2 1 -2 1 -2 1 -2 1 -2 1 -2 1 -1 1 -1 1 -1 1 -1 1 -1 1 -1 1 -1 2 -1 2 -1 2 -1 2 0 2 0 2 0 2 0 2 0 2 0 2 0 2 0 2 0 2 0 -1 0zm-3 17l0 0 0 0 1 0zm29 19l-17 0 0 0 0 -1 0 -1 0 -1 0 -1 0 -1 0 -1 0 -1 0 -1 0 -1 0 -1 0 -1 0 -1 0 -1 0 -1 0 -1 0 -1 0 -1 0 -1 0 -1 0 0 0 0 0 0 0 0 0 0 -1 0 -1 0 -1 0 -1 0 -1 0 -1 0 -1 0 -1 0 3 -17 2 0 2 0 2 1 2 1 2 1 1 1 1 1 1 1 1 1 1 1 1 1 1 1 1 1 1 1 1 1 1 1 1 1 1 1 1 1 1 1 0 1 0 1 0 1 0 1 0 1 0 1 0 1 0 1 0 1 0 1 0 1 0 1 0 0zm1 49l-17 0 0 -1 0 -1 0 -1 0 -1 0 -1 0 -1 0 -1 0 -1 0 -1 0 -1 0 -1 0 -1 0 -1 0 -1 0 -1 0 -1 0 -1 0 -1 0 -2 0 -2 0 -2 0 -2 0 -2 0 -2 0 -2 0 -2 0 -2 0 -2 0 -2 0 -2 0 -2 0 -2 17 0 0 2 0 2 0 2 0 2 0 2 0 2 0 2 0 2 0 2 0 2 0 2 0 2 0 2 0 2 0 2 0 1 0 1 0 1 0 1 0 1 0 1 0 1 0 1 0 1 0 1 0 1 0 1 0 1 0 1 0 1 0 1 0 1z"/>
  </g>
  <polygon class="fil0 str0" points="1592,2003 1663,2008 1660,1881 1592,1884 "/>
  <polygon class="fil0 str0" points="1794,1874 1793,2010 1873,2015 1872,1869 "/>
  <polygon class="fil0 str0" points="1590,2093 1658,2097 1657,2241 1590,2229 "/>
  <polygon class="fil0 str0" points="1797,2114 1796,2271 1879,2284 1879,2121 "/>
  <polyline class="fil0 str0" points="1716,1818 1728,2292 1728,2292 "/>
  <polyline class="fil0 str0" points="1553,1828 1559,2260 1559,2260 "/>
  <path class="fil0 str0" d="M1554 1914c13,-1 6,0 19,-1 -1,-44 14,-76 50,-86 56,4 50,62 53,86l41 0"/>
  <g>
   <path class="fil1" d="M1765 1914l17 0 -8 9 -1 0 -1 0 -1 0 -1 0 -1 0 -1 0 -1 0 -1 0 -1 0 -1 0 -1 0 0 0 0 0 0 0 0 0 0 0 0 0 0 0 0 0 0 0 0 0 -1 0 -1 0 -1 0 -1 0 -1 0 -1 0 -1 0 -1 0 -1 0 -1 0 -1 0 -1 -17 1 0 1 0 1 0 1 0 1 0 1 0 1 0 1 0 1 0 1 0 1 0 0 0 0 0 0 0 0 0 0 0 0 0 0 0 0 0 0 0 0 0 1 0 1 0 1 0 1 0 1 0 1 0 1 0 1 0 1 0 1 0 1 0 -8 9zm17 0l0 8 -8 0 8 -9zm54 -107l-1 17 3 0 -4 1 -4 1 -3 1 -3 1 -3 2 -3 2 -3 2 -3 2 -3 2 -2 2 -2 2 -2 2 -2 2 -2 3 -2 3 -2 3 -2 3 -2 3 -1 3 -1 3 -1 3 -1 3 -1 4 -1 4 -1 4 -1 4 -1 4 0 4 0 4 0 4 0 4 0 4 -17 0 0 -5 0 -5 0 -5 0 -5 0 -5 1 -4 1 -4 1 -4 1 -4 1 -4 1 -4 1 -4 2 -4 2 -4 2 -4 2 -4 2 -3 2 -3 2 -3 3 -3 3 -3 3 -3 3 -3 3 -3 3 -2 4 -2 4 -2 4 -2 4 -2 4 -2 4 -1 4 -1 3 0zm-3 0l1 0 1 0 -3 0zm69 98l0 17 -8 -7 0 -3 0 -3 0 -3 0 -3 0 -3 0 -4 0 -4 0 -4 0 -4 0 -4 -1 -4 -1 -4 -1 -4 -1 -4 -1 -4 -1 -4 -1 -3 -1 -3 -2 -3 -2 -3 -2 -3 -2 -3 -3 -3 -3 -2 -3 -2 -3 -2 -4 -2 -4 -2 -4 -1 -5 -1 -5 -1 -6 -1 1 -17 7 1 6 1 6 1 6 2 5 2 5 2 5 3 4 3 4 3 3 4 3 4 3 4 2 4 2 4 2 4 2 4 1 4 1 4 1 4 1 4 1 4 1 4 0 4 0 4 0 4 0 4 0 4 0 3 0 3 0 3 0 3 0 2 -8 -7zm0 17l-7 0 -1 -7 8 7zm52 0l-52 0 0 -17 52 0 0 17z"/>
  </g>
  <line class="fil0 str0" x1="329" y1="2091" x2="226" y2= "2093" />
  <polyline class="fil0 str0" points="463,1676 473,1638 483,1674 "/>
  <g>
   <path class="fil1" d="M730 1593l-4 9 -15 -7 4 -9 16 1 0 7zm-15 -7l8 -18 7 18 -16 -1zm3 15l-3 -8 16 -6 3 8 -16 6z"/>
  </g>
  <g>
   <path class="fil1" d="M542 1581l-4 9 -15 -7 4 -9 16 1 0 7zm-15 -7l8 -18 7 18 -16 -1zm3 15l-3 -8 16 -6 3 8 -16 6z"/>
  </g>
  <line class="fil0 str0" x1="533" y1="1511" x2="534" y2= "1545" />
  <line class="fil0 str0" x1="628" y1="1421" x2="629" y2= "1458" />
  <line class="fil0 str0" x1="613" y1="1440" x2="642" y2= "1442" />
  <line class="fil0 str0" x1="522" y1="1525" x2="545" y2= "1525" />
  <circle class="fil0 str0" cx="502" cy="1683" r="18"/>
  <circle class="fil0 str0" cx="751" cy="1695" r="18"/>
  <line class="fil0 str0" x1="1435" y1="976" x2="1412" y2= "990" />
  <line class="fil0 str0" x1="1489" y1="1001" x2="1467" y2= "1008" />
  <line class="fil0 str0" x1="1531" y1="1024" x2="1514" y2= "1031" />
  <polyline class="fil0 str0" points="1564,1052 1549,1058 1549,1058 "/>
  <line class="fil0 str0" x1="1133" y1="953" x2="1133" y2= "1000" />
  <line class="fil0 str0" x1="1068" y1="970" x2="1068" y2= "1015" />
  <line class="fil0 str0" x1="982" y1="1015" x2="984" y2= "1040" />
  <line class="fil0 str0" x1="1031" y1="993" x2="1031" y2= "1026" />
  <polyline class="fil0 str0" points="944,1036 945,1058 947,1062 "/>
  <line class="fil0 str0" x1="1012" y1="984" x2="1013" y2= "1032" />
  <path class="fil0 str0" d="M1332 1380c10,-13 46,-9 51,5l2 88 -54 -5 2 -88z"/>
  <polyline class="fil0 str0" points="1693,1819 1701,2287 1701,2287 "/>
  <polyline class="fil0 str0" points="1743,1816 1752,2297 1752,2297 "/>
  <line class="fil0 str0" x1="1967" y1="1802" x2="1973" y2= "2340" />
  <path class="fil0 str0" d="M1267 2192c0,-23 0,-45 1,-68 3,-16 18,-32 37,-32 26,5 33,20 35,35l1 63"/>
  <line class="fil0 str0" x1="1773" y1="1562" x2="1796" y2= "1585" />
  <polyline class="fil0 str0" points="1591,1632 2077,1524 2077,1524 "/>
 </g>
</svg>
