<?xml version="1.0" encoding="UTF-8"?>
<!DOCTYPE svg PUBLIC "-//W3C//DTD SVG 1.1//EN" "http://www.w3.org/Graphics/SVG/1.1/DTD/svg11.dtd">
<!-- Creator: CorelDRAW X6 -->
<svg xmlns="http://www.w3.org/2000/svg" xml:space="preserve" width="113.962mm" height="169.729mm" version="1.1" style="shape-rendering:geometricPrecision; text-rendering:geometricPrecision; image-rendering:optimizeQuality; fill-rule:evenodd; clip-rule:evenodd"
viewBox="0 0 10987 16364"
 xmlns:xlink="http://www.w3.org/1999/xlink">
 <defs>
  <style type="text/css">
   <![CDATA[
    .str0 {stroke:#2B2A29;stroke-width:192.822}
    .fil0 {fill:none}
   ]]>
  </style>
 </defs>
 <g id="Warstwa_x0020_1">
  <metadata id="CorelCorpID_0Corel-Layer"/>
  <g id="_692022912">
   <path class="fil0 str0" d="M3547 112c8034,3071 7291,9819 1865,13006 -5416,-1045 -7758,-7493 -1865,-13006z"/>
   <path class="fil0 str0" d="M3547 112c-832,5711 3972,7387 1865,13006"/>
   <path class="fil0 str0" d="M4548 5755c589,-1476 1471,-2710 2759,-3454"/>
   <path class="fil0 str0" d="M5347 7552c1088,-1432 2081,-2623 3603,-3142"/>
   <path class="fil0 str0" d="M300 8567c1599,-6 3826,389 5663,1826"/>
   <path class="fil0 str0" d="M4129 4772c450,-1329 930,-2484 1930,-3415"/>
   <path class="fil0 str0" d="M5896 9543c715,-666 1717,-1206 3014,-1645"/>
   <path class="fil0 str0" d="M5412 13117c-488,1097 -965,1990 -107,3190"/>
   <polyline class="fil0 str0" points="1210,8664 1345,7475 2521,6824 3403,7810 3248,9095 "/>
   <line class="fil0 str0" x1="3398" y1="8072" x2="4409" y2= "8676" />
   <line class="fil0 str0" x1="4122" y1="8504" x2="4107" y2= "9276" />
   <line class="fil0 str0" x1="6470" y1="8534" x2="6706" y2= "8956" />
   <line class="fil0 str0" x1="6255" y1="5632" x2="6598" y2= "5975" />
   <line class="fil0 str0" x1="7481" y1="8033" x2="7711" y2= "8443" />
   <line class="fil0 str0" x1="7095" y1="4884" x2="7429" y2= "5218" />
   <line class="fil0 str0" x1="6190" y1="8769" x2="7746" y2= "7847" />
   <line class="fil0 str0" x1="6049" y1="5931" x2="7301" y2= "4636" />
   <path class="fil0 str0" d="M3830 3919c75,-1222 350,-2345 982,-3260"/>
   <path class="fil0 str0" d="M2286 8747c1579,785 1874,2790 1588,3908"/>
   <path class="fil0 str0" d="M3072 8948c1624,807 2141,2885 1847,4035"/>
   <line class="fil0 str0" x1="1298" y1="7884" x2="192" y2= "7910" />
   <path class="fil0 str0" d="M4840 14872c1311,-2375 5428,1739 6039,-2881 -2197,-251 -2945,330 -3881,2122"/>
   <path class="fil0 str0" d="M5936 10823c1094,-527 1772,-555 2509,-504"/>
  </g>
 </g>
</svg>
