<?xml version="1.0" encoding="UTF-8"?>
<!DOCTYPE svg PUBLIC "-//W3C//DTD SVG 1.1//EN" "http://www.w3.org/Graphics/SVG/1.1/DTD/svg11.dtd">
<!-- Creator: CorelDRAW X6 -->
<svg xmlns="http://www.w3.org/2000/svg" xml:space="preserve" width="96.2518mm" height="72.7572mm" version="1.1" style="shape-rendering:geometricPrecision; text-rendering:geometricPrecision; image-rendering:optimizeQuality; fill-rule:evenodd; clip-rule:evenodd"
viewBox="0 0 10343 7818"
 xmlns:xlink="http://www.w3.org/1999/xlink">
 <defs>
  <style type="text/css">
   <![CDATA[
    .str0 {stroke:#2B2A29;stroke-width:214.913}
    .fil0 {fill:none}
   ]]>
  </style>
 </defs>
 <g id="Warstwa_x0020_1">
  <metadata id="CorelCorpID_0Corel-Layer"/>
  <path class="fil0 str0" d="M3874 2072l3480 978 -3389 3207 -3594 -2138 3503 -2047zm-3493 2047c-364,258 -364,743 0,1183 1190,773 2381,1547 3571,2320l23 -1365m2074 -3577c369,-453 730,-910 1061,-1388 1145,-546 1939,-103 3072,121 -660,1259 -1141,2577 -1800,3835 -445,-193 -1047,-342 -1713,-417m-4403 -1814c-219,-121 -459,-245 -728,-383 1001,-842 2002,-1683 3002,-2525 1101,92 1934,503 2570,1183m-3158 6329l46 -47 0 0 2671 -2742 673 -691 23 -1092m-6797 1185c-253,110 -457,464 -7,1183m-225 -948l3632 2279 0 0m-3643 -1847l3635 2291 0 0m-3578 -3074l6973 -1069m-3480 -978l91 4185m3196 -4546c601,-246 1412,-208 2365,148m-2593 238c601,-246 1412,-208 2365,148"/>
 </g>
</svg>
