<?xml version="1.0" encoding="UTF-8"?>
<!DOCTYPE svg PUBLIC "-//W3C//DTD SVG 1.1//EN" "http://www.w3.org/Graphics/SVG/1.1/DTD/svg11.dtd">
<!-- Creator: CorelDRAW X6 -->
<svg xmlns="http://www.w3.org/2000/svg" xml:space="preserve" width="86.1364mm" height="100.792mm" version="1.1" style="shape-rendering:geometricPrecision; text-rendering:geometricPrecision; image-rendering:optimizeQuality; fill-rule:evenodd; clip-rule:evenodd"
viewBox="0 0 10481 12264"
 xmlns:xlink="http://www.w3.org/1999/xlink">
 <defs>
  <style type="text/css">
   <![CDATA[
    .str0 {stroke:#2B2A29;stroke-width:243.351}
    .fil0 {fill:none}
   ]]>
  </style>
 </defs>
 <g id="Warstwa_x0020_1">
  <metadata id="CorelCorpID_0Corel-Layer"/>
  <path class="fil0 str0" d="M3258 6721l-818 -4530c-1050,-592 -946,-2090 459,-2069 944,14 1473,1412 327,2051l357 2160 2503 -82 -372 740 -1874 81 138 887 3171 188 1504 2876 1209 -557 458 916 -1804 916 -1859 -3428 -3397 -148z"/>
  <path class="fil0 str0" d="M7607 9862c-621,1346 -1983,2281 -3563,2281 -2166,0 -3922,-1756 -3922,-3922 0,-1530 876,-2855 2153,-3501l494 2586 3530 163 1308 2394z"/>
  <path class="fil0 str0" d="M7135 8998c-347,1384 -1599,2409 -3091,2409 -1760,0 -3187,-1427 -3187,-3187 0,-1167 627,-2187 1563,-2742l349 1827 3530 163 836 1530z"/>
 </g>
</svg>
