<?xml version="1.0" encoding="UTF-8"?>
<!DOCTYPE svg PUBLIC "-//W3C//DTD SVG 1.1//EN" "http://www.w3.org/Graphics/SVG/1.1/DTD/svg11.dtd">
<!-- Creator: CorelDRAW X6 -->
<svg xmlns="http://www.w3.org/2000/svg" xml:space="preserve" width="94.9373mm" height="94.8752mm" version="1.1" style="shape-rendering:geometricPrecision; text-rendering:geometricPrecision; image-rendering:optimizeQuality; fill-rule:evenodd; clip-rule:evenodd"
viewBox="0 0 9232 9226"
 xmlns:xlink="http://www.w3.org/1999/xlink">
 <defs>
  <style type="text/css">
   <![CDATA[
    .str0 {stroke:#2B2A29;stroke-width:227.529}
    .fil0 {fill:none}
   ]]>
  </style>
 </defs>
 <g id="Warstwa_x0020_1">
  <metadata id="CorelCorpID_0Corel-Layer"/>
  <path class="fil0 str0" d="M3487 3503l-1806 -1011c281,-490 562,-979 843,-1469 1192,-1613 2522,-646 3106,-361 -413,66 -698,309 -1011,843l-1132 1999zm1248 -1553l648 1126 -458 313 1926 36 891 -1650 -578 241c-241,-365 -482,-730 -722,-1096 -920,-306 -1542,592 -1708,1029zm1540 2400l1791 -1038c278,491 556,983 834,1474 780,1848 -730,2499 -1273,2857 154,-388 90,-758 -209,-1300l-1142 -1993zm-2354 1843l7 2070c-564,-4 -1129,-8 -1693,-12 -1991,-245 -1802,-1878 -1841,-2528 260,327 612,456 1231,466l2297 3zm3054 23l-1299 -16 -36 -553 -1013 1639 965 1607 87 -620c437,-21 874,-42 1311,-63 732,-635 277,-1629 -15,-1994zm-5020 -346l662 -1118 498 245 -915 -1695 -1874 35 494 385c-200,389 -399,778 -599,1168 185,951 1274,1052 1736,981z"/>
 </g>
</svg>
