<?xml version="1.0" encoding="UTF-8"?>
<!DOCTYPE svg PUBLIC "-//W3C//DTD SVG 1.1//EN" "http://www.w3.org/Graphics/SVG/1.1/DTD/svg11.dtd">
<!-- Creator: CorelDRAW X6 -->
<svg xmlns="http://www.w3.org/2000/svg" xml:space="preserve" width="83.054mm" height="41.2914mm" version="1.1" style="shape-rendering:geometricPrecision; text-rendering:geometricPrecision; image-rendering:optimizeQuality; fill-rule:evenodd; clip-rule:evenodd"
viewBox="0 0 7108 3534"
 xmlns:xlink="http://www.w3.org/1999/xlink">
 <defs>
  <style type="text/css">
   <![CDATA[
    .str0 {stroke:#2B2A29;stroke-width:171.169}
    .fil0 {fill:none}
   ]]>
  </style>
 </defs>
 <g id="Warstwa_x0020_1">
  <metadata id="CorelCorpID_0Corel-Layer"/>
  <path class="fil0 str0" d="M1565 455c817,0 1479,662 1479,1479 0,817 -662,1479 -1479,1479 -817,0 -1479,-662 -1479,-1479 0,-817 662,-1479 1479,-1479zm3979 35c817,0 1479,662 1479,1479 0,817 -662,1479 -1479,1479 -817,0 -1479,-662 -1479,-1479 0,-817 662,-1479 1479,-1479zm-2500 1444c296,-229 716,-194 1021,0m-1108 -396c357,-229 862,-194 1230,0m-4101 430l3979 -1813c869,-288 1479,370 1285,986m1695 838l-3979 -1813c-869,-288 -1479,370 -1285,986"/>
 </g>
</svg>
