<?xml version="1.0" encoding="UTF-8"?>
<!DOCTYPE svg PUBLIC "-//W3C//DTD SVG 1.1//EN" "http://www.w3.org/Graphics/SVG/1.1/DTD/svg11.dtd">
<!-- Creator: CorelDRAW X6 -->
<svg xmlns="http://www.w3.org/2000/svg" xml:space="preserve" width="134.704mm" height="82.9528mm" version="1.1" style="shape-rendering:geometricPrecision; text-rendering:geometricPrecision; image-rendering:optimizeQuality; fill-rule:evenodd; clip-rule:evenodd"
viewBox="0 0 12758 7856"
 xmlns:xlink="http://www.w3.org/1999/xlink">
 <defs>
  <style type="text/css">
   <![CDATA[
    .str0 {stroke:#2B2A29;stroke-width:136.674}
    .fil0 {fill:none}
   ]]>
  </style>
 </defs>
 <g id="Warstwa_x0020_1">
  <metadata id="CorelCorpID_0Corel-Layer"/>
  <g id="_700594656">
   <path class="fil0 str0" d="M10463 3083c1230,0 2227,997 2227,2227 0,1230 -997,2227 -2227,2227 -1230,0 -2227,-997 -2227,-2227 0,-1230 997,-2227 2227,-2227zm0 298c1065,0 1929,864 1929,1929 0,1065 -864,1929 -1929,1929 -1065,0 -1929,-864 -1929,-1929 0,-1065 864,-1929 1929,-1929zm0 1601c181,0 328,147 328,328 0,181 -147,328 -328,328 -181,0 -328,-147 -328,-328 0,-181 147,-328 328,-328zm0 -1601l0 1601m0 657l0 1601m0 -3858l0 1601m0 657l0 1601m-499 -3793l414 1546m170 634l414 1546m-1464 -3534l800 1386m328 569l800 1386m-2329 -3035l1132 1132m464 464l1132 1132m-3035 -2329l1386 800m569 328l1386 800m-3534 -1464l1546 414m634 170l1546 414m-3793 -499l1601 0m657 0l1601 0m-3793 499l1546 -414m634 -170l1546 -414m-3534 1464l1386 -800m569 -328l1386 -800m-3035 2329l1132 -1132m464 -464l1132 -1132m-2329 3035l800 -1386m328 -569l800 -1386m-1464 3534l414 -1546m170 -634l414 -1546m-9483 -1218c1,7 3,14 4,20 1,6 2,12 4,18 654,3382 3194,3530 4400,3409m-4431 -3423c9,-2 18,-3 27,-5 7,-1 15,-2 22,-4 3604,-618 4733,1567 5086,2755m-156 -22c54,0 107,8 156,22 236,68 408,285 408,542 0,312 -253,564 -564,564 -266,0 -489,-184 -548,-431 -10,-43 -16,-87 -16,-133 0,-113 33,-217 90,-306l475 -259zm-4282 2008l800 -1386m-1200 1080l1132 -1132m-1438 732l1386 -800m-1645 -164l1601 0m657 0l43 0m-54 85l1546 414m-3727 -999l1546 414m602 249l1386 800m-3341 -1929l1386 800m517 396l1132 1132m-2728 -2728l1132 1132m19 -137l49 85 -49 -85zm377 654l800 1386m-880 -1354l414 1546m-499 -1535l0 1601m0 -1601l0 1601m328 -1951c0,7 1,14 1,22 0,181 -147,328 -328,328 -181,0 -328,-147 -328,-328 0,-137 83,-254 202,-303 148,109 300,202 454,281zm1563 409c-179,880 -957,1542 -1890,1542 -1065,0 -1929,-864 -1929,-1929 0,-629 301,-1188 767,-1540 763,1465 2045,1864 3053,1927zm301 10c-187,1041 -1097,1830 -2192,1830 -1230,0 -2227,-997 -2227,-2227 0,-748 368,-1409 934,-1813 812,1853 2389,2208 3485,2209zm-169 -2863l7 -143 205 -41 72 92 125 439m-782 -1640l380 1149m-226 -1375l-154 226 -585 -51 -236 -616 1960 -72 113 257 -1098 257 431 1334m970 1634c381,30 722,-32 990,-187 534,-523 657,-1724 1632,-2063m-1632 2063c7,79 14,157 21,236 -336,136 -652,211 -916,163m916 -163l-990 678 0 0m2991 -2279l-244 -173m-181 -718l-201 -690 287 -349 226 -62c80,-70 84,-140 41,-195l-62 -31 -595 -318 123 -144 41 0c219,130 438,260 657,390 115,92 106,174 51,277l-149 227 -221 39 -164 226 180 558 0 0m97 -1030l-277 -123 -1108 -174 -72 195c396,72 890,88 1189,216m-2522 4388c159,0 287,129 287,287 0,159 -129,287 -287,287 -159,0 -287,-129 -287,-287 0,-159 129,-287 287,-287zm-345 729l-231 762 626 10 51 -205c-37,-12 -22,-10 -51,-10l-298 -10 112 -443m621 -840c433,-297 783,-687 1113,-1292 158,-446 433,-1207 1083,-1391l-170 -518 0 0 -62 -185 298 -92c436,1102 726,2783 1227,3428m-64 81c-560,-559 -645,-1708 -1009,-2534l157 -47m972 2487c68,0 123,55 123,123 0,68 -55,123 -123,123 -68,0 -123,-55 -123,-123 0,-10 1,-20 3,-29 9,-35 32,-65 64,-81 17,-8 36,-13 56,-13zm-7343 9c71,0 128,57 128,128 0,71 -57,128 -128,128 -71,0 -128,-57 -128,-128 0,-71 57,-128 128,-128z"/>
   <path class="fil0 str0" d="M335 5309c34,927 490,1932 1502,2487l8 17"/>
   <path class="fil0 str0" d="M195 4358c-114,266 -205,879 -22,1482l-1 9"/>
  </g>
 </g>
</svg>
