<?xml version="1.0" encoding="UTF-8"?>
<!DOCTYPE svg PUBLIC "-//W3C//DTD SVG 1.1//EN" "http://www.w3.org/Graphics/SVG/1.1/DTD/svg11.dtd">
<!-- Creator: CorelDRAW X6 -->
<svg xmlns="http://www.w3.org/2000/svg" xml:space="preserve" width="115.103mm" height="83.7624mm" version="1.1" style="shape-rendering:geometricPrecision; text-rendering:geometricPrecision; image-rendering:optimizeQuality; fill-rule:evenodd; clip-rule:evenodd"
viewBox="0 0 11259 8193"
 xmlns:xlink="http://www.w3.org/1999/xlink">
 <defs>
  <style type="text/css">
   <![CDATA[
    .fil0 {fill:#2B2A29;fill-rule:nonzero}
   ]]>
  </style>
 </defs>
 <g id="Warstwa_x0020_1">
  <metadata id="CorelCorpID_0Corel-Layer"/>
  <g>
   <path class="fil0" d="M5672 8015l-82 178 -887 -434 -789 -440 -695 -444 -605 -446 -519 -447 -438 -446 -360 -443 -286 -438 -216 -431 -150 -423 -87 -412 -29 -399 26 -383 76 -365 122 -345 164 -322 201 -298 233 -272 261 -243 285 -213 305 -181 321 -148 332 -112 340 -74 343 -34 342 7 337 52 328 98 313 146 294 196 270 248 242 301 -161 111 -224 -279 -248 -228 -269 -180 -287 -134 -301 -90 -311 -48 -318 -7 -320 32 -318 69 -312 105 -302 139 -288 171 -269 201 -246 229 -219 255 -188 278 -153 300 -114 321 -71 339 -24 356 27 372 82 386 141 399 206 411 274 420 348 428 425 433 508 437 594 438 685 437 779 434 879 430zm-44 178l-82 -178 876 -429 777 -434 682 -437 591 -438 505 -436 423 -433 345 -428 272 -420 203 -411 139 -399 79 -386 24 -372 -26 -356 -73 -339 -116 -321 -155 -301 -189 -279 -220 -255 -247 -229 -270 -201 -289 -171 -303 -139 -313 -105 -319 -69 -320 -32 -318 7 -311 48 -300 90 -286 134 -268 180 -247 228 -222 279 -162 -110 240 -301 269 -248 293 -197 313 -146 327 -98 337 -52 342 -7 343 34 340 74 333 112 322 147 306 181 287 213 263 243 235 271 203 298 166 322 124 345 79 365 28 383 -26 399 -85 412 -147 423 -213 432 -283 438 -357 443 -435 446 -517 447 -602 446 -692 444 -786 440 -885 434zm-3666 -4211l-1962 0 0 -196 1962 0 96 116 -96 79zm96 -79l-15 79 -81 0 96 -79zm287 -1484l-287 1484 -192 -37 287 -1484 191 -6 1 43zm-192 -37l82 -423 109 417 -191 6zm821 3177l-820 -3134 189 -49 820 3134 1 44 -191 5zm191 -5l-84 411 -106 -406 191 -5zm332 -1619l-332 1619 -192 -39 332 -1619 96 -78 96 117zm-192 -39l16 -78 80 0 -96 78zm844 117l-748 0 0 -196 748 0 95 121 -95 75zm95 -75l-18 75 -77 0 95 -75zm527 -2159l-527 2159 -190 -46 527 -2159 190 0 0 46zm-190 -46l95 -389 95 389 -190 0zm997 4127l-997 -4080 190 -46 997 4080 0 46 -190 0zm190 0l-95 389 -95 -389 190 0zm712 -2915l-712 2915 -190 -46 712 -2915 190 0 0 46zm-190 -46l95 -389 95 389 -190 0zm384 1617l-384 -1570 190 -46 384 1570 0 46 -190 0zm190 0l-95 389 -95 -389 190 0zm758 -3102l-758 3102 -190 -46 758 -3102 190 -2 1 48zm-190 -46l91 -372 99 370 -190 2zm871 3305l-870 -3256 189 -50 870 3256 1 48 -190 2zm190 -2l-91 372 -99 -370 190 -2zm373 -1527l-373 1527 -190 -46 373 -1527 190 0 0 46zm-190 -46l95 -389 95 389 -190 0zm189 818l-189 -772 190 -46 189 772 -95 121 -95 -75zm95 75l-77 0 -18 -75 95 75zm2300 0l-2300 0 0 -196 2300 0 0 196z"/>
  </g>
 </g>
</svg>
