<?xml version="1.0" encoding="utf-8"?>
<!-- Generator: Adobe Illustrator 16.0.3, SVG Export Plug-In . SVG Version: 6.00 Build 0)  -->
<!DOCTYPE svg PUBLIC "-//W3C//DTD SVG 1.1//EN" "http://www.w3.org/Graphics/SVG/1.1/DTD/svg11.dtd">
<svg version="1.1" id="White" xmlns="http://www.w3.org/2000/svg" xmlns:xlink="http://www.w3.org/1999/xlink" x="0px" y="0px"
	 width="2000px" height="980px" viewBox="0 0 2000 980" enable-background="new 0 0 2000 980" xml:space="preserve">
<g id="Logo_PL_3_">
	<rect id="protection_zone_2_" fill="none" width="2000" height="980"/>
	<g id="sign_2_">
		<path fill="#73BF45" d="M1539.461,429.953c0,11.203,9.606,20.335,21.269,20.335c11.884,0,21.457-9.133,21.457-20.335
			c0-11.308-9.573-20.422-21.457-20.422C1549.067,409.531,1539.461,418.646,1539.461,429.953"/>
		<polygon fill="#73BF45" points="1583.171,286.32 1583.171,314.601 1521.754,314.601 1521.754,342.763 1612.813,342.763 
			1612.813,286.32 		"/>
		<polygon fill="#ED1C24" points="1508.851,517.082 1508.851,573.442 1538.458,573.442 1538.458,545.195 1599.894,545.195 
			1599.894,517.082 		"/>
		<path fill="#ED1C24" d="M1450.69,469.473v19.385h-36.311v84.584h29.655v-56.397h36.278v-47.572
			c0-42.392,36.16-76.851,80.468-76.851c44.461,0,80.653,34.459,80.653,76.851v47.572h36.142v28.15h-77.683v28.247h107.426v-84.584
			h-36.297v-19.385c0-57.941-49.381-105.117-110.241-105.117C1500.074,364.356,1450.69,411.532,1450.69,469.473"/>
		<path fill="#73BF45" d="M1677.576,286.32v56.425h-36.193v47.583c0,2.497-0.137,4.822-0.426,7.132
			c9.269,9.352,16.81,20.403,21.951,32.356c5.313-12.17,8.114-25.55,8.114-39.488v-19.367h36.278V286.32H1677.576z
			 M1560.781,467.129c-44.409,0-80.468-34.428-80.468-76.801v-47.583h-36.278v-28.163h77.719l0.117-28.263H1414.38v84.642h36.228
			v19.367c0,57.923,49.467,105.017,110.174,105.017c31.659,0,60.162-12.667,80.176-33.071c-1.069-11.798-5.024-22.679-11.186-32.458
			C1615.768,452.208,1590.065,467.129,1560.781,467.129"/>
	</g>
	<g id="Claim_PL_3_">
		<polygon fill="#FFFFFF" points="668.742,639.105 667.791,677.946 661.679,677.946 663.325,630.008 671.51,630.008 
			685.752,667.082 700.063,630.008 708.177,630.008 709.857,677.946 703.713,677.946 702.83,639.105 690.131,671.836 
			681.492,671.836 		"/>
		<rect x="750.516" y="630.008" fill="#FFFFFF" width="6.367" height="47.938"/>
		<path fill="#FFFFFF" d="M836.125,677.946h-6.415l-4.111-11.544h-21.083l-4.056,11.544h-6.453l16.689-47.938h8.689L836.125,677.946
			z M815.022,634.486l-8.809,26.587h17.657L815.022,634.486z"/>
		<path fill="#FFFFFF" d="M885.73,678.693c-4.788,0-10.476-0.848-14.735-2.512l1.085-5.024c4.517,1.29,9.218,2.104,13.787,2.104
			c7.979,0,9.59-2.035,9.59-7.537c0-6.484,0-7.031-10.254-9.236c-12.036-2.613-13.409-4.89-13.409-14.768
			c0-8.354,3.563-12.429,15.888-12.429c4.328,0,9.456,0.546,13.376,1.63l-0.49,5.229c-3.975-0.916-8.607-1.357-12.754-1.357
			c-8.094,0-9.586,1.596-9.586,7.164c0,6.553,0,6.859,9.812,9.168c13.205,3.19,13.869,5.094,13.869,14.496
			C901.908,673.873,899.411,678.693,885.73,678.693"/>
		<polygon fill="#FFFFFF" points="951.325,635.608 936.572,635.608 936.572,630.008 972.579,630.008 972.579,635.608 
			957.758,635.608 957.758,677.946 951.325,677.946 		"/>
		<path fill="#FFFFFF" d="M1042.113,664.129c0,7.943-5.026,14.564-17.927,14.564c-12.802,0-17.927-6.621-17.927-14.564V643.86
			c0-8.014,5.125-14.568,17.927-14.568c12.9,0,17.927,6.555,17.927,14.568V664.129z M1012.659,664.059
			c0,5.841,3.7,9.203,11.527,9.203c7.86,0,11.578-3.362,11.578-9.203v-20.098c0-5.838-3.718-9.168-11.578-9.168
			c-7.827,0-11.527,3.33-11.527,9.168V664.059z"/>
		<rect x="1126.672" y="630.008" fill="#FFFFFF" width="6.399" height="47.938"/>
		<polygon fill="#FFFFFF" points="1178.361,637.138 1178.361,677.946 1172.218,677.946 1172.218,630.008 1180.977,630.008 
			1202.587,671.09 1202.587,630.008 1208.732,630.008 1208.732,677.946 1199.887,677.946 		"/>
		<path fill="#FFFFFF" d="M1262.548,678.693c-4.824,0-10.528-0.848-14.753-2.512l1.034-5.024c4.584,1.29,9.304,2.104,13.886,2.104
			c7.909,0,9.559-2.035,9.559-7.537c0-6.484-0.102-7.031-10.236-9.236c-12-2.613-13.428-4.89-13.428-14.768
			c0-8.354,3.581-12.429,15.891-12.429c4.362,0,9.505,0.546,13.377,1.63l-0.511,5.229c-3.924-0.916-8.572-1.357-12.715-1.357
			c-8.115,0-9.576,1.596-9.576,7.164c0,6.553,0,6.859,9.712,9.168c13.21,3.19,13.905,5.094,13.905,14.496
			C1278.692,673.873,1276.212,678.693,1262.548,678.693"/>
		<path fill="#FFFFFF" d="M1318.193,630.008h17.91c10.744,0,14.445,4.479,14.445,11.779v7.096c0,7.506-3.701,11.952-14.445,11.952
			h-11.544v17.111h-6.366V630.008z M1335.898,635.608h-11.339v19.626h11.339c6.144,0,8.199-1.6,8.199-6.352v-6.926
			C1344.098,637.138,1342.042,635.608,1335.898,635.608"/>
		<rect x="1388.305" y="630.008" fill="#FFFFFF" width="6.434" height="47.938"/>
		<path fill="#FFFFFF" d="M1454.613,660.598h-12.07v17.349h-6.467v-47.938h18.894c10.646,0,14.429,4.479,14.429,11.779v6.995
			c0,5.602-2.172,9.539-7.928,11.101l12.952,18.063h-7.418L1454.613,660.598z M1454.75,635.608h-12.207v19.522h12.207
			c6.177,0,8.165-1.629,8.165-6.314v-6.859C1462.915,637.138,1460.927,635.608,1454.75,635.608"/>
		<path fill="#FFFFFF" d="M1550.036,677.946h-6.536l-4.143-11.544h-21.018l-4.039,11.544h-6.484l16.771-47.938h8.692
			L1550.036,677.946z M1528.882,634.486l-8.843,26.587h17.726L1528.882,634.486z"/>
		<path fill="#FFFFFF" d="M1591.474,664.23c0,6.619,2.632,8.862,10.797,8.862c3.021,0,7.773-0.375,11.627-1.021l0.612,5.264
			c-3.53,0.815-8.757,1.357-12.513,1.357c-12.102,0-16.975-5.092-16.975-14.09v-21.119c0-9.133,4.873-14.192,16.975-14.192
			c3.756,0,8.982,0.579,12.513,1.392l-0.612,5.267c-3.854-0.716-8.606-1.021-11.627-1.021c-8.165,0-10.797,2.172-10.797,8.896
			V664.23z"/>
		<path fill="#FFFFFF" d="M1659.313,630.008v48.177c0,5.603-0.833,6.315-9.423,13.919l-3.976-4.311
			c6.791-6.316,6.961-6.553,6.961-9.847v-47.938H1659.313z"/>
		<rect x="1700.58" y="630.008" fill="#FFFFFF" width="6.466" height="47.938"/>
	</g>
	<path id="logotype_2_" fill="#FFFFFF" d="M743.998,299.476c-5.01-7.521-14.26-12.019-24.107-12.802
		c-4.414-0.354-8.809,0.052-13.208,1.155c-14.31,3.768-24.274,15.652-29.047,29.063c-1.831,4.924-3.003,9.369-3.887,12.631
		c-48.026-4.535-68.989-7.521-139.593-5.026c-69.041,2.428-141.257,6.315-174.75,3.546c-20.101-1.543-41.983-5.94-51.014-9.437
		l-3.633-1.631c-2.326-0.966-4.107-1.781-5.704-1.885c-1.868-0.219-3.464,0.339-4.906,3.294c-1.342,3.056-3.769,6.197,1.917,9.489
		c5.688,3.329,27.026,11.409,56.446,13.344c94.012,6.112,146.825-0.781,217.04,0.713c54.732,1.204,100.533,8.063,100.533,8.063
		s-7.25,41.914-7.978,83.777c-1.055,64.747,5.447,111.013,8.266,121.404c2.902,11.001,3.97,13.681,7.01,15.278
		c2.99,1.492,6.739,2.51,10.407,2.783c5.263,0.339,10.458-0.678,13.514-3.804c1.509-1.186,2.784-2.477,3.751-4.21
		c1.748-2.648,1.884-5.362,1.375-6.756c-14.174-41.252-17.995-77.08-18.64-104.394c-0.714-26.872,2.123-73.286,7.011-102.23
		c10.049,0,23.308-1.442,35.378-7.791C750.159,333.63,751.093,310.119,743.998,299.476 M722.419,324.04
		c-3.514,3.834-12.696,7.79-24.327,7.01c3.651-15.922,10.781-25.243,20.37-24.499C726.291,307.25,730.942,314.907,722.419,324.04
		 M1147.007,313.039c-4.956-7.471-14.089-12.069-24.037-12.868c-4.396-0.306-8.862,0.035-13.24,1.239
		c-14.229,3.77-24.261,15.566-29.047,28.978c-1.715,5.024-3.004,9.354-3.923,12.629c-45.769-4.328-65.562-7.113-117.763-4.752
		c6.061-21.51,12.833-28.249,16.044-34.225c3.786-6.927-6.214-15.023-16.535-14.769c-8.336,0.238-11.647,3.888-13.973,6.96
		c-2.511,3.396-6.842,12.139-11.239,33.12c-0.557,2.717-1.235,6.232-1.987,10.375c-43.645,2.51-62.637,4.225-92.057,1.933
		c-20.068-1.612-41.881-6.025-50.862-9.59l-3.787-1.476c-2.273-1.07-4.141-1.835-5.652-1.971c-1.816-0.154-3.411,0-4.838,3.26
		c-1.46,3.36-3.836,6.28,1.886,9.541c5.634,3.292,27.107,10.662,56.308,13.343c40.558,3.77,63.679,2.732,96.271,2.138
		c-4.533,30.982-9.218,79.245-6.027,129.869c2.884,45.249,8.742,72.001,20.523,81.476c5.857,4.751,23.139,10.253,42.715-0.612
		c67.239-32.663,45.51-130.046-22.562-128.753c-3.993,0.1-11.322,1.339-15.635,2.037c0.897-38.316,3.683-65.138,7.231-84.285
		c8.861,0,18.469,0.066,29.369,0.288c54.714,1.289,88.955,6.603,88.955,6.603s-7.333,41.795-7.183,83.726
		c0.12,65.077,5.618,98.25,8.337,108.708c3.021,11.066,3.683,13.037,6.857,14.428c12.323,5.195,20.607,2.545,23.699-0.578
		c6.654-5.094,6.075-10.695,5.604-11.983c-10.306-28.078-17.183-65.282-18.407-93.258c-1.186-26.841,0.918-70.282,5.757-99.193
		c10.152,0.052,23.324-1.442,35.432-7.757C1153.188,347.16,1154.169,323.666,1147.007,313.039 M960.561,461.153
		c3.225,0,6.467,0.461,9.558,1.51c13.139,4.653,24.09,16.264,26.819,29.743c4.362,21.043-4.634,49.088-27.078,52.449
		c-4.819,0.745-10.217,0.95-12.526-6.484c-2.546-9.373-7.164-32.902-8.606-75.91C952.003,461.732,957.286,461.153,960.561,461.153
		 M1125.567,337.468c-3.701,3.955-12.751,7.858-24.414,7.01c3.603-15.857,10.815-25.143,20.424-24.276
		C1129.369,320.779,1133.971,328.468,1125.567,337.468 M1171.13,428.967c10.254,0,18.604-8.062,18.604-18.097
		c0-9.981-8.351-17.943-18.604-17.943c-10.32,0-18.605,7.962-18.605,17.943C1152.524,420.905,1160.81,428.967,1171.13,428.967
		 M1352.52,548.691c-4.328-1.833-11.596,0.17-12.632-10.32c-1.899-18.471,3.685-34.363-1.494-59.85
		c-3.479-17.13-20.71-25.295-33.832-27.434c-8.521-1.341-22.508-1.544-37.332,9.404c0,0-2.019-7.265-9.336-9.915
		c-8.182-2.884-22.678,5.181-28.587,8.645c-6.45,3.699-5.57,13.614,0.629,15.87c4.43,1.529,3.325,1.291,7.505,2.53
		c4.925,1.63,5.295,2.818,4.175,17.145c-3.174,39.869-1.8,43.06-2.92,70.393c-0.254,5.838,1.221,8.114,5.701,8.114
		c4.346,0,11.088,0.034,17.677,0.034c5.108,0,4.548-4.449,4.36-7.876c-0.628-14.738-0.881-35.312-0.425-51.2
		c0.169-6.18,0.425-12.527,0.748-20.33c0.39-3.647,1.699-4.855,4.77-7.163c3.771-3.124,7.505-5.669,12.206-7.81
		c6.4-3.087,33.443-10.048,31.49,28.885c-1.426,27.128-2.225,43.662,3.056,55.613c4.517,10.05,12.68,10.05,17.13,10.05
		c10.66,0,14.583-2.104,18.317-10.492C1357.121,555.346,1356.712,550.561,1352.52,548.691 M873.388,548.183
		c-2.87-0.646-8.573-0.886-10.17-6.282c-1.73-9.135-1.61-19.014-0.541-40.367c0.643-11.996,2.614-29.854,3.41-35.865
		c0.645-4.242,1.375-11.118-6.195-11.118c-4.056,0-7.859-0.084-12.546-0.084c-4.702,0-8.674,1.885-9.998,10.424
		c0,0-4.804,39.359-2.174,67.639c0.63,6.012-0.492,8.693-6.739,12.868c-8.539,5.67-41.729,15.243-41.624-24.548
		c0.084-14.905,3.327-33.925,3.327-54.397c0-8.354-2.767-13.075-9.676-15.876c-7.963-3.292-23.886,6.249-28.554,8.645
		c-6.604,3.633-5.57,13.614,0.628,15.87c4.429,1.529,3.292,1.291,7.52,2.53c4.838,1.63,5.688,2.953,4.09,17.145
		c-1.019,8.869-1.711,18.854-2.087,22.148c-0.798,6.584-2.257,22.065,1.529,33.236c5.773,16.567,19.965,23.768,33.104,25.838
		c11.442,1.801,30.03-1.122,42.998-9.167c1.597-1.089,1.478-1.019,2.242-1.494c3.738,6.077,6.961,8.115,18.112,8.115
		c8.186,0,13.124-2.446,16.842-11.372C878.77,557.519,880.891,549.98,873.388,548.183 M1192.619,548.691
		c-4.054-1.767-10.692-0.035-12.356-8.454c-1.084-5.501-0.442-18.911,0-28.554c0.747-13.164,2.752-28.749,2.818-45.231
		c0-8.354-2.818-13.075-9.643-15.876c-8.012-3.292-24.003,6.249-28.638,8.645c-6.57,3.633-5.568,13.614,0.712,15.87
		c4.365,1.529,3.242,1.291,7.454,2.53c4.923,1.63,5.72,2.953,4.176,17.145c-0.747,6.461-2.582,24.693-2.648,31.009
		c0,6.247-0.509,26.687,3.902,37.651c3.973,10.05,12.224,10.05,16.859,10.05c10.712,0,14.922-2.104,18.589-10.492
		c1.87-4.176,2.291-6.28,2.153-9.27C1195.896,551.68,1195.049,549.881,1192.619,548.691"/>
</g>
</svg>
